<svg xmlns="http://www.w3.org/2000/svg" xmlns:v="https://svgstorm.com"
viewBox = "0 0 305 305"
width="305"
height="305">
<g fill="None" fill-opacity="0.0" stroke="#FEFDFE" stroke-opacity="1.00" stroke-width="0.3"><path d="
M 0.00 305.00 
L 305.00 305.00
L 305.00 0.00
L 0.00 0.00
L 0.00 305.00
M 120.00 91.00 
C 105.02 99.80 106.70 118.45 121.00 126.00
C 122.65 126.56 124.19 126.82 126.00 127.00
C 143.49 128.76 161.47 125.68 179.00 127.00
C 175.49 135.74 165.61 142.09 159.00 149.00
C 153.20 153.95 147.34 159.66 142.00 165.00
C 129.61 179.50 115.56 192.67 102.00 206.00
C 112.86 186.23 126.92 167.64 138.00 148.00
C 131.22 155.32 125.31 157.82 119.75 166.75 C 114.18 175.67 102.10 174.80 94.00 169.00
C 72.69 160.64 56.42 142.25 52.22 118.78 C 48.02 95.30 55.66 68.68 77.25 53.25 C 98.83 37.82 126.53 37.95 155.00 39.00 C 183.47 40.05 218.90 38.21 248.00 39.00
C 244.27 44.60 237.55 47.22 234.00 53.00
C 236.19 53.76 237.32 51.70 239.00 51.00
C 244.21 47.59 249.52 44.09 255.00 41.00
C 267.84 33.77 280.01 25.57 293.00 19.00
C 282.52 30.15 274.01 38.80 262.75 49.75 C 251.49 60.70 243.26 66.85 231.75 79.75 C 220.25 92.65 196.74 86.94 179.00 88.00 C 161.26 89.06 136.93 85.07 120.00 91.00
M 233.00 136.00 
C 237.19 137.51 239.71 139.16 243.00 142.00
C 295.98 176.89 271.89 264.00 208.00 264.00
C 206.80 264.17 204.81 264.93 203.00 265.00
C 161.44 271.03 116.45 262.56 74.00 266.00
C 73.79 264.23 75.54 262.63 77.00 262.00
C 80.42 258.62 85.86 253.14 88.00 251.00
C 69.48 262.28 51.44 274.64 32.00 284.00
C 42.23 272.95 50.76 264.62 61.75 253.75 C 72.74 242.89 81.01 236.99 92.25 224.25 C 103.49 211.51 126.59 216.86 144.00 216.00 C 161.41 215.14 185.00 218.15 202.00 214.00
C 216.05 208.08 221.29 183.67 203.97 178.03 C 186.65 172.38 164.46 178.04 146.00 176.00
C 169.77 149.84 195.47 123.92 221.00 99.00
C 210.70 118.57 196.36 136.46 186.00 156.00
C 193.35 148.29 198.35 145.16 205.25 136.25 C 212.15 127.34 223.86 131.54 233.00 136.00 Z"/>
</g>
<g fill="None" fill-opacity="0.0" stroke="#EE4A81" stroke-opacity="1.00" stroke-width="0.3"><path d="
M 255.00 41.00 
C 250.01 44.57 244.65 48.10 239.00 51.00
C 237.32 51.70 236.19 53.76 234.00 53.00
C 237.55 47.22 244.27 44.60 248.00 39.00
C 218.90 38.21 183.47 40.05 155.00 39.00 C 126.53 37.95 98.83 37.82 77.25 53.25 C 55.66 68.68 48.02 95.30 52.22 118.78 C 56.42 142.25 72.69 160.64 94.00 169.00
C 76.85 159.85 67.24 137.03 72.98 117.98 C 78.71 98.92 102.80 91.69 120.00 91.00
C 136.93 85.07 161.26 89.06 179.00 88.00 C 196.74 86.94 220.25 92.65 231.75 79.75 C 243.26 66.85 251.49 60.70 262.75 49.75 C 274.01 38.80 282.52 30.15 293.00 19.00
C 280.01 25.57 267.84 33.77 255.00 41.00 Z"/>
</g>
<g fill="None" fill-opacity="0.0" stroke="#F7A8C1" stroke-opacity="1.00" stroke-width="0.3"><path d="
M 239.00 51.00 
C 244.65 48.10 250.01 44.57 255.00 41.00
C 249.52 44.09 244.21 47.59 239.00 51.00 Z"/>
</g>
<g fill="None" fill-opacity="0.0" stroke="#CC255A" stroke-opacity="1.00" stroke-width="0.3"><path d="
M 94.00 169.00 
C 102.10 174.80 114.18 175.67 119.75 166.75 C 125.31 157.82 131.22 155.32 138.00 148.00
C 126.92 167.64 112.86 186.23 102.00 206.00
C 115.56 192.67 129.61 179.50 142.00 165.00
C 152.82 152.34 166.18 141.57 177.00 129.00
C 158.63 127.26 137.60 132.64 121.00 126.00
C 106.70 118.45 105.02 99.80 120.00 91.00
C 102.80 91.69 78.71 98.92 72.98 117.98 C 67.24 137.03 76.85 159.85 94.00 169.00 Z"/>
</g>
<g fill="None" fill-opacity="0.0" stroke="#0C6580" stroke-opacity="1.00" stroke-width="0.3"><path d="
M 202.00 214.00 
C 220.85 213.00 239.35 208.96 249.32 189.32 C 259.29 169.68 245.87 152.24 234.00 137.00
C 233.67 136.83 233.27 136.13 233.00 136.00
C 223.86 131.54 212.15 127.34 205.25 136.25 C 198.35 145.16 193.35 148.29 186.00 156.00
C 196.36 136.46 210.70 118.57 221.00 99.00
C 195.47 123.92 169.77 149.84 146.00 176.00
C 164.46 178.04 186.65 172.38 203.97 178.03 C 221.29 183.67 216.05 208.08 202.00 214.00 Z"/>
</g>
<g fill="None" fill-opacity="0.0" stroke="#DC658B" stroke-opacity="1.00" stroke-width="0.3"><path d="
M 142.00 165.00 
C 147.34 159.66 153.20 153.95 159.00 149.00
C 165.53 142.47 172.92 135.25 178.00 128.00
C 160.83 127.33 142.34 129.33 126.00 127.00
C 124.19 126.82 122.65 126.56 121.00 126.00
C 137.60 132.64 158.63 127.26 177.00 129.00
C 166.18 141.57 152.82 152.34 142.00 165.00 Z"/>
</g>
<g fill="None" fill-opacity="0.0" stroke="#F1D1DB" stroke-opacity="1.00" stroke-width="0.3"><path d="
M 159.00 149.00 
C 165.61 142.09 175.49 135.74 179.00 127.00
C 161.47 125.68 143.49 128.76 126.00 127.00
C 142.34 129.33 160.83 127.33 178.00 128.00
C 172.92 135.25 165.53 142.47 159.00 149.00 Z"/>
</g>
<g fill="None" fill-opacity="0.0" stroke="#9BC8D2" stroke-opacity="1.00" stroke-width="0.3"><path d="
M 234.00 137.00 
C 237.06 138.58 240.14 140.12 243.00 142.00
C 239.71 139.16 237.19 137.51 233.00 136.00
C 233.27 136.13 233.67 136.83 234.00 137.00 Z"/>
</g>
<g fill="None" fill-opacity="0.0" stroke="#16869D" stroke-opacity="1.00" stroke-width="0.3"><path d="
M 202.00 214.00 
C 185.00 218.15 161.41 215.14 144.00 216.00 C 126.59 216.86 103.49 211.51 92.25 224.25 C 81.01 236.99 72.74 242.89 61.75 253.75 C 50.76 264.62 42.23 272.95 32.00 284.00
C 51.44 274.64 69.48 262.28 88.00 251.00
C 89.11 250.33 90.25 248.62 92.00 249.00
C 88.01 255.08 81.24 258.44 77.00 264.00
C 120.67 264.00 164.33 264.00 208.00 264.00
C 271.89 264.00 295.98 176.89 243.00 142.00
C 240.14 140.12 237.06 138.58 234.00 137.00
C 245.87 152.24 259.29 169.68 249.32 189.32 C 239.35 208.96 220.85 213.00 202.00 214.00 Z"/>
</g>
<g fill="None" fill-opacity="0.0" stroke="#57A6B4" stroke-opacity="1.00" stroke-width="0.3"><path d="
M 88.00 251.00 
C 85.86 253.14 80.42 258.62 77.00 262.00
C 76.32 262.99 75.46 263.92 75.00 265.00
C 117.67 265.00 160.33 265.00 203.00 265.00
C 204.81 264.93 206.80 264.17 208.00 264.00
C 164.33 264.00 120.67 264.00 77.00 264.00
C 81.24 258.44 88.01 255.08 92.00 249.00
C 90.25 248.62 89.11 250.33 88.00 251.00 Z"/>
</g>
<g fill="None" fill-opacity="0.0" stroke="#C5DEE2" stroke-opacity="1.00" stroke-width="0.3"><path d="
M 203.00 265.00 
C 160.33 265.00 117.67 265.00 75.00 265.00
C 75.46 263.92 76.32 262.99 77.00 262.00
C 75.54 262.63 73.79 264.23 74.00 266.00
C 116.45 262.56 161.44 271.03 203.00 265.00 Z"/>
</g>
<g fill="#FEFDFE" fill-opacity="1.00" stroke="None">
<path d="
M 0.00 305.00 
L 305.00 305.00
L 305.00 0.00
L 0.00 0.00
L 0.00 305.00
M 120.00 91.00 
C 105.02 99.80 106.70 118.45 121.00 126.00
C 122.65 126.56 124.19 126.82 126.00 127.00
C 143.49 128.76 161.47 125.68 179.00 127.00
C 175.49 135.74 165.61 142.09 159.00 149.00
C 153.20 153.95 147.34 159.66 142.00 165.00
C 129.61 179.50 115.56 192.67 102.00 206.00
C 112.86 186.23 126.92 167.64 138.00 148.00
C 131.22 155.32 125.31 157.82 119.75 166.75 C 114.18 175.67 102.10 174.80 94.00 169.00
C 72.69 160.64 56.42 142.25 52.22 118.78 C 48.02 95.30 55.66 68.68 77.25 53.25 C 98.83 37.82 126.53 37.95 155.00 39.00 C 183.47 40.05 218.90 38.21 248.00 39.00
C 244.27 44.60 237.55 47.22 234.00 53.00
C 236.19 53.76 237.32 51.70 239.00 51.00
C 244.21 47.59 249.52 44.09 255.00 41.00
C 267.84 33.77 280.01 25.57 293.00 19.00
C 282.52 30.15 274.01 38.80 262.75 49.75 C 251.49 60.70 243.26 66.85 231.75 79.75 C 220.25 92.65 196.74 86.94 179.00 88.00 C 161.26 89.06 136.93 85.07 120.00 91.00
M 233.00 136.00 
C 237.19 137.51 239.71 139.16 243.00 142.00
C 295.98 176.89 271.89 264.00 208.00 264.00
C 206.80 264.17 204.81 264.93 203.00 265.00
C 161.44 271.03 116.45 262.56 74.00 266.00
C 73.79 264.23 75.54 262.63 77.00 262.00
C 80.42 258.62 85.86 253.14 88.00 251.00
C 69.48 262.28 51.44 274.64 32.00 284.00
C 42.23 272.95 50.76 264.62 61.75 253.75 C 72.74 242.89 81.01 236.99 92.25 224.25 C 103.49 211.51 126.59 216.86 144.00 216.00 C 161.41 215.14 185.00 218.15 202.00 214.00
C 216.05 208.08 221.29 183.67 203.97 178.03 C 186.65 172.38 164.46 178.04 146.00 176.00
C 169.77 149.84 195.47 123.92 221.00 99.00
C 210.70 118.57 196.36 136.46 186.00 156.00
C 193.35 148.29 198.35 145.16 205.25 136.25 C 212.15 127.34 223.86 131.54 233.00 136.00 Z"/>
</g>
<g fill="#EE4A81" fill-opacity="1.00" stroke="None">
<path d="
M 255.00 41.00 
C 250.01 44.57 244.65 48.10 239.00 51.00
C 237.32 51.70 236.19 53.76 234.00 53.00
C 237.55 47.22 244.27 44.60 248.00 39.00
C 218.90 38.21 183.47 40.05 155.00 39.00 C 126.53 37.95 98.83 37.82 77.25 53.25 C 55.66 68.68 48.02 95.30 52.22 118.78 C 56.42 142.25 72.69 160.64 94.00 169.00
C 76.85 159.85 67.24 137.03 72.98 117.98 C 78.71 98.92 102.80 91.69 120.00 91.00
C 136.93 85.07 161.26 89.06 179.00 88.00 C 196.74 86.94 220.25 92.65 231.75 79.75 C 243.26 66.85 251.49 60.70 262.75 49.75 C 274.01 38.80 282.52 30.15 293.00 19.00
C 280.01 25.57 267.84 33.77 255.00 41.00 Z"/>
</g>
<g fill="#F7A8C1" fill-opacity="1.00" stroke="None">
<path d="
M 239.00 51.00 
C 244.65 48.10 250.01 44.57 255.00 41.00
C 249.52 44.09 244.21 47.59 239.00 51.00 Z"/>
</g>
<g fill="#CC255A" fill-opacity="1.00" stroke="None">
<path d="
M 94.00 169.00 
C 102.10 174.80 114.18 175.67 119.75 166.75 C 125.31 157.82 131.22 155.32 138.00 148.00
C 126.92 167.64 112.86 186.23 102.00 206.00
C 115.56 192.67 129.61 179.50 142.00 165.00
C 152.82 152.34 166.18 141.57 177.00 129.00
C 158.63 127.26 137.60 132.64 121.00 126.00
C 106.70 118.45 105.02 99.80 120.00 91.00
C 102.80 91.69 78.71 98.92 72.98 117.98 C 67.24 137.03 76.85 159.85 94.00 169.00 Z"/>
</g>
<g fill="#0C6580" fill-opacity="1.00" stroke="None">
<path d="
M 202.00 214.00 
C 220.85 213.00 239.35 208.96 249.32 189.32 C 259.29 169.68 245.87 152.24 234.00 137.00
C 233.67 136.83 233.27 136.13 233.00 136.00
C 223.86 131.54 212.15 127.34 205.25 136.25 C 198.35 145.16 193.35 148.29 186.00 156.00
C 196.36 136.46 210.70 118.57 221.00 99.00
C 195.47 123.92 169.77 149.84 146.00 176.00
C 164.46 178.04 186.65 172.38 203.97 178.03 C 221.29 183.67 216.05 208.08 202.00 214.00 Z"/>
</g>
<g fill="#DC658B" fill-opacity="1.00" stroke="None">
<path d="
M 142.00 165.00 
C 147.34 159.66 153.20 153.95 159.00 149.00
C 165.53 142.47 172.92 135.25 178.00 128.00
C 160.83 127.33 142.34 129.33 126.00 127.00
C 124.19 126.82 122.65 126.56 121.00 126.00
C 137.60 132.64 158.63 127.26 177.00 129.00
C 166.18 141.57 152.82 152.34 142.00 165.00 Z"/>
</g>
<g fill="#F1D1DB" fill-opacity="1.00" stroke="None">
<path d="
M 159.00 149.00 
C 165.61 142.09 175.49 135.74 179.00 127.00
C 161.47 125.68 143.49 128.76 126.00 127.00
C 142.34 129.33 160.83 127.33 178.00 128.00
C 172.92 135.25 165.53 142.47 159.00 149.00 Z"/>
</g>
<g fill="#9BC8D2" fill-opacity="1.00" stroke="None">
<path d="
M 234.00 137.00 
C 237.06 138.58 240.14 140.12 243.00 142.00
C 239.71 139.16 237.19 137.51 233.00 136.00
C 233.27 136.13 233.67 136.83 234.00 137.00 Z"/>
</g>
<g fill="#16869D" fill-opacity="1.00" stroke="None">
<path d="
M 202.00 214.00 
C 185.00 218.15 161.41 215.14 144.00 216.00 C 126.59 216.86 103.49 211.51 92.25 224.25 C 81.01 236.99 72.74 242.89 61.75 253.75 C 50.76 264.62 42.23 272.95 32.00 284.00
C 51.44 274.64 69.48 262.28 88.00 251.00
C 89.11 250.33 90.25 248.62 92.00 249.00
C 88.01 255.08 81.24 258.44 77.00 264.00
C 120.67 264.00 164.33 264.00 208.00 264.00
C 271.89 264.00 295.98 176.89 243.00 142.00
C 240.14 140.12 237.06 138.58 234.00 137.00
C 245.87 152.24 259.29 169.68 249.32 189.32 C 239.35 208.96 220.85 213.00 202.00 214.00 Z"/>
</g>
<g fill="#57A6B4" fill-opacity="1.00" stroke="None">
<path d="
M 88.00 251.00 
C 85.86 253.14 80.42 258.62 77.00 262.00
C 76.32 262.99 75.46 263.92 75.00 265.00
C 117.67 265.00 160.33 265.00 203.00 265.00
C 204.81 264.93 206.80 264.17 208.00 264.00
C 164.33 264.00 120.67 264.00 77.00 264.00
C 81.24 258.44 88.01 255.08 92.00 249.00
C 90.25 248.62 89.11 250.33 88.00 251.00 Z"/>
</g>
<g fill="#C5DEE2" fill-opacity="1.00" stroke="None">
<path d="
M 203.00 265.00 
C 160.33 265.00 117.67 265.00 75.00 265.00
C 75.46 263.92 76.32 262.99 77.00 262.00
C 75.54 262.63 73.79 264.23 74.00 266.00
C 116.45 262.56 161.44 271.03 203.00 265.00 Z"/>
</g>
</svg>