<svg xmlns="http://www.w3.org/2000/svg" xmlns:v="https://svgstorm.com"
viewBox = "0 0 300 297"
width="300"
height="297">
<g fill="None" fill-opacity="0.0" stroke="#FEFEFE" stroke-opacity="1.00" stroke-width="0.3"><path d="
M 0.00 297.00 
L 300.00 297.00
L 300.00 0.00
L 0.00 0.00
L 0.00 297.00
M 274.00 56.00 
C 274.96 58.71 275.63 60.38 276.00 64.00
C 278.35 86.91 276.28 111.76 277.00 135.00 C 277.72 158.24 275.99 185.32 277.00 208.00 C 278.01 230.68 274.89 247.88 258.75 262.75 C 242.60 277.61 221.09 276.44 199.00 276.00 C 176.91 275.56 147.81 276.68 126.00 276.00 C 104.19 275.32 74.92 278.66 55.99 273.01 C 37.06 267.35 24.10 252.30 22.00 234.00
C 14.92 207.86 18.82 174.08 19.00 146.00 C 19.18 117.92 14.44 83.98 22.00 58.00
C 23.83 41.65 36.75 28.60 52.22 22.22 C 67.70 15.85 93.90 16.88 113.00 17.00 C 132.10 17.12 160.70 16.74 180.00 17.00 C 199.30 17.26 225.56 15.06 242.07 20.93 C 258.59 26.80 270.96 39.65 274.00 56.00 Z"/>
</g>
<g fill="None" fill-opacity="0.0" stroke="#3CC88A" stroke-opacity="1.00" stroke-width="0.3"><path d="
M 22.00 58.00 
C 18.81 86.58 19.97 116.67 20.00 146.00 C 20.03 175.33 18.72 205.43 22.00 234.00
C 24.10 252.30 37.06 267.35 55.99 273.01 C 74.92 278.66 104.19 275.32 126.00 276.00 C 147.81 276.68 176.91 275.56 199.00 276.00 C 221.09 276.44 242.60 277.61 258.75 262.75 C 274.89 247.88 278.01 230.68 277.00 208.00 C 275.99 185.32 277.72 158.24 277.00 135.00 C 276.28 111.76 278.35 86.91 276.00 64.00
C 275.34 61.58 274.53 58.86 274.00 56.00
C 270.96 39.65 258.59 26.80 242.07 20.93 C 225.56 15.06 199.30 17.26 180.00 17.00 C 160.70 16.74 132.10 17.12 113.00 17.00 C 93.90 16.88 67.70 15.85 52.22 22.22 C 36.75 28.60 23.83 41.65 22.00 58.00
M 149.00 64.00 
C 148.51 64.08 147.35 64.23 147.00 64.00
C 144.59 62.43 144.96 46.01 149.03 47.03 C 153.09 48.05 151.73 63.56 149.00 64.00
M 77.00 80.00 
C 77.29 73.20 87.68 80.44 89.25 85.75 C 90.82 91.06 79.19 82.29 77.00 80.00
M 219.00 77.00 
C 218.08 82.02 211.94 85.40 209.00 90.00
C 203.24 86.17 214.84 78.40 219.00 77.00
M 162.00 196.00 
C 156.52 196.98 145.92 198.17 140.00 197.00 C 134.08 195.83 121.95 200.11 118.00 196.00
C 113.40 191.55 118.35 179.87 117.00 173.00 C 115.65 166.13 117.63 155.65 117.00 148.00 C 116.37 140.35 117.33 130.98 117.00 123.00 C 116.67 115.02 117.25 106.07 117.00 98.00
C 132.67 98.00 148.33 98.00 164.00 98.00
C 171.57 99.43 175.51 103.41 180.75 109.25 C 186.00 115.08 184.08 124.67 183.25 131.25 C 182.41 137.82 169.50 142.91 174.09 146.92 C 178.67 150.93 185.40 155.28 185.98 163.02 C 186.55 170.77 185.86 179.81 180.75 185.75 C 175.63 191.68 170.01 195.45 162.00 196.00
M 65.00 149.00 
C 59.67 149.00 54.33 149.00 49.00 149.00
C 47.75 142.70 65.43 142.68 65.00 149.00
M 247.00 145.00 
C 247.76 152.50 236.66 147.59 232.00 149.00
C 231.24 141.50 242.34 146.41 247.00 145.00
M 90.00 209.00 
C 85.10 210.30 83.08 219.19 77.00 217.00
C 79.14 214.23 88.24 199.79 90.00 209.00
M 209.00 205.00 
C 211.88 209.80 218.40 212.64 219.00 218.00
C 214.79 216.69 202.16 208.01 209.00 205.00
M 151.00 230.00 
C 151.00 235.67 151.00 241.33 151.00 247.00
C 143.23 249.43 143.13 227.58 151.00 230.00 Z"/>
</g>
<g fill="None" fill-opacity="0.0" stroke="#B7ECD6" stroke-opacity="1.00" stroke-width="0.3"><path d="
M 147.00 64.00 
C 145.31 60.20 147.43 52.23 148.00 49.00
C 150.24 53.09 148.40 59.16 149.00 64.00
C 151.73 63.56 153.09 48.05 149.03 47.03 C 144.96 46.01 144.59 62.43 147.00 64.00 Z"/>
</g>
<g fill="None" fill-opacity="0.0" stroke="#FFFFFF" stroke-opacity="1.00" stroke-width="0.3"><path d="
M 147.00 64.00 
C 147.35 64.23 148.51 64.08 149.00 64.00
C 148.40 59.16 150.24 53.09 148.00 49.00
C 147.43 52.23 145.31 60.20 147.00 64.00 Z"/>
</g>
<g fill="None" fill-opacity="0.0" stroke="#A3E6CB" stroke-opacity="1.00" stroke-width="0.3"><path d="
M 276.00 64.00 
C 275.63 60.38 274.96 58.71 274.00 56.00
C 274.53 58.86 275.34 61.58 276.00 64.00 Z"/>
</g>
<g fill="None" fill-opacity="0.0" stroke="#A5E7CD" stroke-opacity="1.00" stroke-width="0.3"><path d="
M 22.00 234.00 
C 18.72 205.43 20.03 175.33 20.00 146.00 C 19.97 116.67 18.81 86.58 22.00 58.00
C 14.44 83.98 19.18 117.92 19.00 146.00 C 18.82 174.08 14.92 207.86 22.00 234.00 Z"/>
</g>
<g fill="None" fill-opacity="0.0" stroke="#EEFAF5" stroke-opacity="1.00" stroke-width="0.3"><path d="
M 77.00 80.00 
C 79.19 82.29 90.82 91.06 89.25 85.75 C 87.68 80.44 77.29 73.20 77.00 80.00 Z"/>
</g>
<g fill="None" fill-opacity="0.0" stroke="#EDFAF5" stroke-opacity="1.00" stroke-width="0.3"><path d="
M 219.00 77.00 
C 214.84 78.40 203.24 86.17 209.00 90.00
C 211.94 85.40 218.08 82.02 219.00 77.00 Z"/>
</g>
<g fill="None" fill-opacity="0.0" stroke="#D3F3E6" stroke-opacity="1.00" stroke-width="0.3"><path d="
M 118.00 196.00 
C 118.26 196.25 119.00 196.00 119.00 196.00
C 121.90 163.93 116.83 131.14 119.00 99.00
C 124.11 98.75 129.96 99.34 135.00 99.00 C 140.04 98.66 147.31 99.61 152.00 99.00 C 156.69 98.39 164.22 101.03 164.00 98.00
C 148.33 98.00 132.67 98.00 117.00 98.00
C 117.25 106.07 116.67 115.02 117.00 123.00 C 117.33 130.98 116.37 140.35 117.00 148.00 C 117.63 155.65 115.65 166.13 117.00 173.00 C 118.35 179.87 113.40 191.55 118.00 196.00 Z"/>
</g>
<g fill="None" fill-opacity="0.0" stroke="#FCFEFD" stroke-opacity="1.00" stroke-width="0.3"><path d="
M 119.00 196.00 
C 133.22 196.00 147.82 196.97 162.00 196.00
C 170.01 195.45 175.63 191.68 180.75 185.75 C 185.86 179.81 186.55 170.77 185.98 163.02 C 185.40 155.28 178.67 150.93 174.09 146.92 C 169.50 142.91 182.41 137.82 183.25 131.25 C 184.08 124.67 186.00 115.08 180.75 109.25 C 175.51 103.41 171.57 99.43 164.00 98.00
C 164.22 101.03 156.69 98.39 152.00 99.00 C 147.31 99.61 140.04 98.66 135.00 99.00 C 129.96 99.34 124.11 98.75 119.00 99.00
C 116.83 131.14 121.90 163.93 119.00 196.00
M 164.00 108.00 
C 178.05 114.65 178.98 130.70 165.00 138.00
C 160.01 140.61 153.17 142.32 147.00 141.00 C 140.83 139.68 130.42 143.84 127.00 139.00
C 121.66 131.44 129.16 125.69 126.00 116.00 C 122.84 106.31 132.71 104.81 141.00 106.00 C 149.29 107.19 156.98 104.68 164.00 108.00
M 127.00 188.00 
C 127.00 175.00 127.00 162.00 127.00 149.00
C 145.71 150.50 174.38 141.56 176.00 168.00 C 177.62 194.44 145.76 187.45 127.00 188.00 Z"/>
</g>
<g fill="None" fill-opacity="0.0" stroke="#DCF6EC" stroke-opacity="1.00" stroke-width="0.3"><path d="
M 127.00 139.00 
C 125.44 135.77 127.06 126.52 127.00 123.00 C 126.94 119.48 125.34 108.86 128.00 107.00
C 131.76 104.37 141.19 107.94 146.00 107.00 C 150.81 106.06 159.39 106.60 164.00 108.00
C 156.98 104.68 149.29 107.19 141.00 106.00 C 132.71 104.81 122.84 106.31 126.00 116.00 C 129.16 125.69 121.66 131.44 127.00 139.00 Z"/>
</g>
<g fill="None" fill-opacity="0.0" stroke="#94E2C2" stroke-opacity="1.00" stroke-width="0.3"><path d="
M 127.00 139.00 
C 130.42 143.84 140.83 139.68 147.00 141.00 C 153.17 142.32 160.01 140.61 165.00 138.00
C 153.48 141.35 140.02 137.56 128.00 139.00
C 128.00 128.33 128.00 117.67 128.00 107.00
C 125.34 108.86 126.94 119.48 127.00 123.00 C 127.06 126.52 125.44 135.77 127.00 139.00 Z"/>
</g>
<g fill="None" fill-opacity="0.0" stroke="#3DC88A" stroke-opacity="1.00" stroke-width="0.3"><path d="
M 165.00 138.00 
C 178.98 130.70 178.05 114.65 164.00 108.00
C 159.39 106.60 150.81 106.06 146.00 107.00 C 141.19 107.94 131.76 104.37 128.00 107.00
C 128.00 117.67 128.00 128.33 128.00 139.00
C 140.02 137.56 153.48 141.35 165.00 138.00 Z"/>
</g>
<g fill="None" fill-opacity="0.0" stroke="#EAF9F4" stroke-opacity="1.00" stroke-width="0.3"><path d="
M 65.00 149.00 
C 65.43 142.68 47.75 142.70 49.00 149.00
C 54.33 149.00 59.67 149.00 65.00 149.00 Z"/>
</g>
<g fill="None" fill-opacity="0.0" stroke="#EBFAF4" stroke-opacity="1.00" stroke-width="0.3"><path d="
M 247.00 145.00 
C 242.34 146.41 231.24 141.50 232.00 149.00
C 236.66 147.59 247.76 152.50 247.00 145.00 Z"/>
</g>
<g fill="None" fill-opacity="0.0" stroke="#42C98C" stroke-opacity="1.00" stroke-width="0.3"><path d="
M 127.00 188.00 
C 145.76 187.45 177.62 194.44 176.00 168.00 C 174.38 141.56 145.71 150.50 127.00 149.00
C 127.00 162.00 127.00 175.00 127.00 188.00 Z"/>
</g>
<g fill="None" fill-opacity="0.0" stroke="#80DCB7" stroke-opacity="1.00" stroke-width="0.3"><path d="
M 162.00 196.00 
C 147.82 196.97 133.22 196.00 119.00 196.00
C 119.00 196.00 118.26 196.25 118.00 196.00
C 121.95 200.11 134.08 195.83 140.00 197.00 C 145.92 198.17 156.52 196.98 162.00 196.00 Z"/>
</g>
<g fill="None" fill-opacity="0.0" stroke="#EEFAF5" stroke-opacity="1.00" stroke-width="0.3"><path d="
M 90.00 209.00 
C 88.24 199.79 79.14 214.23 77.00 217.00
C 83.08 219.19 85.10 210.30 90.00 209.00 Z"/>
</g>
<g fill="None" fill-opacity="0.0" stroke="#EBFAF4" stroke-opacity="1.00" stroke-width="0.3"><path d="
M 209.00 205.00 
C 202.16 208.01 214.79 216.69 219.00 218.00
C 218.40 212.64 211.88 209.80 209.00 205.00 Z"/>
</g>
<g fill="None" fill-opacity="0.0" stroke="#B6EBD5" stroke-opacity="1.00" stroke-width="0.3"><path d="
M 151.00 230.00 
C 143.13 227.58 143.23 249.43 151.00 247.00
C 151.00 241.33 151.00 235.67 151.00 230.00
M 148.00 246.00 
C 146.40 242.07 146.30 234.86 148.00 231.00
C 149.60 234.93 149.70 242.14 148.00 246.00 Z"/>
</g>
<g fill="None" fill-opacity="0.0" stroke="#FEFEFE" stroke-opacity="1.00" stroke-width="0.3"><path d="
M 148.00 246.00 
C 149.70 242.14 149.60 234.93 148.00 231.00
C 146.30 234.86 146.40 242.07 148.00 246.00 Z"/>
</g>
<g fill="#FEFEFE" fill-opacity="1.00" stroke="None">
<path d="
M 0.00 297.00 
L 300.00 297.00
L 300.00 0.00
L 0.00 0.00
L 0.00 297.00
M 274.00 56.00 
C 274.96 58.71 275.63 60.38 276.00 64.00
C 278.35 86.91 276.28 111.76 277.00 135.00 C 277.72 158.24 275.99 185.32 277.00 208.00 C 278.01 230.68 274.89 247.88 258.75 262.75 C 242.60 277.61 221.09 276.44 199.00 276.00 C 176.91 275.56 147.81 276.68 126.00 276.00 C 104.19 275.32 74.92 278.66 55.99 273.01 C 37.06 267.35 24.10 252.30 22.00 234.00
C 14.92 207.86 18.82 174.08 19.00 146.00 C 19.18 117.92 14.44 83.98 22.00 58.00
C 23.83 41.65 36.75 28.60 52.22 22.22 C 67.70 15.85 93.90 16.88 113.00 17.00 C 132.10 17.12 160.70 16.74 180.00 17.00 C 199.30 17.26 225.56 15.06 242.07 20.93 C 258.59 26.80 270.96 39.65 274.00 56.00 Z"/>
</g>
<g fill="#3CC88A" fill-opacity="1.00" stroke="None">
<path d="
M 22.00 58.00 
C 18.81 86.58 19.97 116.67 20.00 146.00 C 20.03 175.33 18.72 205.43 22.00 234.00
C 24.10 252.30 37.06 267.35 55.99 273.01 C 74.92 278.66 104.19 275.32 126.00 276.00 C 147.81 276.68 176.91 275.56 199.00 276.00 C 221.09 276.44 242.60 277.61 258.75 262.75 C 274.89 247.88 278.01 230.68 277.00 208.00 C 275.99 185.32 277.72 158.24 277.00 135.00 C 276.28 111.76 278.35 86.91 276.00 64.00
C 275.34 61.58 274.53 58.86 274.00 56.00
C 270.96 39.65 258.59 26.80 242.07 20.93 C 225.56 15.06 199.30 17.26 180.00 17.00 C 160.70 16.74 132.10 17.12 113.00 17.00 C 93.90 16.88 67.70 15.85 52.22 22.22 C 36.75 28.60 23.83 41.65 22.00 58.00
M 149.00 64.00 
C 148.51 64.08 147.35 64.23 147.00 64.00
C 144.59 62.43 144.96 46.01 149.03 47.03 C 153.09 48.05 151.73 63.56 149.00 64.00
M 77.00 80.00 
C 77.29 73.20 87.68 80.44 89.25 85.75 C 90.82 91.06 79.19 82.29 77.00 80.00
M 219.00 77.00 
C 218.08 82.02 211.94 85.40 209.00 90.00
C 203.24 86.17 214.84 78.40 219.00 77.00
M 162.00 196.00 
C 156.52 196.98 145.92 198.17 140.00 197.00 C 134.08 195.83 121.95 200.11 118.00 196.00
C 113.40 191.55 118.35 179.87 117.00 173.00 C 115.65 166.13 117.63 155.65 117.00 148.00 C 116.37 140.35 117.33 130.98 117.00 123.00 C 116.67 115.02 117.25 106.07 117.00 98.00
C 132.67 98.00 148.33 98.00 164.00 98.00
C 171.57 99.43 175.51 103.41 180.75 109.25 C 186.00 115.08 184.08 124.67 183.25 131.25 C 182.41 137.82 169.50 142.91 174.09 146.92 C 178.67 150.93 185.40 155.28 185.98 163.02 C 186.55 170.77 185.86 179.81 180.75 185.75 C 175.63 191.68 170.01 195.45 162.00 196.00
M 65.00 149.00 
C 59.67 149.00 54.33 149.00 49.00 149.00
C 47.75 142.70 65.43 142.68 65.00 149.00
M 247.00 145.00 
C 247.76 152.50 236.66 147.59 232.00 149.00
C 231.24 141.50 242.34 146.41 247.00 145.00
M 90.00 209.00 
C 85.10 210.30 83.08 219.19 77.00 217.00
C 79.14 214.23 88.24 199.79 90.00 209.00
M 209.00 205.00 
C 211.88 209.80 218.40 212.64 219.00 218.00
C 214.79 216.69 202.16 208.01 209.00 205.00
M 151.00 230.00 
C 151.00 235.67 151.00 241.33 151.00 247.00
C 143.23 249.43 143.13 227.58 151.00 230.00 Z"/>
</g>
<g fill="#B7ECD6" fill-opacity="1.00" stroke="None">
<path d="
M 147.00 64.00 
C 145.31 60.20 147.43 52.23 148.00 49.00
C 150.24 53.09 148.40 59.16 149.00 64.00
C 151.73 63.56 153.09 48.05 149.03 47.03 C 144.96 46.01 144.59 62.43 147.00 64.00 Z"/>
</g>
<g fill="#FFFFFF" fill-opacity="1.00" stroke="None">
<path d="
M 147.00 64.00 
C 147.35 64.23 148.51 64.08 149.00 64.00
C 148.40 59.16 150.24 53.09 148.00 49.00
C 147.43 52.23 145.31 60.20 147.00 64.00 Z"/>
</g>
<g fill="#A3E6CB" fill-opacity="1.00" stroke="None">
<path d="
M 276.00 64.00 
C 275.63 60.38 274.96 58.71 274.00 56.00
C 274.53 58.86 275.34 61.58 276.00 64.00 Z"/>
</g>
<g fill="#A5E7CD" fill-opacity="1.00" stroke="None">
<path d="
M 22.00 234.00 
C 18.72 205.43 20.03 175.33 20.00 146.00 C 19.97 116.67 18.81 86.58 22.00 58.00
C 14.44 83.98 19.18 117.92 19.00 146.00 C 18.82 174.08 14.92 207.86 22.00 234.00 Z"/>
</g>
<g fill="#EEFAF5" fill-opacity="1.00" stroke="None">
<path d="
M 77.00 80.00 
C 79.19 82.29 90.82 91.06 89.25 85.75 C 87.68 80.44 77.29 73.20 77.00 80.00 Z"/>
</g>
<g fill="#EDFAF5" fill-opacity="1.00" stroke="None">
<path d="
M 219.00 77.00 
C 214.84 78.40 203.24 86.17 209.00 90.00
C 211.94 85.40 218.08 82.02 219.00 77.00 Z"/>
</g>
<g fill="#D3F3E6" fill-opacity="1.00" stroke="None">
<path d="
M 118.00 196.00 
C 118.26 196.25 119.00 196.00 119.00 196.00
C 121.90 163.93 116.83 131.14 119.00 99.00
C 124.11 98.75 129.96 99.34 135.00 99.00 C 140.04 98.66 147.31 99.61 152.00 99.00 C 156.69 98.39 164.22 101.03 164.00 98.00
C 148.33 98.00 132.67 98.00 117.00 98.00
C 117.25 106.07 116.67 115.02 117.00 123.00 C 117.33 130.98 116.37 140.35 117.00 148.00 C 117.63 155.65 115.65 166.13 117.00 173.00 C 118.35 179.87 113.40 191.55 118.00 196.00 Z"/>
</g>
<g fill="#FCFEFD" fill-opacity="1.00" stroke="None">
<path d="
M 119.00 196.00 
C 133.22 196.00 147.82 196.97 162.00 196.00
C 170.01 195.45 175.63 191.68 180.75 185.75 C 185.86 179.81 186.55 170.77 185.98 163.02 C 185.40 155.28 178.67 150.93 174.09 146.92 C 169.50 142.91 182.41 137.82 183.25 131.25 C 184.08 124.67 186.00 115.08 180.75 109.25 C 175.51 103.41 171.57 99.43 164.00 98.00
C 164.22 101.03 156.69 98.39 152.00 99.00 C 147.31 99.61 140.04 98.66 135.00 99.00 C 129.96 99.34 124.11 98.75 119.00 99.00
C 116.83 131.14 121.90 163.93 119.00 196.00
M 164.00 108.00 
C 178.05 114.65 178.98 130.70 165.00 138.00
C 160.01 140.61 153.17 142.32 147.00 141.00 C 140.83 139.68 130.42 143.84 127.00 139.00
C 121.66 131.44 129.16 125.69 126.00 116.00 C 122.84 106.31 132.71 104.81 141.00 106.00 C 149.29 107.19 156.98 104.68 164.00 108.00
M 127.00 188.00 
C 127.00 175.00 127.00 162.00 127.00 149.00
C 145.71 150.50 174.38 141.56 176.00 168.00 C 177.62 194.44 145.76 187.45 127.00 188.00 Z"/>
</g>
<g fill="#DCF6EC" fill-opacity="1.00" stroke="None">
<path d="
M 127.00 139.00 
C 125.44 135.77 127.06 126.52 127.00 123.00 C 126.94 119.48 125.34 108.86 128.00 107.00
C 131.76 104.37 141.19 107.94 146.00 107.00 C 150.81 106.06 159.39 106.60 164.00 108.00
C 156.98 104.68 149.29 107.19 141.00 106.00 C 132.71 104.81 122.84 106.31 126.00 116.00 C 129.16 125.69 121.66 131.44 127.00 139.00 Z"/>
</g>
<g fill="#94E2C2" fill-opacity="1.00" stroke="None">
<path d="
M 127.00 139.00 
C 130.42 143.84 140.83 139.68 147.00 141.00 C 153.17 142.32 160.01 140.61 165.00 138.00
C 153.48 141.35 140.02 137.56 128.00 139.00
C 128.00 128.33 128.00 117.67 128.00 107.00
C 125.34 108.86 126.94 119.48 127.00 123.00 C 127.06 126.52 125.44 135.77 127.00 139.00 Z"/>
</g>
<g fill="#3DC88A" fill-opacity="1.00" stroke="None">
<path d="
M 165.00 138.00 
C 178.98 130.70 178.05 114.65 164.00 108.00
C 159.39 106.60 150.81 106.06 146.00 107.00 C 141.19 107.94 131.76 104.37 128.00 107.00
C 128.00 117.67 128.00 128.33 128.00 139.00
C 140.02 137.56 153.48 141.35 165.00 138.00 Z"/>
</g>
<g fill="#EAF9F4" fill-opacity="1.00" stroke="None">
<path d="
M 65.00 149.00 
C 65.43 142.68 47.75 142.70 49.00 149.00
C 54.33 149.00 59.67 149.00 65.00 149.00 Z"/>
</g>
<g fill="#EBFAF4" fill-opacity="1.00" stroke="None">
<path d="
M 247.00 145.00 
C 242.34 146.41 231.24 141.50 232.00 149.00
C 236.66 147.59 247.76 152.50 247.00 145.00 Z"/>
</g>
<g fill="#42C98C" fill-opacity="1.00" stroke="None">
<path d="
M 127.00 188.00 
C 145.76 187.45 177.62 194.44 176.00 168.00 C 174.38 141.56 145.71 150.50 127.00 149.00
C 127.00 162.00 127.00 175.00 127.00 188.00 Z"/>
</g>
<g fill="#80DCB7" fill-opacity="1.00" stroke="None">
<path d="
M 162.00 196.00 
C 147.82 196.97 133.22 196.00 119.00 196.00
C 119.00 196.00 118.26 196.25 118.00 196.00
C 121.95 200.11 134.08 195.83 140.00 197.00 C 145.92 198.17 156.52 196.98 162.00 196.00 Z"/>
</g>
<g fill="#EEFAF5" fill-opacity="1.00" stroke="None">
<path d="
M 90.00 209.00 
C 88.24 199.79 79.14 214.23 77.00 217.00
C 83.08 219.19 85.10 210.30 90.00 209.00 Z"/>
</g>
<g fill="#EBFAF4" fill-opacity="1.00" stroke="None">
<path d="
M 209.00 205.00 
C 202.16 208.01 214.79 216.69 219.00 218.00
C 218.40 212.64 211.88 209.80 209.00 205.00 Z"/>
</g>
<g fill="#B6EBD5" fill-opacity="1.00" stroke="None">
<path d="
M 151.00 230.00 
C 143.13 227.58 143.23 249.43 151.00 247.00
C 151.00 241.33 151.00 235.67 151.00 230.00
M 148.00 246.00 
C 146.40 242.07 146.30 234.86 148.00 231.00
C 149.60 234.93 149.70 242.14 148.00 246.00 Z"/>
</g>
<g fill="#FEFEFE" fill-opacity="1.00" stroke="None">
<path d="
M 148.00 246.00 
C 149.70 242.14 149.60 234.93 148.00 231.00
C 146.30 234.86 146.40 242.07 148.00 246.00 Z"/>
</g>
</svg>