<?xml version="1.0" encoding="UTF-8"?>
<svg version="1.1" xmlns="http://www.w3.org/2000/svg" width="100" height="100">
<path d="M0 0 C3.125 2.3125 3.125 2.3125 6 5 C8.29190394 5.90961179 10.56745574 6.59307113 12.94921875 7.2265625 C15.42084748 8.15871962 16.43828609 8.85835139 18 11 C18.94921875 14.13671875 18.94921875 14.13671875 19.6875 17.6875 C19.93886719 18.86699219 20.19023438 20.04648437 20.44921875 21.26171875 C20.63097656 22.16535156 20.81273438 23.06898437 21 24 C23.31 24 25.62 24 28 24 C28 31.92 28 39.84 28 48 C21.4 48 14.8 48 8 48 C8.33 43.71 8.66 39.42 9 35 C8.01 35 7.02 35 6 35 C6.04640625 35.90363281 6.0928125 36.80726562 6.140625 37.73828125 C6.19476563 39.50751953 6.19476563 39.50751953 6.25 41.3125 C6.29640625 42.48425781 6.3428125 43.65601563 6.390625 44.86328125 C6 48 6 48 4.171875 49.85546875 C-0.13381351 52.12447366 -4.05874224 52.21552125 -8.8125 52.25 C-9.51181641 52.270625 -10.21113281 52.29125 -10.93164062 52.3125 C-15.72561602 52.34837634 -18.9118921 51.47915885 -23 49 C-24 48 -24 48 -24.09765625 45.05859375 C-24.08605469 43.86363281 -24.07445313 42.66867188 -24.0625 41.4375 C-24.05347656 40.23996094 -24.04445313 39.04242188 -24.03515625 37.80859375 C-24.02355469 36.88175781 -24.01195313 35.95492187 -24 35 C-24.99 35 -25.98 35 -27 35 C-26.7525 36.8871875 -26.7525 36.8871875 -26.5 38.8125 C-25.92327541 43.21002498 -25.81543908 46.04048334 -28 50 C-29.45742463 50.08096803 -30.91612807 50.13917774 -32.375 50.1875 C-33.18710937 50.22230469 -33.99921875 50.25710937 -34.8359375 50.29296875 C-35.55007812 50.19628906 -36.26421875 50.09960938 -37 50 C-37.66 49.01 -38.32 48.02 -39 47 C-39.639375 46.9175 -40.27875 46.835 -40.9375 46.75 C-43 46 -43 46 -44.75 42.4375 C-45.1625 41.303125 -45.575 40.16875 -46 39 C-44.515 38.505 -44.515 38.505 -43 38 C-43 37.34 -43 36.68 -43 36 C-43.99 35.67 -44.98 35.34 -46 35 C-44.68 32.36 -43.36 29.72 -42 27 C-41.01 27 -40.02 27 -39 27 C-38.9175 25.845 -38.835 24.69 -38.75 23.5 C-38.15657012 18.87619217 -36.84209985 14.74895407 -34 11 C-31.25 10 -31.25 10 -29 10 C-28.9071875 8.88625 -28.9071875 8.88625 -28.8125 7.75 C-27.68231206 3.92474851 -26.49642065 2.92659913 -23 1 C-20.36414992 0.77620141 -17.84740794 0.81056358 -15.20703125 0.95703125 C-10.12457033 1.05598182 -5.47969746 -0.71033115 0 0 Z " fill="#90E1EA" transform="translate(59,14)"/>
<path d="M0 0 C3.125 2.3125 3.125 2.3125 6 5 C8.29190394 5.90961179 10.56745574 6.59307113 12.94921875 7.2265625 C15.42084748 8.15871962 16.43828609 8.85835139 18 11 C18.94921875 14.13671875 18.94921875 14.13671875 19.6875 17.6875 C19.93886719 18.86699219 20.19023438 20.04648437 20.44921875 21.26171875 C20.63097656 22.16535156 20.81273438 23.06898437 21 24 C23.31 24 25.62 24 28 24 C28 31.92 28 39.84 28 48 C21.4 48 14.8 48 8 48 C8 47.01 8 46.02 8 45 C13.61 45 19.22 45 25 45 C25 40.71 25 36.42 25 32 C19.39 32 13.78 32 8 32 C8 31.01 8 30.02 8 29 C11.96 29 15.92 29 20 29 C20 28.34 20 27.68 20 27 C16.04 27 12.08 27 8 27 C8 26.34 8 25.68 8 25 C11.3 25 14.6 25 18 25 C17.34 23.68 16.68 22.36 16 21 C15.50160358 18.68206108 15.12353807 16.36563742 14.7578125 14.0234375 C14.17122562 11.8520177 14.17122562 11.8520177 12.1484375 10.78125 C9.80455144 9.88692367 9.80455144 9.88692367 6.5 9.125 C3 8 3 8 1 5.9375 C-1.83926025 3.18696663 -4.12184701 3.13850546 -8 3 C-8.6290625 3.33 -9.258125 3.66 -9.90625 4 C-12.48723737 5.23271038 -14.16717898 5.07364294 -17 4.875 C-21.06872303 4.7545671 -21.06872303 4.7545671 -24.5625 6.8125 C-26.15148522 9.02658463 -26.15148522 9.02658463 -27 12 C-28.65 12.33 -30.3 12.66 -32 13 C-32.28875 14.051875 -32.5775 15.10375 -32.875 16.1875 C-33.77225193 19.22818711 -34.76423419 22.08712344 -36 25 C-33.36 25 -30.72 25 -28 25 C-27.34 26.65 -26.68 28.3 -26 30 C-26.66 30.33 -27.32 30.66 -28 31 C-28.99 30.34 -29.98 29.68 -31 29 C-31 28.34 -31 27.68 -31 27 C-31.99 27 -32.98 27 -34 27 C-34.33 27.99 -34.66 28.98 -35 30 C-36.98723268 30.70381157 -38.98777953 31.3711811 -41 32 C-41.33 32.66 -41.66 33.32 -42 34 C-41.34 34 -40.68 34 -40 34 C-39.92572162 37.34252724 -39.93453047 39.8035914 -41 43 C-39.02 43.33 -37.04 43.66 -35 44 C-34.67 44.99 -34.34 45.98 -34 47 C-33.01 47 -32.02 47 -31 47 C-30.67 46.01 -30.34 45.02 -30 44 C-27.9375 43.3125 -27.9375 43.3125 -26 43 C-26 46.10551666 -26.5393715 47.35261084 -28 50 C-29.45742463 50.08096803 -30.91612807 50.13917774 -32.375 50.1875 C-33.18710937 50.22230469 -33.99921875 50.25710937 -34.8359375 50.29296875 C-35.55007812 50.19628906 -36.26421875 50.09960938 -37 50 C-37.66 49.01 -38.32 48.02 -39 47 C-39.639375 46.9175 -40.27875 46.835 -40.9375 46.75 C-43 46 -43 46 -44.75 42.4375 C-45.1625 41.303125 -45.575 40.16875 -46 39 C-44.515 38.505 -44.515 38.505 -43 38 C-43 37.34 -43 36.68 -43 36 C-43.99 35.67 -44.98 35.34 -46 35 C-44.68 32.36 -43.36 29.72 -42 27 C-41.01 27 -40.02 27 -39 27 C-38.9175 25.845 -38.835 24.69 -38.75 23.5 C-38.15657012 18.87619217 -36.84209985 14.74895407 -34 11 C-31.25 10 -31.25 10 -29 10 C-28.9071875 8.88625 -28.9071875 8.88625 -28.8125 7.75 C-27.68231206 3.92474851 -26.49642065 2.92659913 -23 1 C-20.36414992 0.77620141 -17.84740794 0.81056358 -15.20703125 0.95703125 C-10.12457033 1.05598182 -5.47969746 -0.71033115 0 0 Z " fill="#070A0C" transform="translate(59,14)"/>
<path d="M0 0 C0.598125 0.474375 1.19625 0.94875 1.8125 1.4375 C5.46304259 4.04503042 8.81617273 4.23347537 13.1875 4.5625 C14.81751953 4.68818359 14.81751953 4.68818359 16.48046875 4.81640625 C17.72763672 4.90728516 17.72763672 4.90728516 19 5 C19 5.66 19 6.32 19 7 C16.9377952 7.054348 14.87517184 7.09294961 12.8125 7.125 C11.66394531 7.14820313 10.51539063 7.17140625 9.33203125 7.1953125 C6.08259628 7.00484152 3.91339479 6.39360127 1 5 C1 5.99 1 6.98 1 8 C4.93392123 9.28057332 8.90922375 9.18379459 13 9.1875 C14.06734375 9.20586914 14.06734375 9.20586914 15.15625 9.22460938 C20.41000052 9.2570322 20.41000052 9.2570322 25 7 C25.81171228 4.44480079 25.81171228 4.44480079 26 2 C28.27878054 5.63693374 28.33046558 8.82727696 28.375 13.0625 C28.40335938 14.29097656 28.43171875 15.51945312 28.4609375 16.78515625 C28 20 28 20 26.1640625 21.87109375 C21.85651745 24.1181705 17.93498223 24.21556677 13.1875 24.25 C12.13852539 24.2809375 12.13852539 24.2809375 11.06835938 24.3125 C6.27438398 24.34837634 3.0881079 23.47915885 -1 21 C-2.83200761 19.16799239 -2.1734944 16.33438305 -2.1875 13.875 C-2.15972074 8.82473132 -1.75603689 4.71934915 0 0 Z " fill="#0B0B0B" transform="translate(37,42)"/>
<path d="M0 0 C0.78117187 -0.01546875 1.56234375 -0.0309375 2.3671875 -0.046875 C7.64834921 -0.01131162 10.89881093 0.8805379 15 4.5 C15.375 7.75 15.375 7.75 15 10.5 C14.34 9.84 13.68 9.18 13 8.5 C12.9175 9.11875 12.835 9.7375 12.75 10.375 C12 12.5 12 12.5 10.453125 13.6171875 C6.98862032 14.86396785 3.63279058 14.78948685 0 14.75 C-0.7115625 14.75773437 -1.423125 14.76546875 -2.15625 14.7734375 C-5.92429832 14.75937762 -8.80489203 14.59678961 -12 12.5 C-12 11.51 -12 10.52 -12 9.5 C-6.06 10.16 -0.12 10.82 6 11.5 C6 10.84 6 10.18 6 9.5 C5.20335938 9.53480469 4.40671875 9.56960937 3.5859375 9.60546875 C-7.00351667 9.87600225 -7.00351667 9.87600225 -12 6.5 C-12.33 6.17 -12.66 5.84 -13 5.5 C-13.33 7.48 -13.66 9.46 -14 11.5 C-14.33 11.5 -14.66 11.5 -15 11.5 C-15.375 8.25 -15.375 8.25 -15 4.5 C-10.18870255 0.19274323 -6.13836353 -0.12155175 0 0 Z " fill="#121415" transform="translate(50,37.5)"/>
<path d="M0 0 C5.28 0 10.56 0 16 0 C16 4.29 16 8.58 16 13 C10.72 13 5.44 13 0 13 C0 8.71 0 4.42 0 0 Z " fill="#FEFEFE" transform="translate(68,46)"/>
<path d="M0 0 C3 0 3 0 5.15625 1.625 C7.47073366 4.60636879 7.53739546 6.26045383 7.5 10 C7.5103125 11.03125 7.520625 12.0625 7.53125 13.125 C6.879891 16.65000165 5.83556273 17.86305417 3 20 C2.01 20 1.02 20 0 20 C-1 19 -2 18 -3 17 C-3.70125 16.835 -4.4025 16.67 -5.125 16.5 C-5.74375 16.335 -6.3625 16.17 -7 16 C-7.33 15.01 -7.66 14.02 -8 13 C-7.34 13 -6.68 13 -6 13 C-6 11.02 -6 9.04 -6 7 C-6.66 7 -7.32 7 -8 7 C-7.67 6.01 -7.34 5.02 -7 4 C-5.01276732 3.29618843 -3.01222047 2.6288189 -1 2 C-0.67 1.34 -0.34 0.68 0 0 Z " fill="#448BE8" transform="translate(25,41)"/>
<path d="M0 0 C5.28 0 10.56 0 16 0 C16 0.99 16 1.98 16 3 C11.71 3 7.42 3 3 3 C3 5.31 3 7.62 3 10 C-1.12168689 11.62950412 -3.70700357 12.26264601 -8 11 C-8.33 9.35 -8.66 7.7 -9 6 C-6 4 -6 4 -3.875 4.3125 C-2 5 -2 5 -1 6 C-0.67 4.02 -0.34 2.04 0 0 Z " fill="#070602" transform="translate(27,70)"/>
<path d="M0 0 C1.29808594 -0.00515625 2.59617187 -0.0103125 3.93359375 -0.015625 C7.2980839 0.23064554 9.55514047 0.78977919 12.5625 2.25 C12.2325 3.24 11.9025 4.23 11.5625 5.25 C7.71663405 6.53195532 4.06927403 6.43415545 0.0625 6.4375 C-1.09572266 6.45586914 -1.09572266 6.45586914 -2.27734375 6.47460938 C-6.1857648 6.48476991 -8.11391928 6.46572048 -11.4375 4.25 C-11.4375 3.59 -11.4375 2.93 -11.4375 2.25 C-7.70375267 -0.14415859 -4.35741516 -0.01727419 0 0 Z " fill="#F4F4F4" transform="translate(49.4375,39.75)"/>
<path d="M0 0 C0.33 -0.33 0.66 -0.66 1 -1 C3.33297433 -1.04092937 5.66705225 -1.04241723 8 -1 C8 -0.34 8 0.32 8 1 C7.34 1 6.68 1 6 1 C6 3.97 6 6.94 6 10 C5.01 10 4.02 10 3 10 C3 7.36 3 4.72 3 2 C2.34 2 1.68 2 1 2 C1.061875 3.423125 1.061875 3.423125 1.125 4.875 C1 8 1 8 -1 10 C-3.5625 10.1875 -3.5625 10.1875 -6 10 C-7 9 -7 9 -7.09765625 6.93359375 C-7.08605469 6.10988281 -7.07445312 5.28617188 -7.0625 4.4375 C-7.05347656 3.61121094 -7.04445312 2.78492188 -7.03515625 1.93359375 C-7.02355469 1.29550781 -7.01195312 0.65742188 -7 0 C-4.3351451 -1.33242745 -2.85216588 -0.58505967 0 0 Z " fill="#41666C" transform="translate(52,24)"/>
<path d="M0 0 C4.95 0 9.9 0 15 0 C15 2.31 15 4.62 15 7 C15.66 7 16.32 7 17 7 C17 6.34 17 5.68 17 5 C19.375 4.375 19.375 4.375 22 4 C24 6 24 6 24.125 8.625 C24.08375 9.40875 24.0425 10.1925 24 11 C19.31034294 12.11658501 16.46236469 11.80619523 12 10 C12 7.69 12 5.38 12 3 C8.04 3 4.08 3 0 3 C0 2.01 0 1.02 0 0 Z " fill="#080602" transform="translate(58,70)"/>
<path d="M0 0 C1.67542976 0.28604898 3.34385343 0.61781233 5 1 C5.6875 2.8125 5.6875 2.8125 6 5 C4.8125 6.8125 4.8125 6.8125 3 8 C1.65736553 7.70636492 0.32445753 7.36701653 -1 7 C-2.36676632 6.86070644 -3.7374567 6.75634699 -5.109375 6.68359375 C-5.86347656 6.64169922 -6.61757812 6.59980469 -7.39453125 6.55664062 C-8.56048828 6.49766602 -8.56048828 6.49766602 -9.75 6.4375 C-10.54277344 6.39431641 -11.33554688 6.35113281 -12.15234375 6.30664062 C-14.10137815 6.20097009 -16.05066748 6.10002034 -18 6 C-18.33 4.68 -18.66 3.36 -19 2 C-17.71222656 1.93941406 -16.42445312 1.87882812 -15.09765625 1.81640625 C-13.41925841 1.73201753 -11.74087364 1.6473687 -10.0625 1.5625 C-8.78729492 1.50352539 -8.78729492 1.50352539 -7.48632812 1.44335938 C-6.67744141 1.40146484 -5.86855469 1.35957031 -5.03515625 1.31640625 C-3.91185913 1.26141968 -3.91185913 1.26141968 -2.76586914 1.20532227 C-0.97538674 1.18228937 -0.97538674 1.18228937 0 0 Z " fill="#080602" transform="translate(81,63)"/>
<path d="M0 0 C2.5 0.125 2.5 0.125 3.5 1.125 C6.35877909 1.36201239 9.19883297 1.54719182 12.0625 1.6875 C12.86880859 1.73068359 13.67511719 1.77386719 14.50585938 1.81835938 C16.50368805 1.92475262 18.5018207 2.02540888 20.5 2.125 C20.5 3.445 20.5 4.765 20.5 6.125 C19.33082031 6.18558594 18.16164063 6.24617188 16.95703125 6.30859375 C15.40884386 6.39304034 13.86066732 6.47768625 12.3125 6.5625 C11.54357422 6.60181641 10.77464844 6.64113281 9.98242188 6.68164062 C6.74763484 6.86212231 3.74271433 7.07023535 0.57421875 7.78515625 C-0.45251953 7.95337891 -0.45251953 7.95337891 -1.5 8.125 C-3.5 6.125 -3.5 6.125 -3.6875 3.5625 C-3.4324847 0.24730106 -3.33009823 0.16650491 0 0 Z " fill="#080602" transform="translate(17.5,62.875)"/>
<path d="M0 0 C0.99 0 1.98 0 3 0 C3 1.98 3 3.96 3 6 C1.02 6 -0.96 6 -3 6 C-2.01 7.485 -2.01 7.485 -1 9 C-1.375 11.6875 -1.375 11.6875 -2 14 C-3.98 14 -5.96 14 -8 14 C-9.36884358 9.48281619 -8.47075246 6.41225737 -7 2 C-4.69 2 -2.38 2 0 2 C0 1.34 0 0.68 0 0 Z " fill="#090803" transform="translate(44,72)"/>
<path d="M0 0 C0.99 0 1.98 0 3 0 C3 0.66 3 1.32 3 2 C5.31 2 7.62 2 10 2 C11.41404314 5.80024093 12.34892324 8.92922882 12 13 C11 14 11 14 8.5 14.125 C6 14 6 14 5 13 C4.875 10.5 4.875 10.5 5 8 C5.33 7.67 5.66 7.34 6 7 C3.03 6.505 3.03 6.505 0 6 C0 4.02 0 2.04 0 0 Z " fill="#0A0803" transform="translate(53,72)"/>
<path d="M0 0 C0.99 0.33 1.98 0.66 3 1 C5.80214466 1.09701927 8.57359348 1.13919632 11.375 1.125 C12.50808594 1.13080078 12.50808594 1.13080078 13.6640625 1.13671875 C17.57585931 1.12987994 21.18021219 0.95875152 25 0 C24.875 1.875 24.875 1.875 24 4 C19.75339513 5.78771402 16.02202784 6.296262 11.4375 6.3125 C10.34308594 6.32925781 9.24867187 6.34601562 8.12109375 6.36328125 C4.64081836 5.95819288 2.73456373 5.17441101 0 3 C0 2.01 0 1.02 0 0 Z " fill="#939393" transform="translate(38,52)"/>
<path d="M0 0 C0.49628906 0.16242187 0.99257813 0.32484375 1.50390625 0.4921875 C4.97750223 1.19886587 8.40935625 1.14429705 11.9375 1.125 C12.99227539 1.13080078 12.99227539 1.13080078 14.06835938 1.13671875 C17.83812512 1.12965265 21.33593938 0.903467 25 0 C25 0.99 25 1.98 25 3 C20.42904602 5.29458248 16.3677185 5.30111998 11.375 5.25 C10.611875 5.25773437 9.84875 5.26546875 9.0625 5.2734375 C5.19218946 5.25985746 3.28940677 5.19293785 0 3 C0 2.01 0 1.02 0 0 Z " fill="#A1A1A1" transform="translate(38,58)"/>
<path d="M0 0 C0.69222656 0.16242187 1.38445313 0.32484375 2.09765625 0.4921875 C5.26579243 1.04650473 8.22226229 1.13257418 11.4375 1.125 C12.52933594 1.12757812 13.62117188 1.13015625 14.74609375 1.1328125 C17.91192524 1.00359489 20.89035545 0.59097317 24 0 C23.6875 1.9375 23.6875 1.9375 23 4 C19.3185193 5.22716023 15.89589238 5.18406814 12.0625 5.1875 C10.98838867 5.20586914 10.98838867 5.20586914 9.89257812 5.22460938 C6.10026892 5.23515333 3.21400906 5.12309215 0 3 C0 2.01 0 1.02 0 0 Z " fill="#A2A2A2" transform="translate(38,47)"/>
<path d="M0 0 C0.99 0 1.98 0 3 0 C3.144375 1.134375 3.28875 2.26875 3.4375 3.4375 C3.61171478 6.80777201 3.61171478 6.80777201 5 8 C5.125 10.5 5.125 10.5 5 13 C4 14 4 14 0.9375 14.0625 C-0.031875 14.041875 -1.00125 14.02125 -2 14 C-2.625 11.625 -2.625 11.625 -3 9 C-2.34 8.34 -1.68 7.68 -1 7 C-0.59952556 4.67724823 -0.2602896 2.34260643 0 0 Z " fill="#0D0B04" transform="translate(49,72)"/>
<path d="M0 0 C0.66 0 1.32 0 2 0 C2 1.98 2 3.96 2 6 C0 2.25 0 2.25 0 0 Z M-2 2 C-1.34 2.33 -0.68 2.66 0 3 C-0.33 4.32 -0.66 5.64 -1 7 C-1 6.34 -1 5.68 -1 5 C-2.11375 5.2784375 -2.11375 5.2784375 -3.25 5.5625 C-8.57090725 6.18327251 -13.68931933 5.55856674 -19 5 C-19 4.67 -19 4.34 -19 4 C-18.02417969 3.93941406 -17.04835937 3.87882812 -16.04296875 3.81640625 C-14.77066406 3.73261719 -13.49835937 3.64882813 -12.1875 3.5625 C-10.92292969 3.48128906 -9.65835938 3.40007813 -8.35546875 3.31640625 C-5.00818107 3.12815453 -5.00818107 3.12815453 -2 2 Z " fill="#373939" transform="translate(63,42)"/>
<path d="M0 0 C0 0.66 0 1.32 0 2 C-4.95 2 -9.9 2 -15 2 C-15 1.34 -15 0.68 -15 0 C-12.87562788 -0.19448477 -10.75046809 -0.38038289 -8.625 -0.5625 C-7.44164063 -0.66691406 -6.25828125 -0.77132812 -5.0390625 -0.87890625 C-2 -1 -2 -1 0 0 Z " fill="#040503" transform="translate(82,43)"/>
<path d="M0 0 C0.33 0 0.66 0 1 0 C1 2.31 1 4.62 1 7 C4.11332248 6.33131686 4.11332248 6.33131686 5.1875 3.9375 C5.455625 3.298125 5.72375 2.65875 6 2 C6.04254356 3.99954746 6.04080783 6.00041636 6 8 C5 9 5 9 2.5 9.125 C0 9 0 9 -1 8 C-1.125 4.5 -1.125 4.5 -1 1 C-0.67 0.67 -0.34 0.34 0 0 Z " fill="#0A1011" transform="translate(46,25)"/>
<path d="M0 0 C4.95 0.33 9.9 0.66 15 1 C15 1.66 15 2.32 15 3 C12.87561661 3.08078641 10.7503677 3.13909141 8.625 3.1875 C7.44164062 3.22230469 6.25828125 3.25710937 5.0390625 3.29296875 C3.53472656 3.14794922 3.53472656 3.14794922 2 3 C1.34 2.01 0.68 1.02 0 0 Z " fill="#181818" transform="translate(41,46)"/>
<path d="M0 0 C1.98 0 3.96 0 6 0 C6 0.66 6 1.32 6 2 C5.34 2 4.68 2 4 2 C4 4.97 4 7.94 4 11 C3.34 11 2.68 11 2 11 C2 8.03 2 5.06 2 2 C1.34 2 0.68 2 0 2 C0 1.34 0 0.68 0 0 Z " fill="#000000" transform="translate(54,23)"/>
<path d="M0 0 C-1 2 -1 2 -2.8125 2.640625 C-3.534375 2.84171875 -4.25625 3.0428125 -5 3.25 C-7.17542995 3.93049056 -7.17542995 3.93049056 -9 5 C-10.14031566 8.07797583 -10.14031566 8.07797583 -10 11 C-10.33 11 -10.66 11 -11 11 C-11.375 7.75 -11.375 7.75 -11 4 C-7.45228024 0.78230068 -4.79814642 -0.56448781 0 0 Z " fill="#213235" transform="translate(46,38)"/>
<path d="M0 0 C0.66 0 1.32 0 2 0 C2 0.66 2 1.32 2 2 C2.66 2 3.32 2 4 2 C4 2.66 4 3.32 4 4 C3.34 4 2.68 4 2 4 C2 4.66 2 5.32 2 6 C1.34 6 0.68 6 0 6 C0 5.34 0 4.68 0 4 C-0.99 4 -1.98 4 -3 4 C-3 3.34 -3 2.68 -3 2 C-2.01 2 -1.02 2 0 2 C0 1.34 0 0.68 0 0 Z " fill="#050A11" transform="translate(26,48)"/>
<path d="M0 0 C0.66 0.33 1.32 0.66 2 1 C2 2.98 2 4.96 2 7 C1.01 7 0.02 7 -1 7 C-1.04254356 5.00045254 -1.04080783 2.99958364 -1 1 C-0.67 0.67 -0.34 0.34 0 0 Z " fill="#91E2EE" transform="translate(48,25)"/>
</svg>
