<svg xmlns="http://www.w3.org/2000/svg" xmlns:v="https://svgstorm.com"
viewBox = "0 0 880 635"
width="880"
height="635">
<g fill="None" fill-opacity="0.0" stroke="#F5F5F5" stroke-opacity="1.00" stroke-width="0.3"><path d="
M 0.00 635.00 
L 880.00 635.00
L 880.00 0.00
L 0.00 0.00
L 0.00 635.00
M 456.00 41.00 
C 456.50 41.00 457.50 41.00 458.00 41.00
C 469.37 41.00 476.66 44.54 486.00 49.00
C 525.98 62.68 557.20 97.07 570.00 137.00
C 579.70 156.41 579.76 177.40 580.00 200.00
C 575.40 202.30 574.37 210.34 573.25 216.25 C 572.12 222.15 571.24 229.58 568.00 235.00
C 573.36 235.20 569.46 241.04 568.00 243.00
C 565.71 241.90 570.03 238.18 567.00 237.00
C 564.14 237.95 564.88 242.10 562.00 243.00
C 558.85 248.97 556.07 254.35 552.25 259.25 C 548.42 264.15 543.26 271.05 539.25 275.25 C 535.23 279.45 529.42 286.25 524.75 288.75 C 520.08 291.26 512.49 301.11 507.31 299.64 C 502.12 298.18 500.02 285.89 496.23 281.77 C 492.44 277.65 488.79 269.10 486.03 263.97 C 483.26 258.85 477.07 251.01 475.25 245.75 C 473.42 240.50 464.29 232.32 465.00 227.00
C 465.78 221.18 480.89 218.29 476.00 211.00
C 480.69 211.58 480.75 208.35 481.00 205.00
C 484.14 211.04 489.45 195.31 485.00 192.00
C 491.60 195.81 490.23 186.02 491.00 180.00 C 491.77 173.98 489.50 165.72 488.00 160.00
C 486.71 161.40 483.79 165.07 484.03 160.97 C 484.26 156.87 484.07 154.40 486.00 153.00
C 484.63 150.57 482.64 148.20 481.00 146.00
C 480.14 145.23 474.05 144.00 474.00 140.00
C 468.81 140.64 468.66 139.80 469.00 136.00
C 465.99 136.21 463.23 137.56 460.00 137.00
C 459.88 133.20 464.27 133.39 461.00 130.00
C 459.65 129.31 458.38 128.62 457.00 128.00
C 452.84 127.41 443.89 127.73 436.78 127.78 C 429.67 127.83 421.33 128.10 414.00 130.00
C 402.91 132.88 393.28 145.43 388.00 155.00
C 384.66 168.66 380.04 192.05 392.00 203.00
C 393.07 214.47 402.73 221.13 412.00 226.00
C 411.09 229.22 411.21 233.19 409.00 236.00
C 410.67 234.02 413.33 232.50 416.00 233.00
C 417.46 237.44 413.07 237.28 410.00 237.00
C 410.07 239.52 408.92 241.73 408.00 244.00
C 407.05 242.31 405.48 244.73 405.00 243.00
C 398.47 252.14 390.62 264.06 388.00 275.00
C 382.37 274.93 381.37 288.86 374.00 293.00
C 372.71 295.62 370.03 298.02 369.00 301.00
C 314.30 271.94 286.00 204.69 302.00 145.00
C 301.66 142.09 298.87 141.51 301.75 137.75 C 304.64 134.00 303.61 135.37 304.78 129.78 C 305.94 124.18 309.10 118.71 312.26 114.26 C 315.42 109.80 307.98 111.24 313.00 107.00
C 317.49 113.22 317.57 96.03 325.00 96.00
C 339.66 82.45 351.32 64.78 370.00 57.00
C 379.40 50.81 386.65 43.45 399.00 44.00
C 397.69 39.87 391.94 43.81 390.00 41.00
C 397.68 37.60 407.89 46.09 415.00 39.00
C 413.28 37.30 409.71 38.97 409.00 36.00
C 411.17 34.55 417.03 33.73 416.00 38.00
C 428.73 41.03 444.10 36.31 456.00 41.00
M 339.00 68.00 
C 339.68 75.74 332.03 67.87 339.00 68.00
M 466.00 139.00 
C 464.14 140.96 460.42 142.06 458.00 141.00
C 459.01 137.83 463.99 136.78 466.00 139.00
M 295.00 192.00 
C 293.68 187.70 292.48 179.40 296.00 176.00
C 296.94 180.17 296.31 187.63 295.00 192.00
M 414.00 239.00 
C 414.21 242.56 413.25 245.81 412.00 249.00
C 408.60 247.26 408.61 237.85 414.00 239.00
M 318.00 254.00 
C 311.49 260.13 307.11 246.53 307.00 241.00
C 311.41 244.30 312.64 253.07 318.00 254.00
M 356.00 301.00 
C 357.31 292.28 366.89 302.65 356.00 301.00
M 346.00 345.00 
C 345.95 345.50 346.00 346.00 346.00 346.00
C 344.40 353.28 339.23 357.86 336.08 364.08 C 332.93 370.29 327.43 375.68 326.29 382.29 C 325.16 388.91 317.78 394.00 315.00 398.00
C 314.32 399.48 314.39 400.44 314.00 402.00
C 311.52 411.95 301.28 407.50 295.00 404.00
C 285.98 402.13 271.37 401.62 263.77 405.77 C 256.17 409.92 246.57 411.99 244.00 421.00
C 236.62 422.16 233.95 431.28 231.00 437.00
C 231.02 437.50 231.05 438.51 231.00 439.00
C 230.71 441.78 230.85 444.38 234.00 445.00
C 233.65 448.84 230.76 451.86 231.00 456.00
C 227.43 449.45 228.94 463.09 233.00 464.00
C 231.76 466.28 230.24 468.61 231.00 472.00
C 234.23 480.53 237.82 487.56 244.75 494.25 C 251.69 500.93 258.62 504.14 268.02 507.98 C 277.43 511.81 290.85 506.21 300.00 505.00
C 304.26 502.41 301.51 503.38 300.00 500.00
C 307.31 498.54 315.59 501.18 316.00 490.00
C 328.42 492.24 326.68 476.69 327.00 469.00
C 328.89 470.26 328.05 473.80 330.00 475.00
C 330.41 474.17 330.97 473.12 332.00 473.00
C 332.11 472.53 332.00 472.00 332.00 472.00
C 332.00 466.95 330.64 461.75 332.32 457.32 C 334.00 452.89 340.63 453.29 340.00 448.00
C 342.80 447.44 344.85 449.57 342.00 451.00
C 355.26 452.61 370.33 450.95 384.00 451.00 C 397.68 451.06 414.23 449.10 425.00 457.00
C 420.82 461.60 423.37 469.11 421.00 474.00
C 418.62 483.89 416.86 495.14 413.68 504.68 C 410.50 514.21 404.27 520.84 401.00 530.00
C 400.13 533.17 399.68 536.51 400.00 540.00
C 394.78 535.03 389.30 548.62 383.25 553.25 C 377.19 557.88 371.62 566.87 364.00 570.00
C 363.64 570.22 363.00 570.00 363.00 570.00
C 357.17 575.47 353.82 578.36 345.00 581.00
C 336.29 583.61 329.20 588.80 320.00 590.00
C 314.83 590.67 303.85 592.15 300.00 595.00
C 304.56 595.00 308.02 594.55 312.00 593.00
C 309.73 598.74 295.30 593.05 300.00 600.00
C 293.34 599.61 286.27 600.95 280.00 599.00
C 283.30 593.60 294.59 600.31 299.00 595.00
C 264.67 594.97 227.18 593.27 201.00 570.00
C 177.10 553.27 159.60 530.68 150.00 504.00
C 148.68 500.35 147.38 496.66 146.00 493.00
C 143.43 486.21 141.71 478.58 141.00 471.00
C 135.84 446.51 141.86 420.96 152.00 400.00
C 154.09 393.47 157.15 388.16 160.00 382.00
C 163.56 374.30 169.27 366.11 176.00 361.00
C 173.13 356.27 167.16 362.05 164.00 359.00
C 168.02 354.42 172.78 354.17 178.00 354.00
C 176.96 357.09 180.19 357.56 182.00 356.00
C 186.57 350.38 191.89 345.94 198.00 342.00
C 198.62 341.38 198.81 339.97 200.00 340.00
C 200.58 336.63 195.28 339.25 195.00 336.00
C 199.03 335.27 202.40 337.52 206.00 336.00
C 212.27 331.29 217.32 328.88 224.25 325.25 C 231.17 321.61 238.57 320.80 246.22 318.22 C 253.87 315.64 263.23 315.59 271.67 314.67 C 280.11 313.75 291.52 312.94 300.01 314.99 C 308.49 317.04 315.68 316.93 324.22 319.78 C 332.77 322.63 334.59 326.16 344.10 328.90 C 353.60 331.64 350.67 337.69 346.00 345.00
M 718.00 386.00 
C 718.18 387.21 718.50 387.88 719.00 389.00
C 722.64 393.23 723.18 394.83 724.00 400.00
C 725.65 404.37 727.53 408.58 729.00 413.00
C 734.30 428.90 736.39 446.43 735.00 464.00
C 735.32 463.00 736.09 460.78 737.00 460.00
C 737.00 467.20 737.72 475.73 733.00 481.00
C 726.57 514.32 706.28 547.91 677.00 568.00
C 673.71 570.84 671.07 573.10 667.00 575.00
C 654.10 581.03 644.77 585.40 630.78 589.78 C 616.79 594.15 599.24 592.96 584.00 594.00
C 581.45 594.17 579.51 594.70 577.00 595.00
C 582.07 602.02 570.48 594.99 566.92 593.08 C 563.37 591.17 552.62 591.08 551.00 587.00
C 512.72 576.01 476.36 538.73 464.00 501.00
C 462.65 499.61 461.44 501.36 460.00 500.00
C 461.64 495.75 458.59 491.30 457.29 488.71 C 456.00 486.11 459.64 478.22 453.00 480.00
C 457.15 470.97 453.16 457.73 456.00 448.00
C 456.26 447.75 457.00 448.00 457.00 448.00
C 457.00 446.01 456.88 443.98 457.00 442.00
C 456.72 440.47 453.55 438.43 455.00 436.00
C 451.79 440.51 453.38 431.20 453.00 429.00
C 459.14 434.87 457.03 422.07 459.97 416.97 C 462.91 411.87 460.87 401.37 468.00 399.00
C 473.18 385.31 482.45 373.84 491.00 362.00
C 491.91 360.74 492.97 359.07 494.00 358.00
C 490.77 359.47 497.60 350.95 496.00 347.00
C 501.53 346.98 497.05 350.26 500.00 352.00
C 500.55 351.49 501.41 351.36 502.00 351.00
C 508.72 346.91 514.37 341.15 521.00 337.00
C 522.50 336.06 524.08 334.57 526.00 334.00
C 537.72 353.96 549.08 374.43 561.00 394.00
C 563.82 397.02 565.19 398.54 566.00 402.00
C 566.42 403.78 567.06 405.38 568.00 407.00
C 560.71 411.70 552.42 417.87 549.00 426.00
C 545.52 437.81 542.40 450.55 542.00 464.00
C 546.07 487.04 564.50 507.33 589.00 509.00
C 592.63 509.25 596.36 509.00 600.00 509.00
C 601.11 507.94 600.48 507.16 600.00 506.00
C 609.02 506.58 616.78 502.70 625.00 501.00
C 652.24 485.16 658.05 447.90 641.00 423.00
C 641.14 422.82 637.31 421.40 637.00 423.00
C 634.88 419.71 635.64 417.34 632.00 415.00
C 628.63 423.30 625.39 414.90 626.00 410.00
C 625.28 409.38 624.38 407.85 624.00 407.00
C 620.89 400.14 632.59 391.89 634.77 384.77 C 636.95 377.65 645.08 369.53 647.00 362.00
C 649.70 351.45 654.81 349.19 658.92 338.92 C 663.03 328.64 673.60 333.30 679.00 341.00
C 681.16 338.99 683.68 340.65 686.00 341.00
C 682.65 343.98 686.37 344.88 688.00 342.00
C 688.30 347.57 693.63 354.43 700.00 352.00
C 698.41 359.19 702.70 358.19 703.00 363.00
C 712.00 359.38 707.49 374.19 716.00 372.00
C 716.07 375.18 712.35 377.87 718.00 377.00
C 716.46 380.51 718.91 383.63 718.00 386.00
M 320.00 406.00 
C 311.75 406.30 320.23 397.72 320.00 406.00
M 135.00 431.00 
C 135.00 434.00 135.00 437.00 135.00 440.00
C 130.39 441.24 130.58 430.60 135.00 431.00
M 426.00 449.00 
C 424.36 450.50 419.57 450.72 418.00 449.00
C 419.64 447.50 424.43 447.28 426.00 449.00
M 324.00 470.00 
C 324.18 473.27 326.28 476.89 324.00 480.00
C 320.93 478.41 320.88 471.56 324.00 470.00
M 425.00 480.00 
C 425.08 482.44 424.65 485.40 423.00 487.00
C 423.11 484.46 419.88 479.19 425.00 480.00
M 717.00 533.00 
C 716.42 536.15 717.77 541.40 712.00 540.00
C 712.71 537.37 714.46 534.39 717.00 533.00
M 173.00 552.00 
C 168.95 552.77 167.22 548.31 168.00 545.00
C 170.25 546.72 173.55 548.71 173.00 552.00
M 191.00 571.00 
C 182.32 578.80 178.13 561.47 178.00 557.00
C 183.69 560.91 181.93 571.26 191.00 571.00
M 191.00 568.00 
C 185.87 569.50 182.56 566.11 184.00 561.00
C 186.62 562.89 189.24 565.35 191.00 568.00
M 195.00 569.00 
C 195.68 576.75 188.03 568.87 195.00 569.00
M 214.00 589.00 
C 211.79 591.06 207.08 589.38 208.00 586.00
C 210.46 585.47 213.13 586.58 214.00 589.00 Z"/>
</g>
<g fill="None" fill-opacity="0.0" stroke="#FDD5D6" stroke-opacity="1.00" stroke-width="0.3"><path d="
M 370.00 57.00 
C 378.41 53.50 386.51 50.16 395.00 47.00
C 396.09 46.35 397.55 45.42 399.00 45.00
C 407.14 42.66 415.59 42.48 424.00 41.00
C 425.30 40.77 427.11 40.08 429.00 40.00
C 433.97 39.80 439.03 39.90 444.00 40.00
C 446.44 40.05 449.27 40.82 451.00 41.00
C 452.65 40.90 454.34 41.00 456.00 41.00
C 444.10 36.31 428.73 41.03 416.00 38.00
C 417.03 33.73 411.17 34.55 409.00 36.00
C 409.71 38.97 413.28 37.30 415.00 39.00
C 407.89 46.09 397.68 37.60 390.00 41.00
C 391.94 43.81 397.69 39.87 399.00 44.00
C 386.65 43.45 379.40 50.81 370.00 57.00 Z"/>
</g>
<g fill="None" fill-opacity="0.0" stroke="#FC0101" stroke-opacity="1.00" stroke-width="0.3"><path d="
M 424.00 41.00 
C 425.00 41.07 426.00 40.95 427.00 41.00
C 418.35 42.55 407.39 45.91 399.00 45.00
C 397.55 45.42 396.09 46.35 395.00 47.00
C 388.76 50.72 380.58 54.01 374.33 57.33 C 368.08 60.64 359.09 64.43 358.00 71.00
C 348.90 71.96 341.24 82.06 334.25 88.25 C 327.27 94.44 320.27 106.22 319.00 114.00
C 312.40 117.56 310.67 126.95 307.67 135.67 C 304.67 144.39 300.87 154.14 300.22 164.22 C 299.58 174.30 299.97 189.20 300.99 199.01 C 302.01 208.81 304.86 218.04 308.32 226.68 C 311.78 235.31 313.83 243.18 318.92 250.08 C 324.00 256.98 326.73 267.10 335.00 268.00
C 335.53 273.81 344.64 283.78 351.00 283.00
C 353.85 289.57 360.62 292.12 367.00 296.00
C 368.65 292.70 367.31 290.41 371.00 293.00
C 383.39 271.71 395.75 249.52 408.00 228.00
C 403.89 227.38 400.31 218.90 396.00 223.00
C 394.88 215.03 386.73 207.77 384.08 198.92 C 381.43 190.08 378.68 178.67 380.78 168.78 C 382.87 158.89 387.54 151.31 393.25 143.25 C 398.97 135.19 407.25 131.60 415.74 126.74 C 424.24 121.88 439.39 122.21 449.07 123.93 C 458.76 125.65 467.67 130.32 474.75 137.25 C 481.84 144.17 487.04 148.55 490.31 157.69 C 493.57 166.84 497.24 180.68 492.00 189.00
C 492.00 189.50 492.00 190.00 492.00 190.00
C 494.99 196.69 486.32 206.92 485.07 213.08 C 483.82 219.23 469.50 222.87 468.00 230.00
C 483.34 252.04 492.39 273.57 507.00 296.00
C 520.13 292.14 527.55 281.34 539.00 273.00
C 535.33 267.56 545.87 263.56 549.00 261.00
C 550.52 251.69 559.79 245.08 563.26 234.26 C 566.73 223.43 570.21 212.56 572.93 200.93 C 575.64 189.30 575.41 173.33 573.01 161.99 C 570.61 150.65 569.25 138.10 565.03 127.98 C 560.80 117.85 554.28 108.36 549.10 100.90 C 543.92 93.45 539.72 87.31 531.75 79.25 C 523.77 71.20 516.56 68.99 507.77 62.23 C 498.98 55.47 487.91 52.71 479.00 47.00
C 478.50 46.98 478.00 47.00 478.00 47.00
C 467.61 46.76 457.40 42.59 447.00 42.00
C 447.53 40.40 449.75 41.28 451.00 41.00
C 449.27 40.82 446.44 40.05 444.00 40.00
C 439.44 40.35 433.46 40.26 429.00 40.00
C 427.11 40.08 425.30 40.77 424.00 41.00 Z"/>
</g>
<g fill="None" fill-opacity="0.0" stroke="#C2232B" stroke-opacity="1.00" stroke-width="0.3"><path d="
M 444.00 40.00 
C 439.03 39.90 433.97 39.80 429.00 40.00
C 433.46 40.26 439.44 40.35 444.00 40.00 Z"/>
</g>
<g fill="None" fill-opacity="0.0" stroke="#C52E2C" stroke-opacity="1.00" stroke-width="0.3"><path d="
M 399.00 45.00 
C 407.39 45.91 418.35 42.55 427.00 41.00
C 426.00 40.95 425.00 41.07 424.00 41.00
C 415.59 42.48 407.14 42.66 399.00 45.00 Z"/>
</g>
<g fill="None" fill-opacity="0.0" stroke="#CC312D" stroke-opacity="1.00" stroke-width="0.3"><path d="
M 478.00 47.00 
C 474.80 42.82 462.61 42.61 458.00 41.00
C 457.50 41.00 456.50 41.00 456.00 41.00
C 454.34 41.00 452.65 40.90 451.00 41.00
C 449.75 41.28 447.53 40.40 447.00 42.00
C 457.40 42.59 467.61 46.76 478.00 47.00 Z"/>
</g>
<g fill="None" fill-opacity="0.0" stroke="#FDC1BD" stroke-opacity="1.00" stroke-width="0.3"><path d="
M 478.00 47.00 
C 478.00 47.00 478.50 46.98 479.00 47.00
C 481.63 47.10 483.58 48.17 486.00 49.00
C 476.66 44.54 469.37 41.00 458.00 41.00
C 462.61 42.61 474.80 42.82 478.00 47.00 Z"/>
</g>
<g fill="None" fill-opacity="0.0" stroke="#D23834" stroke-opacity="1.00" stroke-width="0.3"><path d="
M 370.00 57.00 
C 351.32 64.78 339.66 82.45 325.00 96.00
C 314.88 110.61 306.78 127.86 302.00 145.00
C 286.00 204.69 314.30 271.94 369.00 301.00
C 370.03 298.02 372.71 295.62 374.00 293.00
C 384.99 270.78 398.98 249.82 411.00 228.00
C 385.31 214.96 374.38 180.25 388.00 155.00
C 393.28 145.43 402.91 132.88 414.00 130.00
C 426.89 123.62 443.20 121.74 457.00 128.00
C 458.38 128.62 459.65 129.31 461.00 130.00
C 468.90 134.05 475.65 138.80 481.00 146.00
C 482.64 148.20 484.63 150.57 486.00 153.00
C 489.54 159.28 491.51 166.79 492.00 174.00
C 492.73 178.05 492.88 181.98 492.00 186.00
C 492.00 187.00 492.00 188.00 492.00 189.00
C 497.24 180.68 493.57 166.84 490.31 157.69 C 487.04 148.55 481.84 144.17 474.75 137.25 C 467.67 130.32 458.76 125.65 449.07 123.93 C 439.39 122.21 424.24 121.88 415.74 126.74 C 407.25 131.60 398.97 135.19 393.25 143.25 C 387.54 151.31 382.87 158.89 380.78 168.78 C 378.68 178.67 381.43 190.08 384.08 198.92 C 386.73 207.77 394.88 215.03 396.00 223.00
C 400.31 218.90 403.89 227.38 408.00 228.00
C 395.75 249.52 383.39 271.71 371.00 293.00
C 367.31 290.41 368.65 292.70 367.00 296.00
C 360.62 292.12 353.85 289.57 351.00 283.00
C 344.64 283.78 335.53 273.81 335.00 268.00
C 326.73 267.10 324.00 256.98 318.92 250.08 C 313.83 243.18 311.78 235.31 308.32 226.68 C 304.86 218.04 302.01 208.81 300.99 199.01 C 299.97 189.20 299.58 174.30 300.22 164.22 C 300.87 154.14 304.67 144.39 307.67 135.67 C 310.67 126.95 312.40 117.56 319.00 114.00
C 320.27 106.22 327.27 94.44 334.25 88.25 C 341.24 82.06 348.90 71.96 358.00 71.00
C 359.09 64.43 368.08 60.64 374.33 57.33 C 380.58 54.01 388.76 50.72 395.00 47.00
C 386.51 50.16 378.41 53.50 370.00 57.00 Z"/>
</g>
<g fill="None" fill-opacity="0.0" stroke="#D33934" stroke-opacity="1.00" stroke-width="0.3"><path d="
M 492.00 190.00 
C 487.85 197.58 486.58 206.50 481.00 214.00
C 477.78 218.33 472.86 223.82 468.00 226.00
C 467.14 226.39 465.82 226.28 465.00 227.00
C 464.29 232.32 473.42 240.50 475.25 245.75 C 477.07 251.01 483.26 258.85 486.03 263.97 C 488.79 269.10 492.44 277.65 496.23 281.77 C 500.02 285.89 502.12 298.18 507.31 299.64 C 512.49 301.11 520.08 291.26 524.75 288.75 C 529.42 286.25 535.23 279.45 539.25 275.25 C 543.26 271.05 548.42 264.15 552.25 259.25 C 556.07 254.35 558.85 248.97 562.00 243.00
C 578.74 211.31 580.90 171.02 570.00 137.00
C 557.20 97.07 525.98 62.68 486.00 49.00
C 483.58 48.17 481.63 47.10 479.00 47.00
C 487.91 52.71 498.98 55.47 507.77 62.23 C 516.56 68.99 523.77 71.20 531.75 79.25 C 539.72 87.31 543.92 93.45 549.10 100.90 C 554.28 108.36 560.80 117.85 565.03 127.98 C 569.25 138.10 570.61 150.65 573.01 161.99 C 575.41 173.33 575.64 189.30 572.93 200.93 C 570.21 212.56 566.73 223.43 563.26 234.26 C 559.79 245.08 550.52 251.69 549.00 261.00
C 545.87 263.56 535.33 267.56 539.00 273.00
C 527.55 281.34 520.13 292.14 507.00 296.00
C 492.39 273.57 483.34 252.04 468.00 230.00
C 469.50 222.87 483.82 219.23 485.07 213.08 C 486.32 206.92 494.99 196.69 492.00 190.00 Z"/>
</g>
<g fill="None" fill-opacity="0.0" stroke="#E1F5E2" stroke-opacity="1.00" stroke-width="0.3"><path d="
M 339.00 68.00 
C 332.03 67.87 339.68 75.74 339.00 68.00 Z"/>
</g>
<g fill="None" fill-opacity="0.0" stroke="#FED3D2" stroke-opacity="1.00" stroke-width="0.3"><path d="
M 302.00 145.00 
C 306.78 127.86 314.88 110.61 325.00 96.00
C 317.57 96.03 317.49 113.22 313.00 107.00
C 307.98 111.24 315.42 109.80 312.26 114.26 C 309.10 118.71 305.94 124.18 304.78 129.78 C 303.61 135.37 304.64 134.00 301.75 137.75 C 298.87 141.51 301.66 142.09 302.00 145.00 Z"/>
</g>
<g fill="None" fill-opacity="0.0" stroke="#FECCCB" stroke-opacity="1.00" stroke-width="0.3"><path d="
M 414.00 130.00 
C 421.33 128.10 429.67 127.83 436.78 127.78 C 443.89 127.73 452.84 127.41 457.00 128.00
C 443.20 121.74 426.89 123.62 414.00 130.00 Z"/>
</g>
<g fill="None" fill-opacity="0.0" stroke="#FDDADE" stroke-opacity="1.00" stroke-width="0.3"><path d="
M 481.00 146.00 
C 475.65 138.80 468.90 134.05 461.00 130.00
C 464.27 133.39 459.88 133.20 460.00 137.00
C 463.23 137.56 465.99 136.21 469.00 136.00
C 468.66 139.80 468.81 140.64 474.00 140.00
C 474.05 144.00 480.14 145.23 481.00 146.00 Z"/>
</g>
<g fill="None" fill-opacity="0.0" stroke="#FED6D4" stroke-opacity="1.00" stroke-width="0.3"><path d="
M 562.00 243.00 
C 564.88 242.10 564.14 237.95 567.00 237.00
C 570.03 238.18 565.71 241.90 568.00 243.00
C 569.46 241.04 573.36 235.20 568.00 235.00
C 571.24 229.58 572.12 222.15 573.25 216.25 C 574.37 210.34 575.40 202.30 580.00 200.00
C 579.76 177.40 579.70 156.41 570.00 137.00
C 580.90 171.02 578.74 211.31 562.00 243.00 Z"/>
</g>
<g fill="None" fill-opacity="0.0" stroke="#E4F7E4" stroke-opacity="1.00" stroke-width="0.3"><path d="
M 466.00 139.00 
C 463.99 136.78 459.01 137.83 458.00 141.00
C 460.42 142.06 464.14 140.96 466.00 139.00 Z"/>
</g>
<g fill="None" fill-opacity="0.0" stroke="#FDD5D4" stroke-opacity="1.00" stroke-width="0.3"><path d="
M 465.00 227.00 
C 465.82 226.28 467.14 226.39 468.00 226.00
C 472.03 223.54 477.78 217.69 481.00 214.00
C 486.58 206.50 487.85 197.58 492.00 190.00
C 492.00 190.00 492.00 189.50 492.00 189.00
C 492.00 188.00 492.00 187.00 492.00 186.00
C 492.00 182.03 492.27 177.96 492.00 174.00
C 491.51 166.79 489.54 159.28 486.00 153.00
C 484.07 154.40 484.26 156.87 484.03 160.97 C 483.79 165.07 486.71 161.40 488.00 160.00
C 489.50 165.72 491.77 173.98 491.00 180.00 C 490.23 186.02 491.60 195.81 485.00 192.00
C 489.45 195.31 484.14 211.04 481.00 205.00
C 480.75 208.35 480.69 211.58 476.00 211.00
C 480.89 218.29 465.78 221.18 465.00 227.00 Z"/>
</g>
<g fill="None" fill-opacity="0.0" stroke="#FECECD" stroke-opacity="1.00" stroke-width="0.3"><path d="
M 374.00 293.00 
C 381.37 288.86 382.37 274.93 388.00 275.00
C 390.62 264.06 398.47 252.14 405.00 243.00
C 406.60 240.77 407.74 238.63 409.00 236.00
C 411.21 233.19 411.09 229.22 412.00 226.00
C 402.73 221.13 393.07 214.47 392.00 203.00
C 380.04 192.05 384.66 168.66 388.00 155.00
C 374.38 180.25 385.31 214.96 411.00 228.00
C 398.98 249.82 384.99 270.78 374.00 293.00 Z"/>
</g>
<g fill="None" fill-opacity="0.0" stroke="#F86D73" stroke-opacity="1.00" stroke-width="0.3"><path d="
M 492.00 186.00 
C 492.88 181.98 492.73 178.05 492.00 174.00
C 492.27 177.96 492.00 182.03 492.00 186.00 Z"/>
</g>
<g fill="None" fill-opacity="0.0" stroke="#FCE8F3" stroke-opacity="1.00" stroke-width="0.3"><path d="
M 295.00 192.00 
C 296.31 187.63 296.94 180.17 296.00 176.00
C 292.48 179.40 293.68 187.70 295.00 192.00 Z"/>
</g>
<g fill="None" fill-opacity="0.0" stroke="#E97E7F" stroke-opacity="1.00" stroke-width="0.3"><path d="
M 468.00 226.00 
C 472.86 223.82 477.78 218.33 481.00 214.00
C 477.78 217.69 472.03 223.54 468.00 226.00 Z"/>
</g>
<g fill="None" fill-opacity="0.0" stroke="#F8EAF7" stroke-opacity="1.00" stroke-width="0.3"><path d="
M 409.00 236.00 
C 407.74 238.63 406.60 240.77 405.00 243.00
C 405.48 244.73 407.05 242.31 408.00 244.00
C 408.92 241.73 410.07 239.52 410.00 237.00
C 413.07 237.28 417.46 237.44 416.00 233.00
C 413.33 232.50 410.67 234.02 409.00 236.00 Z"/>
</g>
<g fill="None" fill-opacity="0.0" stroke="#EEFEF2" stroke-opacity="1.00" stroke-width="0.3"><path d="
M 414.00 239.00 
C 408.61 237.85 408.60 247.26 412.00 249.00
C 413.25 245.81 414.21 242.56 414.00 239.00 Z"/>
</g>
<g fill="None" fill-opacity="0.0" stroke="#F7E6F1" stroke-opacity="1.00" stroke-width="0.3"><path d="
M 318.00 254.00 
C 312.64 253.07 311.41 244.30 307.00 241.00
C 307.11 246.53 311.49 260.13 318.00 254.00 Z"/>
</g>
<g fill="None" fill-opacity="0.0" stroke="#FCEAFA" stroke-opacity="1.00" stroke-width="0.3"><path d="
M 356.00 301.00 
C 366.89 302.65 357.31 292.28 356.00 301.00 Z"/>
</g>
<g fill="None" fill-opacity="0.0" stroke="#C0FDBE" stroke-opacity="1.00" stroke-width="0.3"><path d="
M 206.00 336.00 
C 203.56 337.83 200.71 340.25 198.00 342.00
C 191.89 345.94 186.57 350.38 182.00 356.00
C 175.19 364.37 166.02 372.37 160.00 382.00
C 157.15 388.16 154.09 393.47 152.00 400.00
C 144.59 423.13 138.56 444.99 141.00 471.00
C 141.71 478.58 143.43 486.21 146.00 493.00
C 138.08 445.19 144.33 395.53 179.25 360.25 C 214.17 324.96 257.98 310.88 306.00 319.00
C 312.54 319.25 324.98 321.61 330.22 324.78 C 335.47 327.94 349.69 328.89 350.00 336.00
C 350.15 339.41 346.32 341.59 346.00 345.00
C 350.67 337.69 353.60 331.64 344.10 328.90 C 334.59 326.16 332.77 322.63 324.22 319.78 C 315.68 316.93 308.49 317.04 300.01 314.99 C 291.52 312.94 280.11 313.75 271.67 314.67 C 263.23 315.59 253.87 315.64 246.22 318.22 C 238.57 320.80 231.17 321.61 224.25 325.25 C 217.32 328.88 212.27 331.29 206.00 336.00 Z"/>
</g>
<g fill="None" fill-opacity="0.0" stroke="#45E645" stroke-opacity="1.00" stroke-width="0.3"><path d="
M 146.00 493.00 
C 147.38 496.66 148.68 500.35 150.00 504.00
C 162.83 529.95 178.55 550.05 201.00 570.00
C 227.18 593.27 264.67 594.97 299.00 595.00
C 299.50 595.00 300.00 595.00 300.00 595.00
C 303.85 592.15 314.83 590.67 320.00 590.00
C 330.30 587.00 340.47 580.72 350.00 576.00
C 338.63 579.64 329.32 584.17 318.00 588.00 C 306.68 591.83 292.74 593.15 281.00 593.00 C 269.25 592.85 251.96 591.90 242.33 587.67 C 232.70 583.44 222.76 581.21 213.25 574.75 C 203.75 568.29 191.42 566.37 192.00 554.00
C 189.42 559.86 176.16 548.92 183.00 544.00
C 180.51 545.53 178.37 543.40 176.00 545.00
C 172.97 536.84 164.05 532.18 164.00 523.00
C 156.57 516.23 152.32 505.00 149.02 493.98 C 145.73 482.95 142.68 468.12 143.00 456.00 C 143.32 443.88 145.17 427.93 148.00 417.00 C 150.83 406.07 157.22 397.28 162.25 387.25 C 167.29 377.22 173.25 368.49 180.77 360.77 C 188.29 353.05 195.97 347.90 203.25 342.81 C 210.53 337.72 219.66 331.85 230.25 328.25 C 240.83 324.65 253.14 320.35 265.07 319.07 C 277.00 317.79 293.03 318.22 306.00 319.00
C 257.98 310.88 214.17 324.96 179.25 360.25 C 144.33 395.53 138.08 445.19 146.00 493.00 Z"/>
</g>
<g fill="None" fill-opacity="0.0" stroke="#0FFC0E" stroke-opacity="1.00" stroke-width="0.3"><path d="
M 350.00 576.00 
C 355.44 574.26 360.16 569.85 364.75 566.75 C 369.34 563.65 374.46 559.00 378.25 555.25 C 382.04 551.50 386.46 545.41 389.75 542.75 C 393.05 540.09 397.71 528.44 400.00 530.00
C 400.34 530.23 401.00 530.00 401.00 530.00
C 404.27 520.84 410.50 514.21 413.68 504.68 C 416.86 495.14 418.62 483.89 421.00 474.00
C 421.39 470.71 420.74 467.30 421.00 464.00
C 420.42 458.01 419.18 452.88 412.00 454.00 C 404.82 455.12 399.48 453.29 393.00 454.00 C 386.52 454.71 379.89 453.23 374.00 454.00 C 368.11 454.77 359.99 452.65 355.00 454.00 C 350.01 455.35 338.94 450.84 336.00 455.00
C 334.49 458.04 335.77 464.50 335.00 468.00
C 333.64 474.12 331.07 480.56 327.75 485.75 C 324.42 490.94 320.86 495.28 315.75 498.75 C 310.64 502.22 305.36 506.86 303.00 505.00
C 302.02 505.14 300.98 504.87 300.00 505.00
C 290.85 506.21 277.43 511.81 268.02 507.98 C 258.62 504.14 251.69 500.93 244.75 494.25 C 237.82 487.56 234.23 480.53 231.00 472.00
C 227.31 462.26 226.86 450.40 230.00 440.00
C 225.01 446.12 227.83 456.36 227.00 464.00
C 220.98 437.04 240.34 408.09 267.00 402.00
C 276.44 400.83 287.07 399.58 295.00 404.00
C 301.28 407.50 311.52 411.95 314.00 402.00
C 313.07 404.07 309.65 407.45 307.00 407.00
C 323.55 385.21 334.49 358.66 350.00 336.00
C 349.69 328.89 335.47 327.94 330.22 324.78 C 324.98 321.61 312.54 319.25 306.00 319.00
C 293.03 318.22 277.00 317.79 265.07 319.07 C 253.14 320.35 240.83 324.65 230.25 328.25 C 219.66 331.85 210.53 337.72 203.25 342.81 C 195.97 347.90 188.29 353.05 180.77 360.77 C 173.25 368.49 167.29 377.22 162.25 387.25 C 157.22 397.28 150.83 406.07 148.00 417.00 C 145.17 427.93 143.32 443.88 143.00 456.00 C 142.68 468.12 145.73 482.95 149.02 493.98 C 152.32 505.00 156.57 516.23 164.00 523.00
C 164.05 532.18 172.97 536.84 176.00 545.00
C 178.37 543.40 180.51 545.53 183.00 544.00
C 176.16 548.92 189.42 559.86 192.00 554.00
C 191.42 566.37 203.75 568.29 213.25 574.75 C 222.76 581.21 232.70 583.44 242.33 587.67 C 251.96 591.90 269.25 592.85 281.00 593.00 C 292.74 593.15 306.68 591.83 318.00 588.00 C 329.32 584.17 338.63 579.64 350.00 576.00 Z"/>
</g>
<g fill="None" fill-opacity="0.0" stroke="#DBDEFB" stroke-opacity="1.00" stroke-width="0.3"><path d="
M 647.00 362.00 
C 651.86 353.10 656.08 348.67 660.92 338.92 C 665.75 329.16 675.72 341.17 682.25 345.75 C 688.78 350.34 696.89 357.15 701.92 364.08 C 706.94 371.01 713.96 378.71 718.00 386.00
C 718.91 383.63 716.46 380.51 718.00 377.00
C 712.35 377.87 716.07 375.18 716.00 372.00
C 707.49 374.19 712.00 359.38 703.00 363.00
C 702.70 358.19 698.41 359.19 700.00 352.00
C 693.63 354.43 688.30 347.57 688.00 342.00
C 686.37 344.88 682.65 343.98 686.00 341.00
C 683.68 340.65 681.16 338.99 679.00 341.00
C 673.60 333.30 663.03 328.64 658.92 338.92 C 654.81 349.19 649.70 351.45 647.00 362.00 Z"/>
</g>
<g fill="None" fill-opacity="0.0" stroke="#0103FA" stroke-opacity="1.00" stroke-width="0.3"><path d="
M 521.00 337.00 
C 507.54 349.56 495.26 358.48 484.08 375.08 C 472.90 391.69 466.89 407.49 461.01 427.01 C 455.12 446.53 463.05 474.85 462.00 494.00
C 462.38 495.49 462.11 494.95 463.00 496.00
C 472.31 507.03 473.70 521.14 481.78 531.22 C 489.85 541.31 497.87 553.14 509.25 560.75 C 520.63 568.37 530.27 577.86 544.68 582.32 C 559.09 586.78 574.98 591.67 591.01 591.99 C 607.03 592.31 623.66 589.70 637.22 585.22 C 650.79 580.75 662.68 576.01 673.25 568.25 C 683.81 560.48 696.71 550.89 701.00 539.00
C 711.38 536.11 715.18 522.72 717.00 513.00
C 720.56 517.97 723.50 506.79 725.33 501.33 C 727.16 495.87 730.35 487.33 730.98 480.98 C 731.60 474.62 733.31 466.74 733.00 459.00 C 732.69 451.26 733.21 441.40 732.00 434.00 C 730.79 426.60 727.17 419.81 729.00 413.00
C 727.53 408.58 725.65 404.37 724.00 400.00
C 722.56 396.19 720.68 392.73 719.00 389.00
C 718.50 387.88 718.18 387.21 718.00 386.00
C 713.96 378.71 706.94 371.01 701.92 364.08 C 696.89 357.15 688.78 350.34 682.25 345.75 C 675.72 341.17 665.75 329.16 660.92 338.92 C 656.08 348.67 651.86 353.10 647.00 362.00
C 645.08 369.53 636.95 377.65 634.77 384.77 C 632.59 391.89 620.89 400.14 624.00 407.00
C 627.08 412.23 636.34 415.00 640.00 421.00
C 640.37 421.61 640.63 422.45 641.00 423.00
C 658.05 447.90 652.24 485.16 625.00 501.00
C 618.13 505.00 611.41 508.71 603.00 509.00
C 598.39 509.83 593.54 509.81 589.00 509.00
C 564.50 507.33 546.07 487.04 542.00 464.00
C 541.77 462.70 541.08 460.89 541.00 459.00
C 540.55 455.89 540.50 453.07 541.00 450.00
C 541.50 440.85 544.68 433.58 549.00 426.00
C 552.42 417.87 560.71 411.70 568.00 407.00
C 567.06 405.38 566.42 403.78 566.00 402.00
C 564.72 399.59 562.42 396.50 561.00 394.00
C 549.08 374.43 537.72 353.96 526.00 334.00
C 524.08 334.57 522.50 336.06 521.00 337.00 Z"/>
</g>
<g fill="None" fill-opacity="0.0" stroke="#E8FBE5" stroke-opacity="1.00" stroke-width="0.3"><path d="
M 198.00 342.00 
C 200.71 340.25 203.56 337.83 206.00 336.00
C 202.40 337.52 199.03 335.27 195.00 336.00
C 195.28 339.25 200.58 336.63 200.00 340.00
C 198.81 339.97 198.62 341.38 198.00 342.00 Z"/>
</g>
<g fill="None" fill-opacity="0.0" stroke="#90F790" stroke-opacity="1.00" stroke-width="0.3"><path d="
M 314.00 402.00 
C 314.39 400.44 314.32 399.48 315.00 398.00
C 323.28 379.90 335.52 362.37 346.00 346.00
C 346.00 346.00 345.95 345.50 346.00 345.00
C 346.32 341.59 350.15 339.41 350.00 336.00
C 334.49 358.66 323.55 385.21 307.00 407.00
C 309.65 407.45 313.07 404.07 314.00 402.00 Z"/>
</g>
<g fill="None" fill-opacity="0.0" stroke="#1924BE" stroke-opacity="1.00" stroke-width="0.3"><path d="
M 502.00 351.00 
C 498.53 354.47 494.16 358.38 491.00 362.00
C 482.45 373.84 473.18 385.31 468.00 399.00
C 462.77 412.83 457.88 426.94 457.00 442.00
C 456.88 443.98 457.00 446.01 457.00 448.00
C 457.00 453.33 457.00 458.67 457.00 464.00
C 457.00 474.71 459.45 483.99 462.00 494.00
C 463.05 474.85 455.12 446.53 461.01 427.01 C 466.89 407.49 472.90 391.69 484.08 375.08 C 495.26 358.48 507.54 349.56 521.00 337.00
C 514.37 341.15 508.72 346.91 502.00 351.00 Z"/>
</g>
<g fill="None" fill-opacity="0.0" stroke="#D7FCD7" stroke-opacity="1.00" stroke-width="0.3"><path d="
M 315.00 398.00 
C 317.78 394.00 325.16 388.91 326.29 382.29 C 327.43 375.68 332.93 370.29 336.08 364.08 C 339.23 357.86 344.40 353.28 346.00 346.00
C 335.52 362.37 323.28 379.90 315.00 398.00 Z"/>
</g>
<g fill="None" fill-opacity="0.0" stroke="#E8E5F8" stroke-opacity="1.00" stroke-width="0.3"><path d="
M 494.00 358.00 
C 495.80 356.12 498.15 353.72 500.00 352.00
C 497.05 350.26 501.53 346.98 496.00 347.00
C 497.60 350.95 490.77 359.47 494.00 358.00 Z"/>
</g>
<g fill="None" fill-opacity="0.0" stroke="#A8A7F4" stroke-opacity="1.00" stroke-width="0.3"><path d="
M 500.00 352.00 
C 498.15 353.72 495.80 356.12 494.00 358.00
C 492.97 359.07 491.91 360.74 491.00 362.00
C 494.16 358.38 498.53 354.47 502.00 351.00
C 501.41 351.36 500.55 351.49 500.00 352.00 Z"/>
</g>
<g fill="None" fill-opacity="0.0" stroke="#E9F5E7" stroke-opacity="1.00" stroke-width="0.3"><path d="
M 160.00 382.00 
C 166.02 372.37 175.19 364.37 182.00 356.00
C 180.19 357.56 176.96 357.09 178.00 354.00
C 172.78 354.17 168.02 354.42 164.00 359.00
C 167.16 362.05 173.13 356.27 176.00 361.00
C 169.27 366.11 163.56 374.30 160.00 382.00 Z"/>
</g>
<g fill="None" fill-opacity="0.0" stroke="#CCD2FD" stroke-opacity="1.00" stroke-width="0.3"><path d="
M 724.00 400.00 
C 723.18 394.83 722.64 393.23 719.00 389.00
C 720.68 392.73 722.56 396.19 724.00 400.00 Z"/>
</g>
<g fill="None" fill-opacity="0.0" stroke="#D0D7FC" stroke-opacity="1.00" stroke-width="0.3"><path d="
M 566.00 402.00 
C 565.19 398.54 563.82 397.02 561.00 394.00
C 562.42 396.50 564.72 399.59 566.00 402.00 Z"/>
</g>
<g fill="None" fill-opacity="0.0" stroke="#D3D5FD" stroke-opacity="1.00" stroke-width="0.3"><path d="
M 457.00 442.00 
C 457.88 426.94 462.77 412.83 468.00 399.00
C 460.87 401.37 462.91 411.87 459.97 416.97 C 457.03 422.07 459.14 434.87 453.00 429.00
C 453.38 431.20 451.79 440.51 455.00 436.00
C 453.55 438.43 456.72 440.47 457.00 442.00 Z"/>
</g>
<g fill="None" fill-opacity="0.0" stroke="#DDFBDF" stroke-opacity="1.00" stroke-width="0.3"><path d="
M 141.00 471.00 
C 138.56 444.99 144.59 423.13 152.00 400.00
C 141.86 420.96 135.84 446.51 141.00 471.00 Z"/>
</g>
<g fill="None" fill-opacity="0.0" stroke="#D9FDD5" stroke-opacity="1.00" stroke-width="0.3"><path d="
M 267.00 402.00 
C 254.50 404.59 230.40 422.01 231.00 437.00
C 233.95 431.28 236.62 422.16 244.00 421.00
C 246.57 411.99 256.17 409.92 263.77 405.77 C 271.37 401.62 285.98 402.13 295.00 404.00
C 287.07 399.58 276.44 400.83 267.00 402.00 Z"/>
</g>
<g fill="None" fill-opacity="0.0" stroke="#9DFB9B" stroke-opacity="1.00" stroke-width="0.3"><path d="
M 230.00 440.00 
C 230.23 439.72 230.89 439.26 231.00 439.00
C 231.05 438.51 231.02 437.50 231.00 437.00
C 230.40 422.01 254.50 404.59 267.00 402.00
C 240.34 408.09 220.98 437.04 227.00 464.00
C 227.83 456.36 225.01 446.12 230.00 440.00 Z"/>
</g>
<g fill="None" fill-opacity="0.0" stroke="#FBE5F2" stroke-opacity="1.00" stroke-width="0.3"><path d="
M 320.00 406.00 
C 320.23 397.72 311.75 406.30 320.00 406.00 Z"/>
</g>
<g fill="None" fill-opacity="0.0" stroke="#ADB1FA" stroke-opacity="1.00" stroke-width="0.3"><path d="
M 626.00 410.00 
C 630.14 413.56 635.91 416.62 640.00 421.00
C 636.34 415.00 627.08 412.23 624.00 407.00
C 624.38 407.85 625.28 409.38 626.00 410.00 Z"/>
</g>
<g fill="None" fill-opacity="0.0" stroke="#E6E7FB" stroke-opacity="1.00" stroke-width="0.3"><path d="
M 641.00 423.00 
C 640.63 422.45 640.37 421.61 640.00 421.00
C 635.91 416.62 630.14 413.56 626.00 410.00
C 625.39 414.90 628.63 423.30 632.00 415.00
C 635.64 417.34 634.88 419.71 637.00 423.00
C 637.31 421.40 641.14 422.82 641.00 423.00 Z"/>
</g>
<g fill="None" fill-opacity="0.0" stroke="#1B27C3" stroke-opacity="1.00" stroke-width="0.3"><path d="
M 463.00 496.00 
C 463.58 497.44 463.49 499.45 464.00 501.00
C 476.36 538.73 512.72 576.01 551.00 587.00
C 561.41 589.99 573.47 592.98 584.00 594.00
C 599.24 592.96 616.79 594.15 630.78 589.78 C 644.77 585.40 654.10 581.03 667.00 575.00
C 670.20 573.12 673.75 570.23 677.00 568.00
C 706.28 547.91 726.57 514.32 733.00 481.00
C 734.05 475.58 734.57 469.46 735.00 464.00
C 736.39 446.43 734.30 428.90 729.00 413.00
C 727.17 419.81 730.79 426.60 732.00 434.00 C 733.21 441.40 732.69 451.26 733.00 459.00 C 733.31 466.74 731.60 474.62 730.98 480.98 C 730.35 487.33 727.16 495.87 725.33 501.33 C 723.50 506.79 720.56 517.97 717.00 513.00
C 715.18 522.72 711.38 536.11 701.00 539.00
C 696.71 550.89 683.81 560.48 673.25 568.25 C 662.68 576.01 650.79 580.75 637.22 585.22 C 623.66 589.70 607.03 592.31 591.01 591.99 C 574.98 591.67 559.09 586.78 544.68 582.32 C 530.27 577.86 520.63 568.37 509.25 560.75 C 497.87 553.14 489.85 541.31 481.78 531.22 C 473.70 521.14 472.31 507.03 463.00 496.00 Z"/>
</g>
<g fill="None" fill-opacity="0.0" stroke="#DEDDFD" stroke-opacity="1.00" stroke-width="0.3"><path d="
M 541.00 450.00 
C 540.84 452.95 540.88 456.04 541.00 459.00
C 541.08 460.89 541.77 462.70 542.00 464.00
C 542.40 450.55 545.52 437.81 549.00 426.00
C 544.68 433.58 541.50 440.85 541.00 450.00 Z"/>
</g>
<g fill="None" fill-opacity="0.0" stroke="#F3E8FB" stroke-opacity="1.00" stroke-width="0.3"><path d="
M 135.00 431.00 
C 130.58 430.60 130.39 441.24 135.00 440.00
C 135.00 437.00 135.00 434.00 135.00 431.00 Z"/>
</g>
<g fill="None" fill-opacity="0.0" stroke="#E7F8E9" stroke-opacity="1.00" stroke-width="0.3"><path d="
M 230.00 440.00 
C 226.86 450.40 227.31 462.26 231.00 472.00
C 230.24 468.61 231.76 466.28 233.00 464.00
C 228.94 463.09 227.43 449.45 231.00 456.00
C 230.76 451.86 233.65 448.84 234.00 445.00
C 230.85 444.38 230.71 441.78 231.00 439.00
C 230.89 439.26 230.23 439.72 230.00 440.00 Z"/>
</g>
<g fill="None" fill-opacity="0.0" stroke="#DFFADF" stroke-opacity="1.00" stroke-width="0.3"><path d="
M 332.00 472.00 
C 332.73 471.03 334.60 469.06 335.00 468.00
C 335.77 464.50 334.49 458.04 336.00 455.00
C 338.91 449.11 352.23 454.46 359.00 453.00 C 365.77 451.54 375.73 453.93 384.00 453.00 C 392.27 452.07 399.28 454.01 409.00 453.00 C 418.72 451.99 421.81 453.83 421.00 464.00
C 420.74 467.30 421.39 470.71 421.00 474.00
C 423.37 469.11 420.82 461.60 425.00 457.00
C 414.23 449.10 397.68 451.06 384.00 451.00 C 370.33 450.95 355.26 452.61 342.00 451.00
C 344.85 449.57 342.80 447.44 340.00 448.00
C 340.63 453.29 334.00 452.89 332.32 457.32 C 330.64 461.75 332.00 466.95 332.00 472.00 Z"/>
</g>
<g fill="None" fill-opacity="0.0" stroke="#DFF8E8" stroke-opacity="1.00" stroke-width="0.3"><path d="
M 426.00 449.00 
C 424.43 447.28 419.64 447.50 418.00 449.00
C 419.57 450.72 424.36 450.50 426.00 449.00 Z"/>
</g>
<g fill="None" fill-opacity="0.0" stroke="#DEDDFD" stroke-opacity="1.00" stroke-width="0.3"><path d="
M 464.00 501.00 
C 463.49 499.45 463.58 497.44 463.00 496.00
C 462.11 494.95 462.38 495.49 462.00 494.00
C 459.45 483.99 457.00 474.71 457.00 464.00
C 456.55 459.32 455.51 453.39 456.00 448.00
C 453.16 457.73 457.15 470.97 453.00 480.00
C 459.64 478.22 456.00 486.11 457.29 488.71 C 458.59 491.30 461.64 495.75 460.00 500.00
C 461.44 501.36 462.65 499.61 464.00 501.00 Z"/>
</g>
<g fill="None" fill-opacity="0.0" stroke="#7170EC" stroke-opacity="1.00" stroke-width="0.3"><path d="
M 457.00 464.00 
C 457.00 458.67 457.00 453.33 457.00 448.00
C 457.00 448.00 456.26 447.75 456.00 448.00
C 455.51 453.39 456.55 459.32 457.00 464.00 Z"/>
</g>
<g fill="None" fill-opacity="0.0" stroke="#6668E1" stroke-opacity="1.00" stroke-width="0.3"><path d="
M 541.00 459.00 
C 540.88 456.04 540.84 452.95 541.00 450.00
C 540.50 453.07 540.55 455.89 541.00 459.00 Z"/>
</g>
<g fill="None" fill-opacity="0.0" stroke="#B2FCB2" stroke-opacity="1.00" stroke-width="0.3"><path d="
M 336.00 455.00 
C 338.94 450.84 350.01 455.35 355.00 454.00 C 359.99 452.65 368.11 454.77 374.00 454.00 C 379.89 453.23 386.52 454.71 393.00 454.00 C 399.48 453.29 404.82 455.12 412.00 454.00 C 419.18 452.88 420.42 458.01 421.00 464.00
C 421.81 453.83 418.72 451.99 409.00 453.00 C 399.28 454.01 392.27 452.07 384.00 453.00 C 375.73 453.93 365.77 451.54 359.00 453.00 C 352.23 454.46 338.91 449.11 336.00 455.00 Z"/>
</g>
<g fill="None" fill-opacity="0.0" stroke="#D2D3FD" stroke-opacity="1.00" stroke-width="0.3"><path d="
M 735.00 464.00 
C 734.57 469.46 734.05 475.58 733.00 481.00
C 737.72 475.73 737.00 467.20 737.00 460.00
C 736.09 460.78 735.32 463.00 735.00 464.00 Z"/>
</g>
<g fill="None" fill-opacity="0.0" stroke="#9DF99E" stroke-opacity="1.00" stroke-width="0.3"><path d="
M 332.00 472.00 
C 332.00 472.00 332.11 472.53 332.00 473.00
C 329.29 484.57 315.94 503.11 303.00 505.00
C 305.36 506.86 310.64 502.22 315.75 498.75 C 320.86 495.28 324.42 490.94 327.75 485.75 C 331.07 480.56 333.64 474.12 335.00 468.00
C 334.60 469.06 332.73 471.03 332.00 472.00 Z"/>
</g>
<g fill="None" fill-opacity="0.0" stroke="#E2F9E4" stroke-opacity="1.00" stroke-width="0.3"><path d="
M 300.00 505.00 
C 300.98 504.87 302.02 505.14 303.00 505.00
C 315.94 503.11 329.29 484.57 332.00 473.00
C 330.97 473.12 330.41 474.17 330.00 475.00
C 328.05 473.80 328.89 470.26 327.00 469.00
C 326.68 476.69 328.42 492.24 316.00 490.00
C 315.59 501.18 307.31 498.54 300.00 500.00
C 301.51 503.38 304.26 502.41 300.00 505.00 Z"/>
</g>
<g fill="None" fill-opacity="0.0" stroke="#F9E6F7" stroke-opacity="1.00" stroke-width="0.3"><path d="
M 324.00 470.00 
C 320.88 471.56 320.93 478.41 324.00 480.00
C 326.28 476.89 324.18 473.27 324.00 470.00 Z"/>
</g>
<g fill="None" fill-opacity="0.0" stroke="#E1F6E2" stroke-opacity="1.00" stroke-width="0.3"><path d="
M 425.00 480.00 
C 419.88 479.19 423.11 484.46 423.00 487.00
C 424.65 485.40 425.08 482.44 425.00 480.00 Z"/>
</g>
<g fill="None" fill-opacity="0.0" stroke="#DBDBFD" stroke-opacity="1.00" stroke-width="0.3"><path d="
M 600.00 509.00 
C 601.00 509.00 602.00 509.03 603.00 509.00
C 611.41 508.71 618.13 505.00 625.00 501.00
C 616.78 502.70 609.02 506.58 600.00 506.00
C 600.48 507.16 601.11 507.94 600.00 509.00 Z"/>
</g>
<g fill="None" fill-opacity="0.0" stroke="#93F793" stroke-opacity="1.00" stroke-width="0.3"><path d="
M 201.00 570.00 
C 178.55 550.05 162.83 529.95 150.00 504.00
C 159.60 530.68 177.10 553.27 201.00 570.00 Z"/>
</g>
<g fill="None" fill-opacity="0.0" stroke="#A0A6F6" stroke-opacity="1.00" stroke-width="0.3"><path d="
M 603.00 509.00 
C 602.00 509.03 601.00 509.00 600.00 509.00
C 596.36 509.00 592.63 509.25 589.00 509.00
C 593.54 509.81 598.39 509.83 603.00 509.00 Z"/>
</g>
<g fill="None" fill-opacity="0.0" stroke="#A1FAA2" stroke-opacity="1.00" stroke-width="0.3"><path d="
M 350.00 576.00 
C 340.47 580.72 330.30 587.00 320.00 590.00
C 329.20 588.80 336.29 583.61 345.00 581.00
C 350.95 577.99 356.59 572.31 363.00 570.00
C 363.00 570.00 363.64 570.22 364.00 570.00
C 373.75 556.05 394.32 547.40 400.00 530.00
C 397.71 528.44 393.05 540.09 389.75 542.75 C 386.46 545.41 382.04 551.50 378.25 555.25 C 374.46 559.00 369.34 563.65 364.75 566.75 C 360.16 569.85 355.44 574.26 350.00 576.00 Z"/>
</g>
<g fill="None" fill-opacity="0.0" stroke="#DEFCE0" stroke-opacity="1.00" stroke-width="0.3"><path d="
M 364.00 570.00 
C 371.62 566.87 377.19 557.88 383.25 553.25 C 389.30 548.62 394.78 535.03 400.00 540.00
C 399.68 536.51 400.13 533.17 401.00 530.00
C 401.00 530.00 400.34 530.23 400.00 530.00
C 394.32 547.40 373.75 556.05 364.00 570.00 Z"/>
</g>
<g fill="None" fill-opacity="0.0" stroke="#F1E7FB" stroke-opacity="1.00" stroke-width="0.3"><path d="
M 717.00 533.00 
C 714.46 534.39 712.71 537.37 712.00 540.00
C 717.77 541.40 716.42 536.15 717.00 533.00 Z"/>
</g>
<g fill="None" fill-opacity="0.0" stroke="#F8E5F7" stroke-opacity="1.00" stroke-width="0.3"><path d="
M 173.00 552.00 
C 173.55 548.71 170.25 546.72 168.00 545.00
C 167.22 548.31 168.95 552.77 173.00 552.00 Z"/>
</g>
<g fill="None" fill-opacity="0.0" stroke="#E8F2E3" stroke-opacity="1.00" stroke-width="0.3"><path d="
M 191.00 571.00 
C 181.93 571.26 183.69 560.91 178.00 557.00
C 178.13 561.47 182.32 578.80 191.00 571.00 Z"/>
</g>
<g fill="None" fill-opacity="0.0" stroke="#F7E5F8" stroke-opacity="1.00" stroke-width="0.3"><path d="
M 191.00 568.00 
C 189.24 565.35 186.62 562.89 184.00 561.00
C 182.56 566.11 185.87 569.50 191.00 568.00 Z"/>
</g>
<g fill="None" fill-opacity="0.0" stroke="#A5A6F8" stroke-opacity="1.00" stroke-width="0.3"><path d="
M 667.00 575.00 
C 671.07 573.10 673.71 570.84 677.00 568.00
C 673.75 570.23 670.20 573.12 667.00 575.00 Z"/>
</g>
<g fill="None" fill-opacity="0.0" stroke="#F9E3F5" stroke-opacity="1.00" stroke-width="0.3"><path d="
M 195.00 569.00 
C 188.03 568.87 195.68 576.75 195.00 569.00 Z"/>
</g>
<g fill="None" fill-opacity="0.0" stroke="#DAF8DD" stroke-opacity="1.00" stroke-width="0.3"><path d="
M 345.00 581.00 
C 353.82 578.36 357.17 575.47 363.00 570.00
C 356.59 572.31 350.95 577.99 345.00 581.00 Z"/>
</g>
<g fill="None" fill-opacity="0.0" stroke="#F5E5F9" stroke-opacity="1.00" stroke-width="0.3"><path d="
M 214.00 589.00 
C 213.13 586.58 210.46 585.47 208.00 586.00
C 207.08 589.38 211.79 591.06 214.00 589.00 Z"/>
</g>
<g fill="None" fill-opacity="0.0" stroke="#D9D8FB" stroke-opacity="1.00" stroke-width="0.3"><path d="
M 584.00 594.00 
C 573.47 592.98 561.41 589.99 551.00 587.00
C 552.62 591.08 563.37 591.17 566.92 593.08 C 570.48 594.99 582.07 602.02 577.00 595.00
C 579.51 594.70 581.45 594.17 584.00 594.00 Z"/>
</g>
<g fill="None" fill-opacity="0.0" stroke="#E5F5E8" stroke-opacity="1.00" stroke-width="0.3"><path d="
M 300.00 595.00 
C 300.00 595.00 299.50 595.00 299.00 595.00
C 294.59 600.31 283.30 593.60 280.00 599.00
C 286.27 600.95 293.34 599.61 300.00 600.00
C 295.30 593.05 309.73 598.74 312.00 593.00
C 308.02 594.55 304.56 595.00 300.00 595.00 Z"/>
</g>
<g fill="#F5F5F5" fill-opacity="1.00" stroke="None">
<path d="
M 0.00 635.00 
L 880.00 635.00
L 880.00 0.00
L 0.00 0.00
L 0.00 635.00
M 456.00 41.00 
C 456.50 41.00 457.50 41.00 458.00 41.00
C 469.37 41.00 476.66 44.54 486.00 49.00
C 525.98 62.68 557.20 97.07 570.00 137.00
C 579.70 156.41 579.76 177.40 580.00 200.00
C 575.40 202.30 574.37 210.34 573.25 216.25 C 572.12 222.15 571.24 229.58 568.00 235.00
C 573.36 235.20 569.46 241.04 568.00 243.00
C 565.71 241.90 570.03 238.18 567.00 237.00
C 564.14 237.95 564.88 242.10 562.00 243.00
C 558.85 248.97 556.07 254.35 552.25 259.25 C 548.42 264.15 543.26 271.05 539.25 275.25 C 535.23 279.45 529.42 286.25 524.75 288.75 C 520.08 291.26 512.49 301.11 507.31 299.64 C 502.12 298.18 500.02 285.89 496.23 281.77 C 492.44 277.65 488.79 269.10 486.03 263.97 C 483.26 258.85 477.07 251.01 475.25 245.75 C 473.42 240.50 464.29 232.32 465.00 227.00
C 465.78 221.18 480.89 218.29 476.00 211.00
C 480.69 211.58 480.75 208.35 481.00 205.00
C 484.14 211.04 489.45 195.31 485.00 192.00
C 491.60 195.81 490.23 186.02 491.00 180.00 C 491.77 173.98 489.50 165.72 488.00 160.00
C 486.71 161.40 483.79 165.07 484.03 160.97 C 484.26 156.87 484.07 154.40 486.00 153.00
C 484.63 150.57 482.64 148.20 481.00 146.00
C 480.14 145.23 474.05 144.00 474.00 140.00
C 468.81 140.64 468.66 139.80 469.00 136.00
C 465.99 136.21 463.23 137.56 460.00 137.00
C 459.88 133.20 464.27 133.39 461.00 130.00
C 459.65 129.31 458.38 128.62 457.00 128.00
C 452.84 127.41 443.89 127.73 436.78 127.78 C 429.67 127.83 421.33 128.10 414.00 130.00
C 402.91 132.88 393.28 145.43 388.00 155.00
C 384.66 168.66 380.04 192.05 392.00 203.00
C 393.07 214.47 402.73 221.13 412.00 226.00
C 411.09 229.22 411.21 233.19 409.00 236.00
C 410.67 234.02 413.33 232.50 416.00 233.00
C 417.46 237.44 413.07 237.28 410.00 237.00
C 410.07 239.52 408.92 241.73 408.00 244.00
C 407.05 242.31 405.48 244.73 405.00 243.00
C 398.47 252.14 390.62 264.06 388.00 275.00
C 382.37 274.93 381.37 288.86 374.00 293.00
C 372.71 295.62 370.03 298.02 369.00 301.00
C 314.30 271.94 286.00 204.69 302.00 145.00
C 301.66 142.09 298.87 141.51 301.75 137.75 C 304.64 134.00 303.61 135.37 304.78 129.78 C 305.94 124.18 309.10 118.71 312.26 114.26 C 315.42 109.80 307.98 111.24 313.00 107.00
C 317.49 113.22 317.57 96.03 325.00 96.00
C 339.66 82.45 351.32 64.78 370.00 57.00
C 379.40 50.81 386.65 43.45 399.00 44.00
C 397.69 39.87 391.94 43.81 390.00 41.00
C 397.68 37.60 407.89 46.09 415.00 39.00
C 413.28 37.30 409.71 38.97 409.00 36.00
C 411.17 34.55 417.03 33.73 416.00 38.00
C 428.73 41.03 444.10 36.31 456.00 41.00
M 339.00 68.00 
C 339.68 75.74 332.03 67.87 339.00 68.00
M 466.00 139.00 
C 464.14 140.96 460.42 142.06 458.00 141.00
C 459.01 137.83 463.99 136.78 466.00 139.00
M 295.00 192.00 
C 293.68 187.70 292.48 179.40 296.00 176.00
C 296.94 180.17 296.31 187.63 295.00 192.00
M 414.00 239.00 
C 414.21 242.56 413.25 245.81 412.00 249.00
C 408.60 247.26 408.61 237.85 414.00 239.00
M 318.00 254.00 
C 311.49 260.13 307.11 246.53 307.00 241.00
C 311.41 244.30 312.64 253.07 318.00 254.00
M 356.00 301.00 
C 357.31 292.28 366.89 302.65 356.00 301.00
M 346.00 345.00 
C 345.95 345.50 346.00 346.00 346.00 346.00
C 344.40 353.28 339.23 357.86 336.08 364.08 C 332.93 370.29 327.43 375.68 326.29 382.29 C 325.16 388.91 317.78 394.00 315.00 398.00
C 314.32 399.48 314.39 400.44 314.00 402.00
C 311.52 411.95 301.28 407.50 295.00 404.00
C 285.98 402.13 271.37 401.62 263.77 405.77 C 256.17 409.92 246.57 411.99 244.00 421.00
C 236.62 422.16 233.95 431.28 231.00 437.00
C 231.02 437.50 231.05 438.51 231.00 439.00
C 230.71 441.78 230.85 444.38 234.00 445.00
C 233.65 448.84 230.76 451.86 231.00 456.00
C 227.43 449.45 228.94 463.09 233.00 464.00
C 231.76 466.28 230.24 468.61 231.00 472.00
C 234.23 480.53 237.82 487.56 244.75 494.25 C 251.69 500.93 258.62 504.14 268.02 507.98 C 277.43 511.81 290.85 506.21 300.00 505.00
C 304.26 502.41 301.51 503.38 300.00 500.00
C 307.31 498.54 315.59 501.18 316.00 490.00
C 328.42 492.24 326.68 476.69 327.00 469.00
C 328.89 470.26 328.05 473.80 330.00 475.00
C 330.41 474.17 330.97 473.12 332.00 473.00
C 332.11 472.53 332.00 472.00 332.00 472.00
C 332.00 466.95 330.64 461.75 332.32 457.32 C 334.00 452.89 340.63 453.29 340.00 448.00
C 342.80 447.44 344.85 449.57 342.00 451.00
C 355.26 452.61 370.33 450.95 384.00 451.00 C 397.68 451.06 414.23 449.10 425.00 457.00
C 420.82 461.60 423.37 469.11 421.00 474.00
C 418.62 483.89 416.86 495.14 413.68 504.68 C 410.50 514.21 404.27 520.84 401.00 530.00
C 400.13 533.17 399.68 536.51 400.00 540.00
C 394.78 535.03 389.30 548.62 383.25 553.25 C 377.19 557.88 371.62 566.87 364.00 570.00
C 363.64 570.22 363.00 570.00 363.00 570.00
C 357.17 575.47 353.82 578.36 345.00 581.00
C 336.29 583.61 329.20 588.80 320.00 590.00
C 314.83 590.67 303.85 592.15 300.00 595.00
C 304.56 595.00 308.02 594.55 312.00 593.00
C 309.73 598.74 295.30 593.05 300.00 600.00
C 293.34 599.61 286.27 600.95 280.00 599.00
C 283.30 593.60 294.59 600.31 299.00 595.00
C 264.67 594.97 227.18 593.27 201.00 570.00
C 177.10 553.27 159.60 530.68 150.00 504.00
C 148.68 500.35 147.38 496.66 146.00 493.00
C 143.43 486.21 141.71 478.58 141.00 471.00
C 135.84 446.51 141.86 420.96 152.00 400.00
C 154.09 393.47 157.15 388.16 160.00 382.00
C 163.56 374.30 169.27 366.11 176.00 361.00
C 173.13 356.27 167.16 362.05 164.00 359.00
C 168.02 354.42 172.78 354.17 178.00 354.00
C 176.96 357.09 180.19 357.56 182.00 356.00
C 186.57 350.38 191.89 345.94 198.00 342.00
C 198.62 341.38 198.81 339.97 200.00 340.00
C 200.58 336.63 195.28 339.25 195.00 336.00
C 199.03 335.27 202.40 337.52 206.00 336.00
C 212.27 331.29 217.32 328.88 224.25 325.25 C 231.17 321.61 238.57 320.80 246.22 318.22 C 253.87 315.64 263.23 315.59 271.67 314.67 C 280.11 313.75 291.52 312.94 300.01 314.99 C 308.49 317.04 315.68 316.93 324.22 319.78 C 332.77 322.63 334.59 326.16 344.10 328.90 C 353.60 331.64 350.67 337.69 346.00 345.00
M 718.00 386.00 
C 718.18 387.21 718.50 387.88 719.00 389.00
C 722.64 393.23 723.18 394.83 724.00 400.00
C 725.65 404.37 727.53 408.58 729.00 413.00
C 734.30 428.90 736.39 446.43 735.00 464.00
C 735.32 463.00 736.09 460.78 737.00 460.00
C 737.00 467.20 737.72 475.73 733.00 481.00
C 726.57 514.32 706.28 547.91 677.00 568.00
C 673.71 570.84 671.07 573.10 667.00 575.00
C 654.10 581.03 644.77 585.40 630.78 589.78 C 616.79 594.15 599.24 592.96 584.00 594.00
C 581.45 594.17 579.51 594.70 577.00 595.00
C 582.07 602.02 570.48 594.99 566.92 593.08 C 563.37 591.17 552.62 591.08 551.00 587.00
C 512.72 576.01 476.36 538.73 464.00 501.00
C 462.65 499.61 461.44 501.36 460.00 500.00
C 461.64 495.75 458.59 491.30 457.29 488.71 C 456.00 486.11 459.64 478.22 453.00 480.00
C 457.15 470.97 453.16 457.73 456.00 448.00
C 456.26 447.75 457.00 448.00 457.00 448.00
C 457.00 446.01 456.88 443.98 457.00 442.00
C 456.72 440.47 453.55 438.43 455.00 436.00
C 451.79 440.51 453.38 431.20 453.00 429.00
C 459.14 434.87 457.03 422.07 459.97 416.97 C 462.91 411.87 460.87 401.37 468.00 399.00
C 473.18 385.31 482.45 373.84 491.00 362.00
C 491.91 360.74 492.97 359.07 494.00 358.00
C 490.77 359.47 497.60 350.95 496.00 347.00
C 501.53 346.98 497.05 350.26 500.00 352.00
C 500.55 351.49 501.41 351.36 502.00 351.00
C 508.72 346.91 514.37 341.15 521.00 337.00
C 522.50 336.06 524.08 334.57 526.00 334.00
C 537.72 353.96 549.08 374.43 561.00 394.00
C 563.82 397.02 565.19 398.54 566.00 402.00
C 566.42 403.78 567.06 405.38 568.00 407.00
C 560.71 411.70 552.42 417.87 549.00 426.00
C 545.52 437.81 542.40 450.55 542.00 464.00
C 546.07 487.04 564.50 507.33 589.00 509.00
C 592.63 509.25 596.36 509.00 600.00 509.00
C 601.11 507.94 600.48 507.16 600.00 506.00
C 609.02 506.58 616.78 502.70 625.00 501.00
C 652.24 485.16 658.05 447.90 641.00 423.00
C 641.14 422.82 637.31 421.40 637.00 423.00
C 634.88 419.71 635.64 417.34 632.00 415.00
C 628.63 423.30 625.39 414.90 626.00 410.00
C 625.28 409.38 624.38 407.85 624.00 407.00
C 620.89 400.14 632.59 391.89 634.77 384.77 C 636.95 377.65 645.08 369.53 647.00 362.00
C 649.70 351.45 654.81 349.19 658.92 338.92 C 663.03 328.64 673.60 333.30 679.00 341.00
C 681.16 338.99 683.68 340.65 686.00 341.00
C 682.65 343.98 686.37 344.88 688.00 342.00
C 688.30 347.57 693.63 354.43 700.00 352.00
C 698.41 359.19 702.70 358.19 703.00 363.00
C 712.00 359.38 707.49 374.19 716.00 372.00
C 716.07 375.18 712.35 377.87 718.00 377.00
C 716.46 380.51 718.91 383.63 718.00 386.00
M 320.00 406.00 
C 311.75 406.30 320.23 397.72 320.00 406.00
M 135.00 431.00 
C 135.00 434.00 135.00 437.00 135.00 440.00
C 130.39 441.24 130.58 430.60 135.00 431.00
M 426.00 449.00 
C 424.36 450.50 419.57 450.72 418.00 449.00
C 419.64 447.50 424.43 447.28 426.00 449.00
M 324.00 470.00 
C 324.18 473.27 326.28 476.89 324.00 480.00
C 320.93 478.41 320.88 471.56 324.00 470.00
M 425.00 480.00 
C 425.08 482.44 424.65 485.40 423.00 487.00
C 423.11 484.46 419.88 479.19 425.00 480.00
M 717.00 533.00 
C 716.42 536.15 717.77 541.40 712.00 540.00
C 712.71 537.37 714.46 534.39 717.00 533.00
M 173.00 552.00 
C 168.95 552.77 167.22 548.31 168.00 545.00
C 170.25 546.72 173.55 548.71 173.00 552.00
M 191.00 571.00 
C 182.32 578.80 178.13 561.47 178.00 557.00
C 183.69 560.91 181.93 571.26 191.00 571.00
M 191.00 568.00 
C 185.87 569.50 182.56 566.11 184.00 561.00
C 186.62 562.89 189.24 565.35 191.00 568.00
M 195.00 569.00 
C 195.68 576.75 188.03 568.87 195.00 569.00
M 214.00 589.00 
C 211.79 591.06 207.08 589.38 208.00 586.00
C 210.46 585.47 213.13 586.58 214.00 589.00 Z"/>
</g>
<g fill="#FDD5D6" fill-opacity="1.00" stroke="None">
<path d="
M 370.00 57.00 
C 378.41 53.50 386.51 50.16 395.00 47.00
C 396.09 46.35 397.55 45.42 399.00 45.00
C 407.14 42.66 415.59 42.48 424.00 41.00
C 425.30 40.77 427.11 40.08 429.00 40.00
C 433.97 39.80 439.03 39.90 444.00 40.00
C 446.44 40.05 449.27 40.82 451.00 41.00
C 452.65 40.90 454.34 41.00 456.00 41.00
C 444.10 36.31 428.73 41.03 416.00 38.00
C 417.03 33.73 411.17 34.55 409.00 36.00
C 409.71 38.97 413.28 37.30 415.00 39.00
C 407.89 46.09 397.68 37.60 390.00 41.00
C 391.94 43.81 397.69 39.87 399.00 44.00
C 386.65 43.45 379.40 50.81 370.00 57.00 Z"/>
</g>
<g fill="#FC0101" fill-opacity="1.00" stroke="None">
<path d="
M 424.00 41.00 
C 425.00 41.07 426.00 40.95 427.00 41.00
C 418.35 42.55 407.39 45.91 399.00 45.00
C 397.55 45.42 396.09 46.35 395.00 47.00
C 388.76 50.72 380.58 54.01 374.33 57.33 C 368.08 60.64 359.09 64.43 358.00 71.00
C 348.90 71.96 341.24 82.06 334.25 88.25 C 327.27 94.44 320.27 106.22 319.00 114.00
C 312.40 117.56 310.67 126.95 307.67 135.67 C 304.67 144.39 300.87 154.14 300.22 164.22 C 299.58 174.30 299.97 189.20 300.99 199.01 C 302.01 208.81 304.86 218.04 308.32 226.68 C 311.78 235.31 313.83 243.18 318.92 250.08 C 324.00 256.98 326.73 267.10 335.00 268.00
C 335.53 273.81 344.64 283.78 351.00 283.00
C 353.85 289.57 360.62 292.12 367.00 296.00
C 368.65 292.70 367.31 290.41 371.00 293.00
C 383.39 271.71 395.75 249.52 408.00 228.00
C 403.89 227.38 400.31 218.90 396.00 223.00
C 394.88 215.03 386.73 207.77 384.08 198.92 C 381.43 190.08 378.68 178.67 380.78 168.78 C 382.87 158.89 387.54 151.31 393.25 143.25 C 398.97 135.19 407.25 131.60 415.74 126.74 C 424.24 121.88 439.39 122.21 449.07 123.93 C 458.76 125.65 467.67 130.32 474.75 137.25 C 481.84 144.17 487.04 148.55 490.31 157.69 C 493.57 166.84 497.24 180.68 492.00 189.00
C 492.00 189.50 492.00 190.00 492.00 190.00
C 494.99 196.69 486.32 206.92 485.07 213.08 C 483.82 219.23 469.50 222.87 468.00 230.00
C 483.34 252.04 492.39 273.57 507.00 296.00
C 520.13 292.14 527.55 281.34 539.00 273.00
C 535.33 267.56 545.87 263.56 549.00 261.00
C 550.52 251.69 559.79 245.08 563.26 234.26 C 566.73 223.43 570.21 212.56 572.93 200.93 C 575.64 189.30 575.41 173.33 573.01 161.99 C 570.61 150.65 569.25 138.10 565.03 127.98 C 560.80 117.85 554.28 108.36 549.10 100.90 C 543.92 93.45 539.72 87.31 531.75 79.25 C 523.77 71.20 516.56 68.99 507.77 62.23 C 498.98 55.47 487.91 52.71 479.00 47.00
C 478.50 46.98 478.00 47.00 478.00 47.00
C 467.61 46.76 457.40 42.59 447.00 42.00
C 447.53 40.40 449.75 41.28 451.00 41.00
C 449.27 40.82 446.44 40.05 444.00 40.00
C 439.44 40.35 433.46 40.26 429.00 40.00
C 427.11 40.08 425.30 40.77 424.00 41.00 Z"/>
</g>
<g fill="#C2232B" fill-opacity="1.00" stroke="None">
<path d="
M 444.00 40.00 
C 439.03 39.90 433.97 39.80 429.00 40.00
C 433.46 40.26 439.44 40.35 444.00 40.00 Z"/>
</g>
<g fill="#C52E2C" fill-opacity="1.00" stroke="None">
<path d="
M 399.00 45.00 
C 407.39 45.91 418.35 42.55 427.00 41.00
C 426.00 40.95 425.00 41.07 424.00 41.00
C 415.59 42.48 407.14 42.66 399.00 45.00 Z"/>
</g>
<g fill="#CC312D" fill-opacity="1.00" stroke="None">
<path d="
M 478.00 47.00 
C 474.80 42.82 462.61 42.61 458.00 41.00
C 457.50 41.00 456.50 41.00 456.00 41.00
C 454.34 41.00 452.65 40.90 451.00 41.00
C 449.75 41.28 447.53 40.40 447.00 42.00
C 457.40 42.59 467.61 46.76 478.00 47.00 Z"/>
</g>
<g fill="#FDC1BD" fill-opacity="1.00" stroke="None">
<path d="
M 478.00 47.00 
C 478.00 47.00 478.50 46.98 479.00 47.00
C 481.63 47.10 483.58 48.17 486.00 49.00
C 476.66 44.54 469.37 41.00 458.00 41.00
C 462.61 42.61 474.80 42.82 478.00 47.00 Z"/>
</g>
<g fill="#D23834" fill-opacity="1.00" stroke="None">
<path d="
M 370.00 57.00 
C 351.32 64.78 339.66 82.45 325.00 96.00
C 314.88 110.61 306.78 127.86 302.00 145.00
C 286.00 204.69 314.30 271.94 369.00 301.00
C 370.03 298.02 372.71 295.62 374.00 293.00
C 384.99 270.78 398.98 249.82 411.00 228.00
C 385.31 214.96 374.38 180.25 388.00 155.00
C 393.28 145.43 402.91 132.88 414.00 130.00
C 426.89 123.62 443.20 121.74 457.00 128.00
C 458.38 128.62 459.65 129.31 461.00 130.00
C 468.90 134.05 475.65 138.80 481.00 146.00
C 482.64 148.20 484.63 150.57 486.00 153.00
C 489.54 159.28 491.51 166.79 492.00 174.00
C 492.73 178.05 492.88 181.98 492.00 186.00
C 492.00 187.00 492.00 188.00 492.00 189.00
C 497.24 180.68 493.57 166.84 490.31 157.69 C 487.04 148.55 481.84 144.17 474.75 137.25 C 467.67 130.32 458.76 125.65 449.07 123.93 C 439.39 122.21 424.24 121.88 415.74 126.74 C 407.25 131.60 398.97 135.19 393.25 143.25 C 387.54 151.31 382.87 158.89 380.78 168.78 C 378.68 178.67 381.43 190.08 384.08 198.92 C 386.73 207.77 394.88 215.03 396.00 223.00
C 400.31 218.90 403.89 227.38 408.00 228.00
C 395.75 249.52 383.39 271.71 371.00 293.00
C 367.31 290.41 368.65 292.70 367.00 296.00
C 360.62 292.12 353.85 289.57 351.00 283.00
C 344.64 283.78 335.53 273.81 335.00 268.00
C 326.73 267.10 324.00 256.98 318.92 250.08 C 313.83 243.18 311.78 235.31 308.32 226.68 C 304.86 218.04 302.01 208.81 300.99 199.01 C 299.97 189.20 299.58 174.30 300.22 164.22 C 300.87 154.14 304.67 144.39 307.67 135.67 C 310.67 126.95 312.40 117.56 319.00 114.00
C 320.27 106.22 327.27 94.44 334.25 88.25 C 341.24 82.06 348.90 71.96 358.00 71.00
C 359.09 64.43 368.08 60.64 374.33 57.33 C 380.58 54.01 388.76 50.72 395.00 47.00
C 386.51 50.16 378.41 53.50 370.00 57.00 Z"/>
</g>
<g fill="#D33934" fill-opacity="1.00" stroke="None">
<path d="
M 492.00 190.00 
C 487.85 197.58 486.58 206.50 481.00 214.00
C 477.78 218.33 472.86 223.82 468.00 226.00
C 467.14 226.39 465.82 226.28 465.00 227.00
C 464.29 232.32 473.42 240.50 475.25 245.75 C 477.07 251.01 483.26 258.85 486.03 263.97 C 488.79 269.10 492.44 277.65 496.23 281.77 C 500.02 285.89 502.12 298.18 507.31 299.64 C 512.49 301.11 520.08 291.26 524.75 288.75 C 529.42 286.25 535.23 279.45 539.25 275.25 C 543.26 271.05 548.42 264.15 552.25 259.25 C 556.07 254.35 558.85 248.97 562.00 243.00
C 578.74 211.31 580.90 171.02 570.00 137.00
C 557.20 97.07 525.98 62.68 486.00 49.00
C 483.58 48.17 481.63 47.10 479.00 47.00
C 487.91 52.71 498.98 55.47 507.77 62.23 C 516.56 68.99 523.77 71.20 531.75 79.25 C 539.72 87.31 543.92 93.45 549.10 100.90 C 554.28 108.36 560.80 117.85 565.03 127.98 C 569.25 138.10 570.61 150.65 573.01 161.99 C 575.41 173.33 575.64 189.30 572.93 200.93 C 570.21 212.56 566.73 223.43 563.26 234.26 C 559.79 245.08 550.52 251.69 549.00 261.00
C 545.87 263.56 535.33 267.56 539.00 273.00
C 527.55 281.34 520.13 292.14 507.00 296.00
C 492.39 273.57 483.34 252.04 468.00 230.00
C 469.50 222.87 483.82 219.23 485.07 213.08 C 486.32 206.92 494.99 196.69 492.00 190.00 Z"/>
</g>
<g fill="#E1F5E2" fill-opacity="1.00" stroke="None">
<path d="
M 339.00 68.00 
C 332.03 67.87 339.68 75.74 339.00 68.00 Z"/>
</g>
<g fill="#FED3D2" fill-opacity="1.00" stroke="None">
<path d="
M 302.00 145.00 
C 306.78 127.86 314.88 110.61 325.00 96.00
C 317.57 96.03 317.49 113.22 313.00 107.00
C 307.98 111.24 315.42 109.80 312.26 114.26 C 309.10 118.71 305.94 124.18 304.78 129.78 C 303.61 135.37 304.64 134.00 301.75 137.75 C 298.87 141.51 301.66 142.09 302.00 145.00 Z"/>
</g>
<g fill="#FECCCB" fill-opacity="1.00" stroke="None">
<path d="
M 414.00 130.00 
C 421.33 128.10 429.67 127.83 436.78 127.78 C 443.89 127.73 452.84 127.41 457.00 128.00
C 443.20 121.74 426.89 123.62 414.00 130.00 Z"/>
</g>
<g fill="#FDDADE" fill-opacity="1.00" stroke="None">
<path d="
M 481.00 146.00 
C 475.65 138.80 468.90 134.05 461.00 130.00
C 464.27 133.39 459.88 133.20 460.00 137.00
C 463.23 137.56 465.99 136.21 469.00 136.00
C 468.66 139.80 468.81 140.64 474.00 140.00
C 474.05 144.00 480.14 145.23 481.00 146.00 Z"/>
</g>
<g fill="#FED6D4" fill-opacity="1.00" stroke="None">
<path d="
M 562.00 243.00 
C 564.88 242.10 564.14 237.95 567.00 237.00
C 570.03 238.18 565.71 241.90 568.00 243.00
C 569.46 241.04 573.36 235.20 568.00 235.00
C 571.24 229.58 572.12 222.15 573.25 216.25 C 574.37 210.34 575.40 202.30 580.00 200.00
C 579.76 177.40 579.70 156.41 570.00 137.00
C 580.90 171.02 578.74 211.31 562.00 243.00 Z"/>
</g>
<g fill="#E4F7E4" fill-opacity="1.00" stroke="None">
<path d="
M 466.00 139.00 
C 463.99 136.78 459.01 137.83 458.00 141.00
C 460.42 142.06 464.14 140.96 466.00 139.00 Z"/>
</g>
<g fill="#FDD5D4" fill-opacity="1.00" stroke="None">
<path d="
M 465.00 227.00 
C 465.82 226.28 467.14 226.39 468.00 226.00
C 472.03 223.54 477.78 217.69 481.00 214.00
C 486.58 206.50 487.85 197.58 492.00 190.00
C 492.00 190.00 492.00 189.50 492.00 189.00
C 492.00 188.00 492.00 187.00 492.00 186.00
C 492.00 182.03 492.27 177.96 492.00 174.00
C 491.51 166.79 489.54 159.28 486.00 153.00
C 484.07 154.40 484.26 156.87 484.03 160.97 C 483.79 165.07 486.71 161.40 488.00 160.00
C 489.50 165.72 491.77 173.98 491.00 180.00 C 490.23 186.02 491.60 195.81 485.00 192.00
C 489.45 195.31 484.14 211.04 481.00 205.00
C 480.75 208.35 480.69 211.58 476.00 211.00
C 480.89 218.29 465.78 221.18 465.00 227.00 Z"/>
</g>
<g fill="#FECECD" fill-opacity="1.00" stroke="None">
<path d="
M 374.00 293.00 
C 381.37 288.86 382.37 274.93 388.00 275.00
C 390.62 264.06 398.47 252.14 405.00 243.00
C 406.60 240.77 407.74 238.63 409.00 236.00
C 411.21 233.19 411.09 229.22 412.00 226.00
C 402.73 221.13 393.07 214.47 392.00 203.00
C 380.04 192.05 384.66 168.66 388.00 155.00
C 374.38 180.25 385.31 214.96 411.00 228.00
C 398.98 249.82 384.99 270.78 374.00 293.00 Z"/>
</g>
<g fill="#F86D73" fill-opacity="1.00" stroke="None">
<path d="
M 492.00 186.00 
C 492.88 181.98 492.73 178.05 492.00 174.00
C 492.27 177.96 492.00 182.03 492.00 186.00 Z"/>
</g>
<g fill="#FCE8F3" fill-opacity="1.00" stroke="None">
<path d="
M 295.00 192.00 
C 296.31 187.63 296.94 180.17 296.00 176.00
C 292.48 179.40 293.68 187.70 295.00 192.00 Z"/>
</g>
<g fill="#E97E7F" fill-opacity="1.00" stroke="None">
<path d="
M 468.00 226.00 
C 472.86 223.82 477.78 218.33 481.00 214.00
C 477.78 217.69 472.03 223.54 468.00 226.00 Z"/>
</g>
<g fill="#F8EAF7" fill-opacity="1.00" stroke="None">
<path d="
M 409.00 236.00 
C 407.74 238.63 406.60 240.77 405.00 243.00
C 405.48 244.73 407.05 242.31 408.00 244.00
C 408.92 241.73 410.07 239.52 410.00 237.00
C 413.07 237.28 417.46 237.44 416.00 233.00
C 413.33 232.50 410.67 234.02 409.00 236.00 Z"/>
</g>
<g fill="#EEFEF2" fill-opacity="1.00" stroke="None">
<path d="
M 414.00 239.00 
C 408.61 237.85 408.60 247.26 412.00 249.00
C 413.25 245.81 414.21 242.56 414.00 239.00 Z"/>
</g>
<g fill="#F7E6F1" fill-opacity="1.00" stroke="None">
<path d="
M 318.00 254.00 
C 312.64 253.07 311.41 244.30 307.00 241.00
C 307.11 246.53 311.49 260.13 318.00 254.00 Z"/>
</g>
<g fill="#FCEAFA" fill-opacity="1.00" stroke="None">
<path d="
M 356.00 301.00 
C 366.89 302.65 357.31 292.28 356.00 301.00 Z"/>
</g>
<g fill="#C0FDBE" fill-opacity="1.00" stroke="None">
<path d="
M 206.00 336.00 
C 203.56 337.83 200.71 340.25 198.00 342.00
C 191.89 345.94 186.57 350.38 182.00 356.00
C 175.19 364.37 166.02 372.37 160.00 382.00
C 157.15 388.16 154.09 393.47 152.00 400.00
C 144.59 423.13 138.56 444.99 141.00 471.00
C 141.71 478.58 143.43 486.21 146.00 493.00
C 138.08 445.19 144.33 395.53 179.25 360.25 C 214.17 324.96 257.98 310.88 306.00 319.00
C 312.54 319.25 324.98 321.61 330.22 324.78 C 335.47 327.94 349.69 328.89 350.00 336.00
C 350.15 339.41 346.32 341.59 346.00 345.00
C 350.67 337.69 353.60 331.64 344.10 328.90 C 334.59 326.16 332.77 322.63 324.22 319.78 C 315.68 316.93 308.49 317.04 300.01 314.99 C 291.52 312.94 280.11 313.75 271.67 314.67 C 263.23 315.59 253.87 315.64 246.22 318.22 C 238.57 320.80 231.17 321.61 224.25 325.25 C 217.32 328.88 212.27 331.29 206.00 336.00 Z"/>
</g>
<g fill="#45E645" fill-opacity="1.00" stroke="None">
<path d="
M 146.00 493.00 
C 147.38 496.66 148.68 500.35 150.00 504.00
C 162.83 529.95 178.55 550.05 201.00 570.00
C 227.18 593.27 264.67 594.97 299.00 595.00
C 299.50 595.00 300.00 595.00 300.00 595.00
C 303.85 592.15 314.83 590.67 320.00 590.00
C 330.30 587.00 340.47 580.72 350.00 576.00
C 338.63 579.64 329.32 584.17 318.00 588.00 C 306.68 591.83 292.74 593.15 281.00 593.00 C 269.25 592.85 251.96 591.90 242.33 587.67 C 232.70 583.44 222.76 581.21 213.25 574.75 C 203.75 568.29 191.42 566.37 192.00 554.00
C 189.42 559.86 176.16 548.92 183.00 544.00
C 180.51 545.53 178.37 543.40 176.00 545.00
C 172.97 536.84 164.05 532.18 164.00 523.00
C 156.57 516.23 152.32 505.00 149.02 493.98 C 145.73 482.95 142.68 468.12 143.00 456.00 C 143.32 443.88 145.17 427.93 148.00 417.00 C 150.83 406.07 157.22 397.28 162.25 387.25 C 167.29 377.22 173.25 368.49 180.77 360.77 C 188.29 353.05 195.97 347.90 203.25 342.81 C 210.53 337.72 219.66 331.85 230.25 328.25 C 240.83 324.65 253.14 320.35 265.07 319.07 C 277.00 317.79 293.03 318.22 306.00 319.00
C 257.98 310.88 214.17 324.96 179.25 360.25 C 144.33 395.53 138.08 445.19 146.00 493.00 Z"/>
</g>
<g fill="#0FFC0E" fill-opacity="1.00" stroke="None">
<path d="
M 350.00 576.00 
C 355.44 574.26 360.16 569.85 364.75 566.75 C 369.34 563.65 374.46 559.00 378.25 555.25 C 382.04 551.50 386.46 545.41 389.75 542.75 C 393.05 540.09 397.71 528.44 400.00 530.00
C 400.34 530.23 401.00 530.00 401.00 530.00
C 404.27 520.84 410.50 514.21 413.68 504.68 C 416.86 495.14 418.62 483.89 421.00 474.00
C 421.39 470.71 420.74 467.30 421.00 464.00
C 420.42 458.01 419.18 452.88 412.00 454.00 C 404.82 455.12 399.48 453.29 393.00 454.00 C 386.52 454.71 379.89 453.23 374.00 454.00 C 368.11 454.77 359.99 452.65 355.00 454.00 C 350.01 455.35 338.94 450.84 336.00 455.00
C 334.49 458.04 335.77 464.50 335.00 468.00
C 333.64 474.12 331.07 480.56 327.75 485.75 C 324.42 490.94 320.86 495.28 315.75 498.75 C 310.64 502.22 305.36 506.86 303.00 505.00
C 302.02 505.14 300.98 504.87 300.00 505.00
C 290.85 506.21 277.43 511.81 268.02 507.98 C 258.62 504.14 251.69 500.93 244.75 494.25 C 237.82 487.56 234.23 480.53 231.00 472.00
C 227.31 462.26 226.86 450.40 230.00 440.00
C 225.01 446.12 227.83 456.36 227.00 464.00
C 220.98 437.04 240.34 408.09 267.00 402.00
C 276.44 400.83 287.07 399.58 295.00 404.00
C 301.28 407.50 311.52 411.95 314.00 402.00
C 313.07 404.07 309.65 407.45 307.00 407.00
C 323.55 385.21 334.49 358.66 350.00 336.00
C 349.69 328.89 335.47 327.94 330.22 324.78 C 324.98 321.61 312.54 319.25 306.00 319.00
C 293.03 318.22 277.00 317.79 265.07 319.07 C 253.14 320.35 240.83 324.65 230.25 328.25 C 219.66 331.85 210.53 337.72 203.25 342.81 C 195.97 347.90 188.29 353.05 180.77 360.77 C 173.25 368.49 167.29 377.22 162.25 387.25 C 157.22 397.28 150.83 406.07 148.00 417.00 C 145.17 427.93 143.32 443.88 143.00 456.00 C 142.68 468.12 145.73 482.95 149.02 493.98 C 152.32 505.00 156.57 516.23 164.00 523.00
C 164.05 532.18 172.97 536.84 176.00 545.00
C 178.37 543.40 180.51 545.53 183.00 544.00
C 176.16 548.92 189.42 559.86 192.00 554.00
C 191.42 566.37 203.75 568.29 213.25 574.75 C 222.76 581.21 232.70 583.44 242.33 587.67 C 251.96 591.90 269.25 592.85 281.00 593.00 C 292.74 593.15 306.68 591.83 318.00 588.00 C 329.32 584.17 338.63 579.64 350.00 576.00 Z"/>
</g>
<g fill="#DBDEFB" fill-opacity="1.00" stroke="None">
<path d="
M 647.00 362.00 
C 651.86 353.10 656.08 348.67 660.92 338.92 C 665.75 329.16 675.72 341.17 682.25 345.75 C 688.78 350.34 696.89 357.15 701.92 364.08 C 706.94 371.01 713.96 378.71 718.00 386.00
C 718.91 383.63 716.46 380.51 718.00 377.00
C 712.35 377.87 716.07 375.18 716.00 372.00
C 707.49 374.19 712.00 359.38 703.00 363.00
C 702.70 358.19 698.41 359.19 700.00 352.00
C 693.63 354.43 688.30 347.57 688.00 342.00
C 686.37 344.88 682.65 343.98 686.00 341.00
C 683.68 340.65 681.16 338.99 679.00 341.00
C 673.60 333.30 663.03 328.64 658.92 338.92 C 654.81 349.19 649.70 351.45 647.00 362.00 Z"/>
</g>
<g fill="#0103FA" fill-opacity="1.00" stroke="None">
<path d="
M 521.00 337.00 
C 507.54 349.56 495.26 358.48 484.08 375.08 C 472.90 391.69 466.89 407.49 461.01 427.01 C 455.12 446.53 463.05 474.85 462.00 494.00
C 462.38 495.49 462.11 494.95 463.00 496.00
C 472.31 507.03 473.70 521.14 481.78 531.22 C 489.85 541.31 497.87 553.14 509.25 560.75 C 520.63 568.37 530.27 577.86 544.68 582.32 C 559.09 586.78 574.98 591.67 591.01 591.99 C 607.03 592.31 623.66 589.70 637.22 585.22 C 650.79 580.75 662.68 576.01 673.25 568.25 C 683.81 560.48 696.71 550.89 701.00 539.00
C 711.38 536.11 715.18 522.72 717.00 513.00
C 720.56 517.97 723.50 506.79 725.33 501.33 C 727.16 495.87 730.35 487.33 730.98 480.98 C 731.60 474.62 733.31 466.74 733.00 459.00 C 732.69 451.26 733.21 441.40 732.00 434.00 C 730.79 426.60 727.17 419.81 729.00 413.00
C 727.53 408.58 725.65 404.37 724.00 400.00
C 722.56 396.19 720.68 392.73 719.00 389.00
C 718.50 387.88 718.18 387.21 718.00 386.00
C 713.96 378.71 706.94 371.01 701.92 364.08 C 696.89 357.15 688.78 350.34 682.25 345.75 C 675.72 341.17 665.75 329.16 660.92 338.92 C 656.08 348.67 651.86 353.10 647.00 362.00
C 645.08 369.53 636.95 377.65 634.77 384.77 C 632.59 391.89 620.89 400.14 624.00 407.00
C 627.08 412.23 636.34 415.00 640.00 421.00
C 640.37 421.61 640.63 422.45 641.00 423.00
C 658.05 447.90 652.24 485.16 625.00 501.00
C 618.13 505.00 611.41 508.71 603.00 509.00
C 598.39 509.83 593.54 509.81 589.00 509.00
C 564.50 507.33 546.07 487.04 542.00 464.00
C 541.77 462.70 541.08 460.89 541.00 459.00
C 540.55 455.89 540.50 453.07 541.00 450.00
C 541.50 440.85 544.68 433.58 549.00 426.00
C 552.42 417.87 560.71 411.70 568.00 407.00
C 567.06 405.38 566.42 403.78 566.00 402.00
C 564.72 399.59 562.42 396.50 561.00 394.00
C 549.08 374.43 537.72 353.96 526.00 334.00
C 524.08 334.57 522.50 336.06 521.00 337.00 Z"/>
</g>
<g fill="#E8FBE5" fill-opacity="1.00" stroke="None">
<path d="
M 198.00 342.00 
C 200.71 340.25 203.56 337.83 206.00 336.00
C 202.40 337.52 199.03 335.27 195.00 336.00
C 195.28 339.25 200.58 336.63 200.00 340.00
C 198.81 339.97 198.62 341.38 198.00 342.00 Z"/>
</g>
<g fill="#90F790" fill-opacity="1.00" stroke="None">
<path d="
M 314.00 402.00 
C 314.39 400.44 314.32 399.48 315.00 398.00
C 323.28 379.90 335.52 362.37 346.00 346.00
C 346.00 346.00 345.95 345.50 346.00 345.00
C 346.32 341.59 350.15 339.41 350.00 336.00
C 334.49 358.66 323.55 385.21 307.00 407.00
C 309.65 407.45 313.07 404.07 314.00 402.00 Z"/>
</g>
<g fill="#1924BE" fill-opacity="1.00" stroke="None">
<path d="
M 502.00 351.00 
C 498.53 354.47 494.16 358.38 491.00 362.00
C 482.45 373.84 473.18 385.31 468.00 399.00
C 462.77 412.83 457.88 426.94 457.00 442.00
C 456.88 443.98 457.00 446.01 457.00 448.00
C 457.00 453.33 457.00 458.67 457.00 464.00
C 457.00 474.71 459.45 483.99 462.00 494.00
C 463.05 474.85 455.12 446.53 461.01 427.01 C 466.89 407.49 472.90 391.69 484.08 375.08 C 495.26 358.48 507.54 349.56 521.00 337.00
C 514.37 341.15 508.72 346.91 502.00 351.00 Z"/>
</g>
<g fill="#D7FCD7" fill-opacity="1.00" stroke="None">
<path d="
M 315.00 398.00 
C 317.78 394.00 325.16 388.91 326.29 382.29 C 327.43 375.68 332.93 370.29 336.08 364.08 C 339.23 357.86 344.40 353.28 346.00 346.00
C 335.52 362.37 323.28 379.90 315.00 398.00 Z"/>
</g>
<g fill="#E8E5F8" fill-opacity="1.00" stroke="None">
<path d="
M 494.00 358.00 
C 495.80 356.12 498.15 353.72 500.00 352.00
C 497.05 350.26 501.53 346.98 496.00 347.00
C 497.60 350.95 490.77 359.47 494.00 358.00 Z"/>
</g>
<g fill="#A8A7F4" fill-opacity="1.00" stroke="None">
<path d="
M 500.00 352.00 
C 498.15 353.72 495.80 356.12 494.00 358.00
C 492.97 359.07 491.91 360.74 491.00 362.00
C 494.16 358.38 498.53 354.47 502.00 351.00
C 501.41 351.36 500.55 351.49 500.00 352.00 Z"/>
</g>
<g fill="#E9F5E7" fill-opacity="1.00" stroke="None">
<path d="
M 160.00 382.00 
C 166.02 372.37 175.19 364.37 182.00 356.00
C 180.19 357.56 176.96 357.09 178.00 354.00
C 172.78 354.17 168.02 354.42 164.00 359.00
C 167.16 362.05 173.13 356.27 176.00 361.00
C 169.27 366.11 163.56 374.30 160.00 382.00 Z"/>
</g>
<g fill="#CCD2FD" fill-opacity="1.00" stroke="None">
<path d="
M 724.00 400.00 
C 723.18 394.83 722.64 393.23 719.00 389.00
C 720.68 392.73 722.56 396.19 724.00 400.00 Z"/>
</g>
<g fill="#D0D7FC" fill-opacity="1.00" stroke="None">
<path d="
M 566.00 402.00 
C 565.19 398.54 563.82 397.02 561.00 394.00
C 562.42 396.50 564.72 399.59 566.00 402.00 Z"/>
</g>
<g fill="#D3D5FD" fill-opacity="1.00" stroke="None">
<path d="
M 457.00 442.00 
C 457.88 426.94 462.77 412.83 468.00 399.00
C 460.87 401.37 462.91 411.87 459.97 416.97 C 457.03 422.07 459.14 434.87 453.00 429.00
C 453.38 431.20 451.79 440.51 455.00 436.00
C 453.55 438.43 456.72 440.47 457.00 442.00 Z"/>
</g>
<g fill="#DDFBDF" fill-opacity="1.00" stroke="None">
<path d="
M 141.00 471.00 
C 138.56 444.99 144.59 423.13 152.00 400.00
C 141.86 420.96 135.84 446.51 141.00 471.00 Z"/>
</g>
<g fill="#D9FDD5" fill-opacity="1.00" stroke="None">
<path d="
M 267.00 402.00 
C 254.50 404.59 230.40 422.01 231.00 437.00
C 233.95 431.28 236.62 422.16 244.00 421.00
C 246.57 411.99 256.17 409.92 263.77 405.77 C 271.37 401.62 285.98 402.13 295.00 404.00
C 287.07 399.58 276.44 400.83 267.00 402.00 Z"/>
</g>
<g fill="#9DFB9B" fill-opacity="1.00" stroke="None">
<path d="
M 230.00 440.00 
C 230.23 439.72 230.89 439.26 231.00 439.00
C 231.05 438.51 231.02 437.50 231.00 437.00
C 230.40 422.01 254.50 404.59 267.00 402.00
C 240.34 408.09 220.98 437.04 227.00 464.00
C 227.83 456.36 225.01 446.12 230.00 440.00 Z"/>
</g>
<g fill="#FBE5F2" fill-opacity="1.00" stroke="None">
<path d="
M 320.00 406.00 
C 320.23 397.72 311.75 406.30 320.00 406.00 Z"/>
</g>
<g fill="#ADB1FA" fill-opacity="1.00" stroke="None">
<path d="
M 626.00 410.00 
C 630.14 413.56 635.91 416.62 640.00 421.00
C 636.34 415.00 627.08 412.23 624.00 407.00
C 624.38 407.85 625.28 409.38 626.00 410.00 Z"/>
</g>
<g fill="#E6E7FB" fill-opacity="1.00" stroke="None">
<path d="
M 641.00 423.00 
C 640.63 422.45 640.37 421.61 640.00 421.00
C 635.91 416.62 630.14 413.56 626.00 410.00
C 625.39 414.90 628.63 423.30 632.00 415.00
C 635.64 417.34 634.88 419.71 637.00 423.00
C 637.31 421.40 641.14 422.82 641.00 423.00 Z"/>
</g>
<g fill="#1B27C3" fill-opacity="1.00" stroke="None">
<path d="
M 463.00 496.00 
C 463.58 497.44 463.49 499.45 464.00 501.00
C 476.36 538.73 512.72 576.01 551.00 587.00
C 561.41 589.99 573.47 592.98 584.00 594.00
C 599.24 592.96 616.79 594.15 630.78 589.78 C 644.77 585.40 654.10 581.03 667.00 575.00
C 670.20 573.12 673.75 570.23 677.00 568.00
C 706.28 547.91 726.57 514.32 733.00 481.00
C 734.05 475.58 734.57 469.46 735.00 464.00
C 736.39 446.43 734.30 428.90 729.00 413.00
C 727.17 419.81 730.79 426.60 732.00 434.00 C 733.21 441.40 732.69 451.26 733.00 459.00 C 733.31 466.74 731.60 474.62 730.98 480.98 C 730.35 487.33 727.16 495.87 725.33 501.33 C 723.50 506.79 720.56 517.97 717.00 513.00
C 715.18 522.72 711.38 536.11 701.00 539.00
C 696.71 550.89 683.81 560.48 673.25 568.25 C 662.68 576.01 650.79 580.75 637.22 585.22 C 623.66 589.70 607.03 592.31 591.01 591.99 C 574.98 591.67 559.09 586.78 544.68 582.32 C 530.27 577.86 520.63 568.37 509.25 560.75 C 497.87 553.14 489.85 541.31 481.78 531.22 C 473.70 521.14 472.31 507.03 463.00 496.00 Z"/>
</g>
<g fill="#DEDDFD" fill-opacity="1.00" stroke="None">
<path d="
M 541.00 450.00 
C 540.84 452.95 540.88 456.04 541.00 459.00
C 541.08 460.89 541.77 462.70 542.00 464.00
C 542.40 450.55 545.52 437.81 549.00 426.00
C 544.68 433.58 541.50 440.85 541.00 450.00 Z"/>
</g>
<g fill="#F3E8FB" fill-opacity="1.00" stroke="None">
<path d="
M 135.00 431.00 
C 130.58 430.60 130.39 441.24 135.00 440.00
C 135.00 437.00 135.00 434.00 135.00 431.00 Z"/>
</g>
<g fill="#E7F8E9" fill-opacity="1.00" stroke="None">
<path d="
M 230.00 440.00 
C 226.86 450.40 227.31 462.26 231.00 472.00
C 230.24 468.61 231.76 466.28 233.00 464.00
C 228.94 463.09 227.43 449.45 231.00 456.00
C 230.76 451.86 233.65 448.84 234.00 445.00
C 230.85 444.38 230.71 441.78 231.00 439.00
C 230.89 439.26 230.23 439.72 230.00 440.00 Z"/>
</g>
<g fill="#DFFADF" fill-opacity="1.00" stroke="None">
<path d="
M 332.00 472.00 
C 332.73 471.03 334.60 469.06 335.00 468.00
C 335.77 464.50 334.49 458.04 336.00 455.00
C 338.91 449.11 352.23 454.46 359.00 453.00 C 365.77 451.54 375.73 453.93 384.00 453.00 C 392.27 452.07 399.28 454.01 409.00 453.00 C 418.72 451.99 421.81 453.83 421.00 464.00
C 420.74 467.30 421.39 470.71 421.00 474.00
C 423.37 469.11 420.82 461.60 425.00 457.00
C 414.23 449.10 397.68 451.06 384.00 451.00 C 370.33 450.95 355.26 452.61 342.00 451.00
C 344.85 449.57 342.80 447.44 340.00 448.00
C 340.63 453.29 334.00 452.89 332.32 457.32 C 330.64 461.75 332.00 466.95 332.00 472.00 Z"/>
</g>
<g fill="#DFF8E8" fill-opacity="1.00" stroke="None">
<path d="
M 426.00 449.00 
C 424.43 447.28 419.64 447.50 418.00 449.00
C 419.57 450.72 424.36 450.50 426.00 449.00 Z"/>
</g>
<g fill="#DEDDFD" fill-opacity="1.00" stroke="None">
<path d="
M 464.00 501.00 
C 463.49 499.45 463.58 497.44 463.00 496.00
C 462.11 494.95 462.38 495.49 462.00 494.00
C 459.45 483.99 457.00 474.71 457.00 464.00
C 456.55 459.32 455.51 453.39 456.00 448.00
C 453.16 457.73 457.15 470.97 453.00 480.00
C 459.64 478.22 456.00 486.11 457.29 488.71 C 458.59 491.30 461.64 495.75 460.00 500.00
C 461.44 501.36 462.65 499.61 464.00 501.00 Z"/>
</g>
<g fill="#7170EC" fill-opacity="1.00" stroke="None">
<path d="
M 457.00 464.00 
C 457.00 458.67 457.00 453.33 457.00 448.00
C 457.00 448.00 456.26 447.75 456.00 448.00
C 455.51 453.39 456.55 459.32 457.00 464.00 Z"/>
</g>
<g fill="#6668E1" fill-opacity="1.00" stroke="None">
<path d="
M 541.00 459.00 
C 540.88 456.04 540.84 452.95 541.00 450.00
C 540.50 453.07 540.55 455.89 541.00 459.00 Z"/>
</g>
<g fill="#B2FCB2" fill-opacity="1.00" stroke="None">
<path d="
M 336.00 455.00 
C 338.94 450.84 350.01 455.35 355.00 454.00 C 359.99 452.65 368.11 454.77 374.00 454.00 C 379.89 453.23 386.52 454.71 393.00 454.00 C 399.48 453.29 404.82 455.12 412.00 454.00 C 419.18 452.88 420.42 458.01 421.00 464.00
C 421.81 453.83 418.72 451.99 409.00 453.00 C 399.28 454.01 392.27 452.07 384.00 453.00 C 375.73 453.93 365.77 451.54 359.00 453.00 C 352.23 454.46 338.91 449.11 336.00 455.00 Z"/>
</g>
<g fill="#D2D3FD" fill-opacity="1.00" stroke="None">
<path d="
M 735.00 464.00 
C 734.57 469.46 734.05 475.58 733.00 481.00
C 737.72 475.73 737.00 467.20 737.00 460.00
C 736.09 460.78 735.32 463.00 735.00 464.00 Z"/>
</g>
<g fill="#9DF99E" fill-opacity="1.00" stroke="None">
<path d="
M 332.00 472.00 
C 332.00 472.00 332.11 472.53 332.00 473.00
C 329.29 484.57 315.94 503.11 303.00 505.00
C 305.36 506.86 310.64 502.22 315.75 498.75 C 320.86 495.28 324.42 490.94 327.75 485.75 C 331.07 480.56 333.64 474.12 335.00 468.00
C 334.60 469.06 332.73 471.03 332.00 472.00 Z"/>
</g>
<g fill="#E2F9E4" fill-opacity="1.00" stroke="None">
<path d="
M 300.00 505.00 
C 300.98 504.87 302.02 505.14 303.00 505.00
C 315.94 503.11 329.29 484.57 332.00 473.00
C 330.97 473.12 330.41 474.17 330.00 475.00
C 328.05 473.80 328.89 470.26 327.00 469.00
C 326.68 476.69 328.42 492.24 316.00 490.00
C 315.59 501.18 307.31 498.54 300.00 500.00
C 301.51 503.38 304.26 502.41 300.00 505.00 Z"/>
</g>
<g fill="#F9E6F7" fill-opacity="1.00" stroke="None">
<path d="
M 324.00 470.00 
C 320.88 471.56 320.93 478.41 324.00 480.00
C 326.28 476.89 324.18 473.27 324.00 470.00 Z"/>
</g>
<g fill="#E1F6E2" fill-opacity="1.00" stroke="None">
<path d="
M 425.00 480.00 
C 419.88 479.19 423.11 484.46 423.00 487.00
C 424.65 485.40 425.08 482.44 425.00 480.00 Z"/>
</g>
<g fill="#DBDBFD" fill-opacity="1.00" stroke="None">
<path d="
M 600.00 509.00 
C 601.00 509.00 602.00 509.03 603.00 509.00
C 611.41 508.71 618.13 505.00 625.00 501.00
C 616.78 502.70 609.02 506.58 600.00 506.00
C 600.48 507.16 601.11 507.94 600.00 509.00 Z"/>
</g>
<g fill="#93F793" fill-opacity="1.00" stroke="None">
<path d="
M 201.00 570.00 
C 178.55 550.05 162.83 529.95 150.00 504.00
C 159.60 530.68 177.10 553.27 201.00 570.00 Z"/>
</g>
<g fill="#A0A6F6" fill-opacity="1.00" stroke="None">
<path d="
M 603.00 509.00 
C 602.00 509.03 601.00 509.00 600.00 509.00
C 596.36 509.00 592.63 509.25 589.00 509.00
C 593.54 509.81 598.39 509.83 603.00 509.00 Z"/>
</g>
<g fill="#A1FAA2" fill-opacity="1.00" stroke="None">
<path d="
M 350.00 576.00 
C 340.47 580.72 330.30 587.00 320.00 590.00
C 329.20 588.80 336.29 583.61 345.00 581.00
C 350.95 577.99 356.59 572.31 363.00 570.00
C 363.00 570.00 363.64 570.22 364.00 570.00
C 373.75 556.05 394.32 547.40 400.00 530.00
C 397.71 528.44 393.05 540.09 389.75 542.75 C 386.46 545.41 382.04 551.50 378.25 555.25 C 374.46 559.00 369.34 563.65 364.75 566.75 C 360.16 569.85 355.44 574.26 350.00 576.00 Z"/>
</g>
<g fill="#DEFCE0" fill-opacity="1.00" stroke="None">
<path d="
M 364.00 570.00 
C 371.62 566.87 377.19 557.88 383.25 553.25 C 389.30 548.62 394.78 535.03 400.00 540.00
C 399.68 536.51 400.13 533.17 401.00 530.00
C 401.00 530.00 400.34 530.23 400.00 530.00
C 394.32 547.40 373.75 556.05 364.00 570.00 Z"/>
</g>
<g fill="#F1E7FB" fill-opacity="1.00" stroke="None">
<path d="
M 717.00 533.00 
C 714.46 534.39 712.71 537.37 712.00 540.00
C 717.77 541.40 716.42 536.15 717.00 533.00 Z"/>
</g>
<g fill="#F8E5F7" fill-opacity="1.00" stroke="None">
<path d="
M 173.00 552.00 
C 173.55 548.71 170.25 546.72 168.00 545.00
C 167.22 548.31 168.95 552.77 173.00 552.00 Z"/>
</g>
<g fill="#E8F2E3" fill-opacity="1.00" stroke="None">
<path d="
M 191.00 571.00 
C 181.93 571.26 183.69 560.91 178.00 557.00
C 178.13 561.47 182.32 578.80 191.00 571.00 Z"/>
</g>
<g fill="#F7E5F8" fill-opacity="1.00" stroke="None">
<path d="
M 191.00 568.00 
C 189.24 565.35 186.62 562.89 184.00 561.00
C 182.56 566.11 185.87 569.50 191.00 568.00 Z"/>
</g>
<g fill="#A5A6F8" fill-opacity="1.00" stroke="None">
<path d="
M 667.00 575.00 
C 671.07 573.10 673.71 570.84 677.00 568.00
C 673.75 570.23 670.20 573.12 667.00 575.00 Z"/>
</g>
<g fill="#F9E3F5" fill-opacity="1.00" stroke="None">
<path d="
M 195.00 569.00 
C 188.03 568.87 195.68 576.75 195.00 569.00 Z"/>
</g>
<g fill="#DAF8DD" fill-opacity="1.00" stroke="None">
<path d="
M 345.00 581.00 
C 353.82 578.36 357.17 575.47 363.00 570.00
C 356.59 572.31 350.95 577.99 345.00 581.00 Z"/>
</g>
<g fill="#F5E5F9" fill-opacity="1.00" stroke="None">
<path d="
M 214.00 589.00 
C 213.13 586.58 210.46 585.47 208.00 586.00
C 207.08 589.38 211.79 591.06 214.00 589.00 Z"/>
</g>
<g fill="#D9D8FB" fill-opacity="1.00" stroke="None">
<path d="
M 584.00 594.00 
C 573.47 592.98 561.41 589.99 551.00 587.00
C 552.62 591.08 563.37 591.17 566.92 593.08 C 570.48 594.99 582.07 602.02 577.00 595.00
C 579.51 594.70 581.45 594.17 584.00 594.00 Z"/>
</g>
<g fill="#E5F5E8" fill-opacity="1.00" stroke="None">
<path d="
M 300.00 595.00 
C 300.00 595.00 299.50 595.00 299.00 595.00
C 294.59 600.31 283.30 593.60 280.00 599.00
C 286.27 600.95 293.34 599.61 300.00 600.00
C 295.30 593.05 309.73 598.74 312.00 593.00
C 308.02 594.55 304.56 595.00 300.00 595.00 Z"/>
</g>
</svg>