<svg xmlns="http://www.w3.org/2000/svg" xmlns:v="https://svgstorm.com"
viewBox = "0 0 512 512"
width="512"
height="512">
<g fill="None" fill-opacity="0.0" stroke="#FDFCFD" stroke-opacity="1.00" stroke-width="0.3"><path d="
M 0.00 138.00 
C 4.47 67.09 67.17 4.46 138.00 0.00
L 0.00 0.00
L 0.00 138.00 Z"/>
</g>
<g fill="None" fill-opacity="0.0" stroke="#4B2D6D" stroke-opacity="1.00" stroke-width="0.3"><path d="
M 0.00 138.00 
L 0.00 371.00
C 1.91 373.12 0.73 377.13 1.00 380.00
C 7.51 449.33 70.38 507.71 139.00 512.00
L 370.00 512.00
C 372.12 510.12 376.13 511.23 379.00 511.00
C 445.61 505.71 505.71 445.63 511.00 379.00
C 511.23 376.13 510.04 372.04 512.00 370.00
L 512.00 139.00
C 507.75 67.14 444.06 3.28 372.00 0.00
L 138.00 0.00
C 67.17 4.46 4.47 67.09 0.00 138.00
M 250.00 81.00 
C 265.07 85.57 251.25 104.51 239.98 101.98 C 228.70 99.45 215.59 108.00 205.32 110.32 C 195.06 112.65 185.90 120.06 176.77 124.77 C 167.64 129.48 160.55 136.86 152.75 143.75 C 144.96 150.65 138.55 158.41 132.75 166.75 C 126.94 175.08 121.23 184.74 117.08 194.08 C 112.92 203.41 108.30 217.24 107.00 227.00 C 105.71 236.76 104.85 258.17 90.93 253.07 C 77.01 247.98 87.01 230.78 87.78 220.78 C 88.55 210.77 94.08 197.45 97.92 187.92 C 101.77 178.40 107.17 168.42 112.92 159.92 C 118.67 151.41 124.63 143.48 132.25 136.25 C 139.87 129.01 146.04 121.32 154.75 115.75 C 163.45 110.17 171.42 103.24 181.23 99.23 C 191.04 95.22 201.36 88.72 212.07 87.07 C 222.79 85.43 238.63 77.55 250.00 81.00
M 250.00 121.00 
C 266.00 125.86 249.90 144.15 238.99 141.99 C 228.09 139.83 215.95 150.03 206.31 153.31 C 196.66 156.58 188.55 165.02 180.75 171.75 C 172.95 178.49 165.99 187.24 160.75 195.75 C 155.50 204.25 149.59 216.88 147.22 226.22 C 144.86 235.57 144.86 257.75 130.78 253.22 C 116.70 248.69 126.61 229.77 127.99 219.99 C 129.37 210.22 136.32 198.15 141.25 189.25 C 146.19 180.36 152.68 171.55 159.75 163.75 C 166.83 155.96 175.00 149.40 183.70 143.70 C 192.40 138.00 202.27 131.30 212.68 128.68 C 223.09 126.06 238.38 117.47 250.00 121.00
M 270.00 395.00 
C 264.96 395.49 258.97 395.48 254.00 395.00
C 188.35 395.00 128.99 336.40 124.00 272.00
C 140.08 270.70 157.01 273.73 173.00 272.00 C 188.99 270.27 186.59 289.57 194.30 299.70 C 202.01 309.82 207.56 317.80 218.75 324.25 C 229.93 330.71 242.44 336.42 256.00 336.00
C 259.66 336.00 263.34 336.07 267.00 336.00
C 273.72 335.87 279.60 334.33 286.00 333.00
C 279.60 322.17 266.38 314.80 260.00 304.00
C 260.41 299.12 270.28 294.46 273.25 290.25 C 276.22 286.03 282.63 280.42 286.75 276.75 C 290.87 273.09 295.88 265.14 301.00 263.00
C 307.18 265.57 310.85 273.76 316.25 277.75 C 321.64 281.74 326.27 288.40 331.00 293.00
C 356.89 249.29 324.50 187.63 275.00 180.00
C 275.00 160.33 275.00 140.67 275.00 121.00
C 321.34 125.69 360.89 152.38 383.31 194.70 C 405.72 237.01 403.31 296.93 375.00 337.00
C 383.83 344.34 391.22 353.71 400.00 361.00
C 388.40 376.41 371.73 389.12 359.00 404.00
C 350.57 395.85 345.01 391.35 336.75 382.25 C 328.49 373.15 318.62 384.78 307.77 387.77 C 296.92 390.77 282.18 395.74 270.00 395.00
M 250.00 161.00 
C 264.46 165.39 252.12 182.47 241.93 181.93 C 231.73 181.39 222.06 189.29 213.92 194.92 C 205.78 200.55 200.28 207.35 194.25 216.25 C 188.21 225.14 186.26 234.09 183.22 246.22 C 180.19 258.35 160.40 252.42 164.00 240.00 C 167.60 227.58 169.18 219.59 174.92 209.92 C 180.67 200.26 184.96 193.66 192.75 186.75 C 200.54 179.85 207.56 173.43 216.70 169.70 C 225.83 165.97 239.52 157.82 250.00 161.00 Z"/>
</g>
<g fill="None" fill-opacity="0.0" stroke="#FDFCFD" stroke-opacity="1.00" stroke-width="0.3"><path d="
M 512.00 139.00 
L 512.00 0.00
L 372.00 0.00
C 444.06 3.28 507.75 67.14 512.00 139.00 Z"/>
</g>
<g fill="None" fill-opacity="0.0" stroke="#61C8EE" stroke-opacity="1.00" stroke-width="0.3"><path d="
M 250.00 81.00 
C 238.63 77.55 222.79 85.43 212.07 87.07 C 201.36 88.72 191.04 95.22 181.23 99.23 C 171.42 103.24 163.45 110.17 154.75 115.75 C 146.04 121.32 139.87 129.01 132.25 136.25 C 124.63 143.48 118.67 151.41 112.92 159.92 C 107.17 168.42 101.77 178.40 97.92 187.92 C 94.08 197.45 88.55 210.77 87.78 220.78 C 87.01 230.78 77.01 247.98 90.93 253.07 C 104.85 258.17 105.71 236.76 107.00 227.00 C 108.30 217.24 112.92 203.41 117.08 194.08 C 121.23 184.74 126.94 175.08 132.75 166.75 C 138.55 158.41 144.96 150.65 152.75 143.75 C 160.55 136.86 167.64 129.48 176.77 124.77 C 185.90 120.06 195.06 112.65 205.32 110.32 C 215.59 108.00 228.70 99.45 239.98 101.98 C 251.25 104.51 265.07 85.57 250.00 81.00 Z"/>
</g>
<g fill="None" fill-opacity="0.0" stroke="#61C8EE" stroke-opacity="1.00" stroke-width="0.3"><path d="
M 250.00 121.00 
C 238.38 117.47 223.09 126.06 212.68 128.68 C 202.27 131.30 192.40 138.00 183.70 143.70 C 175.00 149.40 166.83 155.96 159.75 163.75 C 152.68 171.55 146.19 180.36 141.25 189.25 C 136.32 198.15 129.37 210.22 127.99 219.99 C 126.61 229.77 116.70 248.69 130.78 253.22 C 144.86 257.75 144.86 235.57 147.22 226.22 C 149.59 216.88 155.50 204.25 160.75 195.75 C 165.99 187.24 172.95 178.49 180.75 171.75 C 188.55 165.02 196.66 156.58 206.31 153.31 C 215.95 150.03 228.09 139.83 238.99 141.99 C 249.90 144.15 266.00 125.86 250.00 121.00 Z"/>
</g>
<g fill="None" fill-opacity="0.0" stroke="#FDFDFD" stroke-opacity="1.00" stroke-width="0.3"><path d="
M 331.00 293.00 
C 319.92 284.83 312.23 271.85 301.00 264.00
C 285.54 274.81 275.09 292.77 260.00 304.00
C 266.38 314.80 279.60 322.17 286.00 333.00
C 279.60 334.33 273.72 335.87 267.00 336.00
C 263.46 336.43 259.44 336.33 256.00 336.00
C 242.44 336.42 229.93 330.71 218.75 324.25 C 207.56 317.80 202.01 309.82 194.30 299.70 C 186.59 289.57 188.99 270.27 173.00 272.00 C 157.01 273.73 140.08 270.70 124.00 272.00
C 128.99 336.40 188.35 395.00 254.00 395.00
C 259.33 395.00 264.67 395.00 270.00 395.00
C 282.18 395.74 296.92 390.77 307.77 387.77 C 318.62 384.78 328.49 373.15 336.75 382.25 C 345.01 391.35 350.57 395.85 359.00 404.00
C 371.73 389.12 388.40 376.41 400.00 361.00
C 391.22 353.71 383.83 344.34 375.00 337.00
C 403.31 296.93 405.72 237.01 383.31 194.70 C 360.89 152.38 321.34 125.69 275.00 121.00
C 275.00 140.67 275.00 160.33 275.00 180.00
C 324.50 187.63 356.89 249.29 331.00 293.00 Z"/>
</g>
<g fill="None" fill-opacity="0.0" stroke="#61C8EE" stroke-opacity="1.00" stroke-width="0.3"><path d="
M 250.00 161.00 
C 239.52 157.82 225.83 165.97 216.70 169.70 C 207.56 173.43 200.54 179.85 192.75 186.75 C 184.96 193.66 180.67 200.26 174.92 209.92 C 169.18 219.59 167.60 227.58 164.00 240.00 C 160.40 252.42 180.19 258.35 183.22 246.22 C 186.26 234.09 188.21 225.14 194.25 216.25 C 200.28 207.35 205.78 200.55 213.92 194.92 C 222.06 189.29 231.73 181.39 241.93 181.93 C 252.12 182.47 264.46 165.39 250.00 161.00 Z"/>
</g>
<g fill="None" fill-opacity="0.0" stroke="#A595B8" stroke-opacity="1.00" stroke-width="0.3"><path d="
M 260.00 304.00 
C 275.09 292.77 285.54 274.81 301.00 264.00
C 300.77 263.84 301.00 263.00 301.00 263.00
C 295.88 265.14 290.87 273.09 286.75 276.75 C 282.63 280.42 276.22 286.03 273.25 290.25 C 270.28 294.46 260.41 299.12 260.00 304.00 Z"/>
</g>
<g fill="None" fill-opacity="0.0" stroke="#E9DCF7" stroke-opacity="1.00" stroke-width="0.3"><path d="
M 301.00 264.00 
C 312.23 271.85 319.92 284.83 331.00 293.00
C 326.27 288.40 321.64 281.74 316.25 277.75 C 310.85 273.76 307.18 265.57 301.00 263.00
C 301.00 263.00 300.77 263.84 301.00 264.00 Z"/>
</g>
<g fill="None" fill-opacity="0.0" stroke="#9184A2" stroke-opacity="1.00" stroke-width="0.3"><path d="
M 267.00 336.00 
C 263.34 336.07 259.66 336.00 256.00 336.00
C 259.44 336.33 263.46 336.43 267.00 336.00 Z"/>
</g>
<g fill="None" fill-opacity="0.0" stroke="#CAB6DF" stroke-opacity="1.00" stroke-width="0.3"><path d="
M 511.00 379.00 
C 511.04 378.87 512.00 379.00 512.00 379.00
L 512.00 370.00
C 510.04 372.04 511.23 376.13 511.00 379.00 Z"/>
</g>
<g fill="None" fill-opacity="0.0" stroke="#C6B0DA" stroke-opacity="1.00" stroke-width="0.3"><path d="
M 0.00 380.00 
C 0.50 380.00 1.00 380.00 1.00 380.00
C 0.73 377.13 1.91 373.12 0.00 371.00
L 0.00 380.00 Z"/>
</g>
<g fill="None" fill-opacity="0.0" stroke="#FDFDFD" stroke-opacity="1.00" stroke-width="0.3"><path d="
M 379.00 511.00 
C 378.87 511.04 379.00 512.00 379.00 512.00
L 512.00 512.00
L 512.00 379.00
C 512.00 379.00 511.04 378.87 511.00 379.00
C 505.71 445.63 445.61 505.71 379.00 511.00 Z"/>
</g>
<g fill="None" fill-opacity="0.0" stroke="#FDFCFD" stroke-opacity="1.00" stroke-width="0.3"><path d="
M 0.00 512.00 
L 139.00 512.00
C 70.38 507.71 7.51 449.33 1.00 380.00
C 1.00 380.00 0.50 380.00 0.00 380.00
L 0.00 512.00 Z"/>
</g>
<g fill="None" fill-opacity="0.0" stroke="#A292B0" stroke-opacity="1.00" stroke-width="0.3"><path d="
M 270.00 395.00 
C 264.67 395.00 259.33 395.00 254.00 395.00
C 258.97 395.48 264.96 395.49 270.00 395.00 Z"/>
</g>
<g fill="None" fill-opacity="0.0" stroke="#CAB5DE" stroke-opacity="1.00" stroke-width="0.3"><path d="
M 370.00 512.00 
L 379.00 512.00
C 379.00 512.00 378.87 511.04 379.00 511.00
C 376.13 511.23 372.12 510.12 370.00 512.00 Z"/>
</g>
<g fill="#FDFCFD" fill-opacity="1.00" stroke="None">
<path d="
M 0.00 138.00 
C 4.47 67.09 67.17 4.46 138.00 0.00
L 0.00 0.00
L 0.00 138.00 Z"/>
</g>
<g fill="#4B2D6D" fill-opacity="1.00" stroke="None">
<path d="
M 0.00 138.00 
L 0.00 371.00
C 1.91 373.12 0.73 377.13 1.00 380.00
C 7.51 449.33 70.38 507.71 139.00 512.00
L 370.00 512.00
C 372.12 510.12 376.13 511.23 379.00 511.00
C 445.61 505.71 505.71 445.63 511.00 379.00
C 511.23 376.13 510.04 372.04 512.00 370.00
L 512.00 139.00
C 507.75 67.14 444.06 3.28 372.00 0.00
L 138.00 0.00
C 67.17 4.46 4.47 67.09 0.00 138.00
M 250.00 81.00 
C 265.07 85.57 251.25 104.51 239.98 101.98 C 228.70 99.45 215.59 108.00 205.32 110.32 C 195.06 112.65 185.90 120.06 176.77 124.77 C 167.64 129.48 160.55 136.86 152.75 143.75 C 144.96 150.65 138.55 158.41 132.75 166.75 C 126.94 175.08 121.23 184.74 117.08 194.08 C 112.92 203.41 108.30 217.24 107.00 227.00 C 105.71 236.76 104.85 258.17 90.93 253.07 C 77.01 247.98 87.01 230.78 87.78 220.78 C 88.55 210.77 94.08 197.45 97.92 187.92 C 101.77 178.40 107.17 168.42 112.92 159.92 C 118.67 151.41 124.63 143.48 132.25 136.25 C 139.87 129.01 146.04 121.32 154.75 115.75 C 163.45 110.17 171.42 103.24 181.23 99.23 C 191.04 95.22 201.36 88.72 212.07 87.07 C 222.79 85.43 238.63 77.55 250.00 81.00
M 250.00 121.00 
C 266.00 125.86 249.90 144.15 238.99 141.99 C 228.09 139.83 215.95 150.03 206.31 153.31 C 196.66 156.58 188.55 165.02 180.75 171.75 C 172.95 178.49 165.99 187.24 160.75 195.75 C 155.50 204.25 149.59 216.88 147.22 226.22 C 144.86 235.57 144.86 257.75 130.78 253.22 C 116.70 248.69 126.61 229.77 127.99 219.99 C 129.37 210.22 136.32 198.15 141.25 189.25 C 146.19 180.36 152.68 171.55 159.75 163.75 C 166.83 155.96 175.00 149.40 183.70 143.70 C 192.40 138.00 202.27 131.30 212.68 128.68 C 223.09 126.06 238.38 117.47 250.00 121.00
M 270.00 395.00 
C 264.96 395.49 258.97 395.48 254.00 395.00
C 188.35 395.00 128.99 336.40 124.00 272.00
C 140.08 270.70 157.01 273.73 173.00 272.00 C 188.99 270.27 186.59 289.57 194.30 299.70 C 202.01 309.82 207.56 317.80 218.75 324.25 C 229.93 330.71 242.44 336.42 256.00 336.00
C 259.66 336.00 263.34 336.07 267.00 336.00
C 273.72 335.87 279.60 334.33 286.00 333.00
C 279.60 322.17 266.38 314.80 260.00 304.00
C 260.41 299.12 270.28 294.46 273.25 290.25 C 276.22 286.03 282.63 280.42 286.75 276.75 C 290.87 273.09 295.88 265.14 301.00 263.00
C 307.18 265.57 310.85 273.76 316.25 277.75 C 321.64 281.74 326.27 288.40 331.00 293.00
C 356.89 249.29 324.50 187.63 275.00 180.00
C 275.00 160.33 275.00 140.67 275.00 121.00
C 321.34 125.69 360.89 152.38 383.31 194.70 C 405.72 237.01 403.31 296.93 375.00 337.00
C 383.83 344.34 391.22 353.71 400.00 361.00
C 388.40 376.41 371.73 389.12 359.00 404.00
C 350.57 395.85 345.01 391.35 336.75 382.25 C 328.49 373.15 318.62 384.78 307.77 387.77 C 296.92 390.77 282.18 395.74 270.00 395.00
M 250.00 161.00 
C 264.46 165.39 252.12 182.47 241.93 181.93 C 231.73 181.39 222.06 189.29 213.92 194.92 C 205.78 200.55 200.28 207.35 194.25 216.25 C 188.21 225.14 186.26 234.09 183.22 246.22 C 180.19 258.35 160.40 252.42 164.00 240.00 C 167.60 227.58 169.18 219.59 174.92 209.92 C 180.67 200.26 184.96 193.66 192.75 186.75 C 200.54 179.85 207.56 173.43 216.70 169.70 C 225.83 165.97 239.52 157.82 250.00 161.00 Z"/>
</g>
<g fill="#FDFCFD" fill-opacity="1.00" stroke="None">
<path d="
M 512.00 139.00 
L 512.00 0.00
L 372.00 0.00
C 444.06 3.28 507.75 67.14 512.00 139.00 Z"/>
</g>
<g fill="#61C8EE" fill-opacity="1.00" stroke="None">
<path d="
M 250.00 81.00 
C 238.63 77.55 222.79 85.43 212.07 87.07 C 201.36 88.72 191.04 95.22 181.23 99.23 C 171.42 103.24 163.45 110.17 154.75 115.75 C 146.04 121.32 139.87 129.01 132.25 136.25 C 124.63 143.48 118.67 151.41 112.92 159.92 C 107.17 168.42 101.77 178.40 97.92 187.92 C 94.08 197.45 88.55 210.77 87.78 220.78 C 87.01 230.78 77.01 247.98 90.93 253.07 C 104.85 258.17 105.71 236.76 107.00 227.00 C 108.30 217.24 112.92 203.41 117.08 194.08 C 121.23 184.74 126.94 175.08 132.75 166.75 C 138.55 158.41 144.96 150.65 152.75 143.75 C 160.55 136.86 167.64 129.48 176.77 124.77 C 185.90 120.06 195.06 112.65 205.32 110.32 C 215.59 108.00 228.70 99.45 239.98 101.98 C 251.25 104.51 265.07 85.57 250.00 81.00 Z"/>
</g>
<g fill="#61C8EE" fill-opacity="1.00" stroke="None">
<path d="
M 250.00 121.00 
C 238.38 117.47 223.09 126.06 212.68 128.68 C 202.27 131.30 192.40 138.00 183.70 143.70 C 175.00 149.40 166.83 155.96 159.75 163.75 C 152.68 171.55 146.19 180.36 141.25 189.25 C 136.32 198.15 129.37 210.22 127.99 219.99 C 126.61 229.77 116.70 248.69 130.78 253.22 C 144.86 257.75 144.86 235.57 147.22 226.22 C 149.59 216.88 155.50 204.25 160.75 195.75 C 165.99 187.24 172.95 178.49 180.75 171.75 C 188.55 165.02 196.66 156.58 206.31 153.31 C 215.95 150.03 228.09 139.83 238.99 141.99 C 249.90 144.15 266.00 125.86 250.00 121.00 Z"/>
</g>
<g fill="#FDFDFD" fill-opacity="1.00" stroke="None">
<path d="
M 331.00 293.00 
C 319.92 284.83 312.23 271.85 301.00 264.00
C 285.54 274.81 275.09 292.77 260.00 304.00
C 266.38 314.80 279.60 322.17 286.00 333.00
C 279.60 334.33 273.72 335.87 267.00 336.00
C 263.46 336.43 259.44 336.33 256.00 336.00
C 242.44 336.42 229.93 330.71 218.75 324.25 C 207.56 317.80 202.01 309.82 194.30 299.70 C 186.59 289.57 188.99 270.27 173.00 272.00 C 157.01 273.73 140.08 270.70 124.00 272.00
C 128.99 336.40 188.35 395.00 254.00 395.00
C 259.33 395.00 264.67 395.00 270.00 395.00
C 282.18 395.74 296.92 390.77 307.77 387.77 C 318.62 384.78 328.49 373.15 336.75 382.25 C 345.01 391.35 350.57 395.85 359.00 404.00
C 371.73 389.12 388.40 376.41 400.00 361.00
C 391.22 353.71 383.83 344.34 375.00 337.00
C 403.31 296.93 405.72 237.01 383.31 194.70 C 360.89 152.38 321.34 125.69 275.00 121.00
C 275.00 140.67 275.00 160.33 275.00 180.00
C 324.50 187.63 356.89 249.29 331.00 293.00 Z"/>
</g>
<g fill="#61C8EE" fill-opacity="1.00" stroke="None">
<path d="
M 250.00 161.00 
C 239.52 157.82 225.83 165.97 216.70 169.70 C 207.56 173.43 200.54 179.85 192.75 186.75 C 184.96 193.66 180.67 200.26 174.92 209.92 C 169.18 219.59 167.60 227.58 164.00 240.00 C 160.40 252.42 180.19 258.35 183.22 246.22 C 186.26 234.09 188.21 225.14 194.25 216.25 C 200.28 207.35 205.78 200.55 213.92 194.92 C 222.06 189.29 231.73 181.39 241.93 181.93 C 252.12 182.47 264.46 165.39 250.00 161.00 Z"/>
</g>
<g fill="#A595B8" fill-opacity="1.00" stroke="None">
<path d="
M 260.00 304.00 
C 275.09 292.77 285.54 274.81 301.00 264.00
C 300.77 263.84 301.00 263.00 301.00 263.00
C 295.88 265.14 290.87 273.09 286.75 276.75 C 282.63 280.42 276.22 286.03 273.25 290.25 C 270.28 294.46 260.41 299.12 260.00 304.00 Z"/>
</g>
<g fill="#E9DCF7" fill-opacity="1.00" stroke="None">
<path d="
M 301.00 264.00 
C 312.23 271.85 319.92 284.83 331.00 293.00
C 326.27 288.40 321.64 281.74 316.25 277.75 C 310.85 273.76 307.18 265.57 301.00 263.00
C 301.00 263.00 300.77 263.84 301.00 264.00 Z"/>
</g>
<g fill="#9184A2" fill-opacity="1.00" stroke="None">
<path d="
M 267.00 336.00 
C 263.34 336.07 259.66 336.00 256.00 336.00
C 259.44 336.33 263.46 336.43 267.00 336.00 Z"/>
</g>
<g fill="#CAB6DF" fill-opacity="1.00" stroke="None">
<path d="
M 511.00 379.00 
C 511.04 378.87 512.00 379.00 512.00 379.00
L 512.00 370.00
C 510.04 372.04 511.23 376.13 511.00 379.00 Z"/>
</g>
<g fill="#C6B0DA" fill-opacity="1.00" stroke="None">
<path d="
M 0.00 380.00 
C 0.50 380.00 1.00 380.00 1.00 380.00
C 0.73 377.13 1.91 373.12 0.00 371.00
L 0.00 380.00 Z"/>
</g>
<g fill="#FDFDFD" fill-opacity="1.00" stroke="None">
<path d="
M 379.00 511.00 
C 378.87 511.04 379.00 512.00 379.00 512.00
L 512.00 512.00
L 512.00 379.00
C 512.00 379.00 511.04 378.87 511.00 379.00
C 505.71 445.63 445.61 505.71 379.00 511.00 Z"/>
</g>
<g fill="#FDFCFD" fill-opacity="1.00" stroke="None">
<path d="
M 0.00 512.00 
L 139.00 512.00
C 70.38 507.71 7.51 449.33 1.00 380.00
C 1.00 380.00 0.50 380.00 0.00 380.00
L 0.00 512.00 Z"/>
</g>
<g fill="#A292B0" fill-opacity="1.00" stroke="None">
<path d="
M 270.00 395.00 
C 264.67 395.00 259.33 395.00 254.00 395.00
C 258.97 395.48 264.96 395.49 270.00 395.00 Z"/>
</g>
<g fill="#CAB5DE" fill-opacity="1.00" stroke="None">
<path d="
M 370.00 512.00 
L 379.00 512.00
C 379.00 512.00 378.87 511.04 379.00 511.00
C 376.13 511.23 372.12 510.12 370.00 512.00 Z"/>
</g>
</svg>