<svg xmlns="http://www.w3.org/2000/svg" xmlns:v="https://svgstorm.com"
viewBox = "0 0 1337 710"
width="1337"
height="710">
<g fill="None" fill-opacity="0.0" stroke="#000000" stroke-opacity="0.01" stroke-width="0.3"><path d="
M 0.00 146.00 
C 0.88 130.01 11.11 119.58 23.22 109.22 C 35.34 98.87 53.31 102.73 74.67 101.67 C 96.03 100.61 124.61 100.92 146.07 100.07 C 167.54 99.23 194.49 99.86 215.22 99.22 C 235.96 98.58 261.20 96.00 274.75 102.26 C 288.30 108.53 298.94 119.78 303.58 131.77 C 308.21 143.76 304.73 163.73 296.87 172.92 C 289.02 182.11 284.33 193.40 280.41 206.75 C 276.49 220.11 281.61 240.90 286.00 252.00
C 292.96 242.93 298.36 230.99 303.13 221.08 C 307.90 211.17 314.87 197.31 318.76 186.75 C 322.64 176.19 331.42 157.62 327.81 144.75 C 324.19 131.88 309.57 120.20 297.25 107.75 C 284.93 95.30 268.81 85.81 264.29 71.70 C 259.77 57.59 262.96 38.08 277.25 29.25 C 291.53 20.41 294.76 12.15 316.02 12.02 C 337.29 11.90 366.82 14.97 390.00 15.00 C 413.18 15.03 440.61 17.06 464.00 17.00 C 487.39 16.94 515.84 20.72 538.00 20.00 C 560.16 19.28 568.34 25.07 581.75 38.25 C 595.17 51.43 592.09 71.59 588.00 87.00
C 600.19 86.89 619.34 86.65 630.00 88.00 C 640.66 89.35 644.77 91.08 653.77 93.57 C 662.76 96.07 668.20 97.81 675.30 101.71 C 682.41 105.61 687.47 105.39 694.77 111.57 C 702.07 117.75 709.90 118.23 717.10 126.91 C 724.30 135.58 738.82 142.07 752.00 138.00
C 746.79 119.02 731.50 103.64 714.25 92.74 C 697.00 81.83 678.70 56.29 684.21 36.77 C 689.72 17.25 713.29 4.07 733.00 0.00
L 0.00 0.00
L 0.00 146.00 Z"/>
</g>
<g fill="None" fill-opacity="0.0" stroke="#000000" stroke-opacity="1.00" stroke-width="0.3"><path d="
M 0.00 146.00 
L 0.00 153.00
C 1.80 173.73 13.21 187.10 29.92 197.13 C 46.63 207.16 60.64 217.46 78.25 232.75 C 95.86 248.05 99.68 264.23 108.19 278.25 C 116.70 292.28 124.97 306.27 133.11 320.89 C 141.24 335.51 148.12 349.10 156.71 363.30 C 165.30 377.51 172.06 393.69 180.19 407.25 C 188.32 420.82 196.19 439.55 204.98 462.02 C 213.76 484.50 218.97 520.32 210.22 543.22 C 201.48 566.12 192.48 587.68 172.75 602.75 C 153.02 617.83 131.13 627.41 127.22 653.22 C 123.32 679.03 139.57 705.41 166.22 708.78 C 192.87 712.15 221.15 697.25 247.01 694.01 C 272.86 690.76 299.50 680.30 325.07 676.07 C 350.64 671.85 379.83 662.76 404.67 658.67 C 429.51 654.58 452.05 634.60 450.00 608.00 C 447.95 581.40 430.55 566.09 404.77 557.23 C 378.99 548.37 371.22 515.38 375.00 490.00 C 378.78 464.62 370.13 426.38 380.39 409.25 C 390.65 392.11 392.25 383.94 401.00 365.00
C 408.79 400.87 415.46 427.24 439.25 464.75 C 463.04 502.25 493.03 528.36 534.23 546.77 C 575.43 565.18 639.74 562.83 679.69 541.69 C 719.65 520.56 747.19 492.55 770.00 455.00
C 773.62 480.64 770.80 515.91 763.07 539.07 C 755.35 562.23 747.16 584.51 735.23 604.23 C 723.30 623.95 703.00 647.35 718.92 669.08 C 734.85 690.81 755.56 699.12 782.00 697.00 C 808.44 694.88 841.04 692.15 868.67 690.67 C 896.30 689.19 928.32 686.37 956.01 685.01 C 983.69 683.65 1020.41 683.42 1047.00 683.00 C 1073.59 682.58 1095.29 670.68 1101.78 644.78 C 1108.27 618.87 1099.51 584.17 1101.00 557.00
C 1144.40 567.41 1197.03 552.78 1232.23 530.23 C 1267.43 507.68 1290.72 478.09 1308.92 442.92 C 1327.13 407.76 1331.19 387.22 1336.00 350.00
C 1336.18 346.80 1335.06 342.37 1337.00 340.00
L 1337.00 299.00
C 1334.32 287.60 1334.08 276.85 1331.81 266.75 C 1329.53 256.65 1327.19 247.38 1323.74 238.25 C 1320.28 229.11 1318.79 221.86 1314.81 213.75 C 1310.83 205.63 1306.66 196.34 1301.68 188.32 C 1296.70 180.29 1291.23 171.71 1285.20 163.75 C 1279.17 155.79 1268.61 146.61 1260.25 137.75 C 1251.89 128.89 1242.60 123.00 1234.75 117.81 C 1226.89 112.62 1219.89 107.52 1210.75 103.25 C 1201.62 98.97 1196.22 97.44 1186.25 94.60 C 1176.28 91.76 1167.96 88.41 1156.25 87.61 C 1144.54 86.80 1121.29 86.38 1109.75 87.20 C 1098.21 88.02 1091.03 92.51 1080.75 94.76 C 1070.47 97.01 1065.89 100.70 1056.75 103.80 C 1047.61 106.90 1042.03 114.87 1032.75 118.75 C 1023.46 122.63 1019.08 135.47 1005.00 138.00 C 990.92 140.53 966.98 136.10 952.00 138.00
C 962.20 121.07 978.19 112.72 993.08 107.94 C 1007.98 103.15 1026.87 92.28 1028.76 72.75 C 1030.64 53.22 1029.41 29.83 1013.70 17.30 C 997.98 4.78 972.02 7.97 945.00 7.00 C 917.98 6.03 885.32 4.69 857.00 4.00 C 828.68 3.31 796.55 2.20 768.00 1.00
C 765.00 1.00 762.00 1.00 759.00 1.00
C 753.84 1.00 747.34 1.83 743.00 0.00
L 733.00 0.00
C 713.29 4.07 689.72 17.25 684.21 36.77 C 678.70 56.29 697.00 81.83 714.25 92.74 C 731.50 103.64 746.79 119.02 752.00 138.00
C 738.82 142.07 724.30 135.58 717.10 126.91 C 709.90 118.23 702.07 117.75 694.77 111.57 C 687.47 105.39 682.41 105.61 675.30 101.71 C 668.20 97.81 662.76 96.07 653.77 93.57 C 644.77 91.08 640.66 89.35 630.00 88.00 C 619.34 86.65 600.19 86.89 588.00 87.00
C 592.09 71.59 595.17 51.43 581.75 38.25 C 568.34 25.07 560.16 19.28 538.00 20.00 C 515.84 20.72 487.39 16.94 464.00 17.00 C 440.61 17.06 413.18 15.03 390.00 15.00 C 366.82 14.97 337.29 11.90 316.02 12.02 C 294.76 12.15 291.53 20.41 277.25 29.25 C 262.96 38.08 259.77 57.59 264.29 71.70 C 268.81 85.81 284.93 95.30 297.25 107.75 C 309.57 120.20 324.19 131.88 327.81 144.75 C 331.42 157.62 322.64 176.19 318.76 186.75 C 314.87 197.31 307.90 211.17 303.13 221.08 C 298.36 230.99 292.96 242.93 286.00 252.00
C 281.61 240.90 276.49 220.11 280.41 206.75 C 284.33 193.40 289.02 182.11 296.87 172.92 C 304.73 163.73 308.21 143.76 303.58 131.77 C 298.94 119.78 288.30 108.53 274.75 102.26 C 261.20 96.00 235.96 98.58 215.22 99.22 C 194.49 99.86 167.54 99.23 146.07 100.07 C 124.61 100.92 96.03 100.61 74.67 101.67 C 53.31 102.73 35.34 98.87 23.22 109.22 C 11.11 119.58 0.88 130.01 0.00 146.00
M 1320.00 311.00 
C 1320.27 313.75 1321.00 317.57 1321.00 321.00
C 1321.00 322.67 1321.00 324.33 1321.00 326.00
C 1321.00 329.10 1320.23 332.64 1320.00 335.00
C 1320.00 431.01 1244.34 543.00 1140.00 543.00
C 1135.91 543.40 1131.02 543.39 1127.00 543.00
C 1111.93 543.00 1098.08 539.83 1084.00 536.00
C 1085.37 557.82 1086.00 579.83 1086.00 602.00
C 1086.42 606.39 1087.00 611.93 1087.00 617.00
C 1087.00 637.65 1084.44 659.32 1061.31 664.31 C 1038.17 669.29 1014.43 666.31 991.00 668.00 C 967.57 669.69 942.64 668.74 920.00 671.00 C 897.36 673.26 872.73 672.95 851.00 675.00 C 829.27 677.05 802.19 678.42 782.00 680.00 C 761.81 681.58 741.04 676.04 731.75 658.25 C 722.45 640.47 743.84 626.16 750.92 609.92 C 758.01 593.68 768.07 577.05 773.93 558.93 C 779.78 540.80 787.00 518.40 787.00 498.00
C 787.00 487.40 786.77 476.58 787.00 466.00 C 787.23 455.42 786.39 444.50 787.00 434.00 C 787.61 423.50 785.60 412.30 787.00 402.00 C 788.40 391.70 784.42 379.11 786.00 370.00
C 778.89 379.76 778.63 396.17 773.03 407.02 C 767.42 417.88 764.28 431.31 757.75 441.75 C 751.21 452.18 746.20 462.86 738.25 472.25 C 730.29 481.63 723.20 490.38 713.75 498.75 C 704.30 507.13 695.90 513.42 684.92 519.92 C 673.94 526.42 663.46 531.53 650.78 535.78 C 638.09 540.02 621.20 543.00 607.00 543.00
C 603.54 543.33 599.39 543.33 596.00 543.00
C 539.86 543.00 493.51 511.02 459.75 466.25 C 425.99 421.48 413.04 356.38 413.00 300.00
C 405.39 320.26 395.02 336.62 387.07 357.07 C 379.13 377.53 367.72 391.47 360.23 413.23 C 352.74 434.99 361.42 470.18 358.00 494.00 C 354.58 517.82 360.68 541.52 377.25 557.75 C 393.82 573.98 412.37 573.95 427.30 590.70 C 442.23 607.45 429.76 636.65 407.98 640.98 C 386.19 645.30 361.40 651.67 339.33 656.33 C 317.25 660.99 293.57 666.68 271.78 671.78 C 249.98 676.87 224.79 681.00 203.93 686.93 C 183.07 692.85 157.32 697.67 145.23 674.77 C 133.14 651.87 154.03 634.53 171.70 624.70 C 189.36 614.87 200.14 598.24 211.30 581.30 C 222.46 564.37 231.10 538.21 231.00 517.00
C 231.00 513.00 231.00 509.00 231.00 505.00
C 231.00 479.44 219.73 452.45 210.08 429.92 C 200.42 407.40 188.66 386.92 177.08 365.92 C 165.50 344.92 154.03 324.22 142.23 303.77 C 130.43 283.32 120.06 262.01 107.75 242.25 C 95.43 222.50 75.79 208.59 57.75 195.25 C 39.71 181.90 7.72 169.95 18.32 140.32 C 28.92 110.69 67.43 118.00 93.00 118.00
C 98.04 117.51 104.27 117.00 110.00 117.00
C 127.67 117.00 145.33 117.00 163.00 117.00
C 168.04 116.51 174.27 116.00 180.00 116.00
C 197.33 116.00 214.67 116.00 232.00 116.00
C 237.37 115.48 243.95 115.00 250.00 115.00
C 253.24 115.00 256.80 114.57 260.00 115.00
C 282.15 117.95 297.26 145.74 282.75 163.75 C 268.24 181.76 261.95 203.64 262.93 226.07 C 263.90 248.51 275.73 268.18 288.00 286.00
C 295.67 272.90 301.48 260.24 308.92 246.92 C 316.36 233.61 321.39 220.19 328.31 206.31 C 335.22 192.42 339.41 177.09 343.99 161.99 C 348.58 146.89 340.02 130.37 331.08 118.92 C 322.14 107.46 310.63 98.07 300.77 89.23 C 290.91 80.39 273.69 66.44 280.32 52.32 C 286.95 38.20 300.43 30.16 317.00 29.00 C 333.57 27.84 357.05 30.97 375.00 31.00 C 392.95 31.03 414.67 31.94 433.02 32.98 C 451.38 34.01 473.38 32.93 491.67 34.33 C 509.96 35.73 531.71 34.62 549.22 36.78 C 566.73 38.93 575.87 55.17 575.00 71.00 C 574.13 86.83 561.71 97.06 553.00 109.00
C 566.09 105.62 579.06 103.30 593.00 103.00 C 606.94 102.70 624.07 103.47 637.00 106.00 C 649.93 108.52 660.32 113.59 672.07 117.93 C 683.83 122.26 689.46 130.13 700.25 135.75 C 711.04 141.37 714.89 154.03 728.00 155.00 C 741.11 155.96 761.25 154.28 775.00 155.00
C 771.14 137.99 763.14 122.44 754.75 107.25 C 746.35 92.07 732.08 84.91 719.25 74.75 C 706.41 64.60 692.19 46.01 706.75 31.75 C 721.32 17.49 739.14 14.92 760.00 17.00 C 780.86 19.08 805.75 17.88 827.00 19.00 C 848.25 20.12 871.97 20.61 893.00 21.00 C 914.03 21.39 939.88 23.62 960.00 23.00 C 980.12 22.38 1002.02 22.84 1009.92 41.08 C 1017.82 59.32 1011.83 82.36 994.98 88.98 C 978.12 95.59 963.62 100.04 950.77 112.77 C 937.92 125.50 931.10 139.18 924.00 155.00
C 940.94 155.15 961.41 154.80 978.00 155.00 C 994.59 155.20 1013.46 158.18 1024.25 146.25 C 1035.03 134.32 1043.94 131.55 1056.23 123.23 C 1068.52 114.91 1080.89 112.17 1095.01 108.01 C 1109.13 103.84 1129.71 101.90 1145.00 103.00 C 1160.29 104.10 1176.51 108.07 1190.02 112.98 C 1203.54 117.88 1214.33 123.71 1225.70 131.30 C 1237.07 138.90 1246.08 146.55 1255.75 156.25 C 1265.43 165.95 1272.70 175.47 1280.30 186.70 C 1287.90 197.92 1293.93 208.34 1299.77 221.23 C 1305.62 234.11 1309.69 248.32 1313.33 262.67 C 1316.97 277.02 1320.22 295.31 1320.00 311.00 Z"/>
</g>
<g fill="None" fill-opacity="0.0" stroke="#000000" stroke-opacity="0.63" stroke-width="0.3"><path d="
M 759.00 1.00 
C 758.96 1.00 759.00 0.00 759.00 0.00
L 743.00 0.00
C 747.34 1.83 753.84 1.00 759.00 1.00 Z"/>
</g>
<g fill="None" fill-opacity="0.0" stroke="#000000" stroke-opacity="0.26" stroke-width="0.3"><path d="
M 759.00 1.00 
C 762.00 1.00 765.00 1.00 768.00 1.00
C 767.96 1.00 768.00 0.00 768.00 0.00
L 759.00 0.00
C 759.00 0.00 758.96 1.00 759.00 1.00 Z"/>
</g>
<g fill="None" fill-opacity="0.0" stroke="#000000" stroke-opacity="0.01" stroke-width="0.3"><path d="
M 768.00 1.00 
C 796.55 2.20 828.68 3.31 857.00 4.00 C 885.32 4.69 917.98 6.03 945.00 7.00 C 972.02 7.97 997.98 4.78 1013.70 17.30 C 1029.41 29.83 1030.64 53.22 1028.76 72.75 C 1026.87 92.28 1007.98 103.15 993.08 107.94 C 978.19 112.72 962.20 121.07 952.00 138.00
C 966.98 136.10 990.92 140.53 1005.00 138.00 C 1019.08 135.47 1023.46 122.63 1032.75 118.75 C 1042.03 114.87 1047.61 106.90 1056.75 103.80 C 1065.89 100.70 1070.47 97.01 1080.75 94.76 C 1091.03 92.51 1098.21 88.02 1109.75 87.20 C 1121.29 86.38 1144.54 86.80 1156.25 87.61 C 1167.96 88.41 1176.28 91.76 1186.25 94.60 C 1196.22 97.44 1201.62 98.97 1210.75 103.25 C 1219.89 107.52 1226.89 112.62 1234.75 117.81 C 1242.60 123.00 1251.89 128.89 1260.25 137.75 C 1268.61 146.61 1279.17 155.79 1285.20 163.75 C 1291.23 171.71 1296.70 180.29 1301.68 188.32 C 1306.66 196.34 1310.83 205.63 1314.81 213.75 C 1318.79 221.86 1320.28 229.11 1323.74 238.25 C 1327.19 247.38 1329.53 256.65 1331.81 266.75 C 1334.08 276.85 1334.32 287.60 1337.00 299.00
L 1337.00 0.00
L 768.00 0.00
C 768.00 0.00 767.96 1.00 768.00 1.00 Z"/>
</g>
<g fill="None" fill-opacity="0.0" stroke="#00FCFC" stroke-opacity="1.00" stroke-width="0.3"><path d="
M 260.00 115.00 
C 257.72 114.92 253.07 116.00 250.00 116.00
C 244.00 116.00 238.00 116.00 232.00 116.00
C 214.67 116.00 197.33 116.00 180.00 116.00
C 174.96 116.49 168.73 117.00 163.00 117.00
C 145.33 117.00 127.67 117.00 110.00 117.00
C 104.96 117.49 98.73 118.00 93.00 118.00
C 67.43 118.00 28.92 110.69 18.32 140.32 C 7.72 169.95 39.71 181.90 57.75 195.25 C 75.79 208.59 95.43 222.50 107.75 242.25 C 120.06 262.01 130.43 283.32 142.23 303.77 C 154.03 324.22 165.50 344.92 177.08 365.92 C 188.66 386.92 200.42 407.40 210.08 429.92 C 219.73 452.45 231.00 479.44 231.00 505.00
C 231.37 508.77 231.36 513.29 231.00 517.00
C 231.10 538.21 222.46 564.37 211.30 581.30 C 200.14 598.24 189.36 614.87 171.70 624.70 C 154.03 634.53 133.14 651.87 145.23 674.77 C 157.32 697.67 183.07 692.85 203.93 686.93 C 224.79 681.00 249.98 676.87 271.78 671.78 C 293.57 666.68 317.25 660.99 339.33 656.33 C 361.40 651.67 386.19 645.30 407.98 640.98 C 429.76 636.65 442.23 607.45 427.30 590.70 C 412.37 573.95 393.82 573.98 377.25 557.75 C 360.68 541.52 354.58 517.82 358.00 494.00 C 361.42 470.18 352.74 434.99 360.23 413.23 C 367.72 391.47 379.13 377.53 387.07 357.07 C 395.02 336.62 405.39 320.26 413.00 300.00
C 413.04 356.38 425.99 421.48 459.75 466.25 C 493.51 511.02 539.86 543.00 596.00 543.00
C 599.67 543.00 603.33 543.00 607.00 543.00
C 621.20 543.00 638.09 540.02 650.78 535.78 C 663.46 531.53 673.94 526.42 684.92 519.92 C 695.90 513.42 704.30 507.13 713.75 498.75 C 723.20 490.38 730.29 481.63 738.25 472.25 C 746.20 462.86 751.21 452.18 757.75 441.75 C 764.28 431.31 767.42 417.88 773.03 407.02 C 778.63 396.17 778.89 379.76 786.00 370.00
C 786.15 369.13 787.17 368.16 788.00 368.00
C 787.33 411.17 789.33 455.65 787.00 498.00
C 787.00 518.40 779.78 540.80 773.93 558.93 C 768.07 577.05 758.01 593.68 750.92 609.92 C 743.84 626.16 722.45 640.47 731.75 658.25 C 741.04 676.04 761.81 681.58 782.00 680.00 C 802.19 678.42 829.27 677.05 851.00 675.00 C 872.73 672.95 897.36 673.26 920.00 671.00 C 942.64 668.74 967.57 669.69 991.00 668.00 C 1014.43 666.31 1038.17 669.29 1061.31 664.31 C 1084.44 659.32 1087.00 637.65 1087.00 617.00
C 1086.58 612.61 1086.00 607.07 1086.00 602.00
C 1086.00 579.83 1085.37 557.82 1084.00 536.00
C 1098.08 539.83 1111.93 543.00 1127.00 543.00
C 1131.33 543.00 1135.67 543.00 1140.00 543.00
C 1244.34 543.00 1320.00 431.01 1320.00 335.00
C 1320.00 331.88 1320.74 328.39 1321.00 326.00
C 1321.00 324.33 1321.00 322.67 1321.00 321.00
C 1320.71 318.23 1320.00 314.44 1320.00 311.00
C 1320.22 295.31 1316.97 277.02 1313.33 262.67 C 1309.69 248.32 1305.62 234.11 1299.77 221.23 C 1293.93 208.34 1287.90 197.92 1280.30 186.70 C 1272.70 175.47 1265.43 165.95 1255.75 156.25 C 1246.08 146.55 1237.07 138.90 1225.70 131.30 C 1214.33 123.71 1203.54 117.88 1190.02 112.98 C 1176.51 108.07 1160.29 104.10 1145.00 103.00 C 1129.71 101.90 1109.13 103.84 1095.01 108.01 C 1080.89 112.17 1068.52 114.91 1056.23 123.23 C 1043.94 131.55 1035.03 134.32 1024.25 146.25 C 1013.46 158.18 994.59 155.20 978.00 155.00 C 961.41 154.80 940.94 155.15 924.00 155.00
C 931.10 139.18 937.92 125.50 950.77 112.77 C 963.62 100.04 978.12 95.59 994.98 88.98 C 1011.83 82.36 1017.82 59.32 1009.92 41.08 C 1002.02 22.84 980.12 22.38 960.00 23.00 C 939.88 23.62 914.03 21.39 893.00 21.00 C 871.97 20.61 848.25 20.12 827.00 19.00 C 805.75 17.88 780.86 19.08 760.00 17.00 C 739.14 14.92 721.32 17.49 706.75 31.75 C 692.19 46.01 706.41 64.60 719.25 74.75 C 732.08 84.91 746.35 92.07 754.75 107.25 C 763.14 122.44 771.14 137.99 775.00 155.00
C 761.25 154.28 741.11 155.96 728.00 155.00 C 714.89 154.03 711.04 141.37 700.25 135.75 C 689.46 130.13 683.83 122.26 672.07 117.93 C 660.32 113.59 649.93 108.52 637.00 106.00 C 624.07 103.47 606.94 102.70 593.00 103.00 C 579.06 103.30 566.09 105.62 553.00 109.00
C 561.71 97.06 574.13 86.83 575.00 71.00 C 575.87 55.17 566.73 38.93 549.22 36.78 C 531.71 34.62 509.96 35.73 491.67 34.33 C 473.38 32.93 451.38 34.01 433.02 32.98 C 414.67 31.94 392.95 31.03 375.00 31.00 C 357.05 30.97 333.57 27.84 317.00 29.00 C 300.43 30.16 286.95 38.20 280.32 52.32 C 273.69 66.44 290.91 80.39 300.77 89.23 C 310.63 98.07 322.14 107.46 331.08 118.92 C 340.02 130.37 348.58 146.89 343.99 161.99 C 339.41 177.09 335.22 192.42 328.31 206.31 C 321.39 220.19 316.36 233.61 308.92 246.92 C 301.48 260.24 295.67 272.90 288.00 286.00
C 275.73 268.18 263.90 248.51 262.93 226.07 C 261.95 203.64 268.24 181.76 282.75 163.75 C 297.26 145.74 282.15 117.95 260.00 115.00
M 773.00 43.00 
C 785.43 43.00 796.74 43.73 809.00 44.00 C 821.26 44.27 833.81 44.58 846.00 45.00 C 858.19 45.42 870.98 45.38 883.00 46.00 C 895.02 46.62 907.28 45.89 919.00 47.00 C 930.72 48.11 944.83 46.09 956.00 48.00 C 967.17 49.91 982.01 44.17 989.92 52.08 C 997.83 59.99 980.80 66.72 973.32 68.32 C 965.84 69.92 955.94 77.34 948.75 81.75 C 941.57 86.17 934.10 92.48 928.08 99.08 C 922.06 105.68 916.69 112.15 912.08 120.08 C 907.46 128.00 902.92 136.71 899.68 145.68 C 896.44 154.65 892.81 165.37 891.00 175.00
C 910.03 175.83 930.08 173.90 949.00 175.00 C 967.92 176.10 989.55 172.92 1008.00 175.00 C 1026.45 177.08 1033.02 163.82 1046.08 154.08 C 1059.14 144.34 1069.16 138.98 1084.03 133.02 C 1098.89 127.07 1116.40 124.07 1133.00 124.00 C 1149.60 123.93 1168.61 127.03 1183.07 132.93 C 1197.54 138.82 1209.08 144.83 1221.08 153.92 C 1233.08 163.01 1241.43 171.69 1250.77 183.23 C 1260.11 194.77 1267.10 205.57 1273.92 219.08 C 1280.75 232.58 1285.59 245.82 1289.93 261.07 C 1294.26 276.32 1296.44 296.00 1297.33 312.67 C 1298.23 329.34 1296.72 350.82 1293.67 366.67 C 1290.62 382.52 1286.25 398.07 1280.08 412.08 C 1273.90 426.09 1267.87 438.33 1259.23 450.23 C 1250.59 462.13 1243.39 471.28 1232.25 481.25 C 1221.10 491.21 1210.75 498.13 1197.25 505.25 C 1183.76 512.38 1167.87 516.95 1152.00 519.00 C 1136.13 521.04 1115.20 520.41 1099.78 516.22 C 1084.36 512.03 1071.72 506.65 1058.00 499.00
C 1058.73 513.29 1058.77 527.56 1059.00 542.00 C 1059.23 556.44 1061.30 570.37 1061.00 585.00 C 1060.70 599.63 1063.18 614.14 1062.00 629.00 C 1060.82 643.86 1039.77 637.03 1027.00 638.00 C 1014.23 638.97 996.40 637.20 983.00 639.00 C 969.60 640.80 954.07 639.58 940.33 641.33 C 926.59 643.08 912.00 642.52 898.00 644.00 C 884.00 645.48 871.39 645.66 857.00 647.00 C 842.61 648.34 830.16 648.73 815.00 650.00 C 799.84 651.27 790.28 651.56 773.78 653.78 C 757.27 656.00 759.74 640.61 768.30 631.30 C 776.87 622.00 778.08 613.28 783.92 602.92 C 789.77 592.57 792.28 581.94 796.93 570.93 C 801.57 559.91 804.78 548.84 807.98 536.98 C 811.17 525.12 814.84 511.10 814.00 498.00
C 814.00 457.00 814.00 416.00 814.00 375.00
C 814.00 346.33 814.00 317.67 814.00 289.00
C 813.67 285.60 813.00 281.08 813.00 277.00
C 813.00 264.31 813.57 251.32 812.00 239.00
C 793.91 242.09 776.37 249.06 761.00 259.00
C 763.60 276.24 768.25 293.01 768.00 311.00
C 768.24 313.46 769.17 316.84 769.00 320.00
C 767.87 340.83 765.81 365.98 760.07 385.07 C 754.34 404.16 748.02 421.49 737.75 437.75 C 727.47 454.00 719.54 466.00 705.25 479.25 C 690.96 492.49 677.59 500.38 659.92 508.92 C 642.26 517.47 617.99 520.76 598.00 520.00 C 578.01 519.24 556.28 513.94 539.31 504.70 C 522.34 495.45 510.38 486.16 496.75 472.25 C 483.13 458.33 475.48 445.96 466.08 428.92 C 456.67 411.89 450.49 393.65 446.01 373.99 C 441.53 354.33 438.91 326.80 440.99 305.99 C 443.07 285.19 445.74 262.48 452.98 243.98 C 460.21 225.47 467.43 210.09 478.30 194.30 C 489.18 178.52 499.30 168.37 514.25 156.25 C 529.19 144.13 544.21 136.30 563.02 130.02 C 581.84 123.75 609.72 122.49 630.00 126.00 C 650.28 129.51 664.60 137.77 682.25 147.75 C 699.89 157.74 707.27 176.75 730.00 175.00 C 752.73 173.25 781.70 176.31 805.00 175.00
C 803.03 157.14 796.24 138.23 790.22 121.78 C 784.21 105.33 775.45 92.57 765.25 78.75 C 755.05 64.93 738.18 59.88 730.00 46.00
C 739.43 38.67 752.67 43.28 764.00 42.00
C 767.10 42.00 770.64 42.77 773.00 43.00
M 368.00 55.00 
C 373.06 55.00 378.68 55.58 383.00 56.00
C 408.36 56.00 433.43 58.00 459.00 58.00
C 464.06 58.00 469.68 58.58 474.00 59.00
C 485.10 59.00 494.79 60.92 506.00 60.00 C 517.21 59.08 527.53 63.23 539.00 61.00 C 550.47 58.77 555.87 69.97 546.77 74.77 C 537.67 79.56 532.72 82.01 525.30 87.30 C 517.89 92.60 512.80 96.73 506.25 102.25 C 499.71 107.78 495.45 113.64 489.25 119.25 C 483.05 124.86 479.10 131.60 473.70 137.70 C 468.30 143.79 464.23 149.98 459.70 156.70 C 455.16 163.41 450.34 170.11 446.23 177.23 C 442.11 184.35 437.53 191.26 433.70 198.70 C 429.87 206.14 425.58 213.48 422.22 221.22 C 418.86 228.97 415.03 236.87 411.70 244.69 C 408.36 252.52 404.57 260.36 401.22 268.22 C 397.88 276.08 394.09 283.84 390.70 291.69 C 387.30 299.55 383.74 307.43 380.23 315.23 C 376.71 323.03 373.74 330.28 370.08 338.08 C 366.41 345.87 363.18 353.67 359.69 361.69 C 356.21 369.72 352.51 376.74 349.08 385.08 C 345.64 393.41 342.20 399.77 338.69 408.69 C 335.19 417.62 337.56 430.60 337.00 441.00 C 336.44 451.40 337.45 464.33 337.00 475.00 C 336.55 485.67 337.63 498.51 337.00 509.00 C 336.37 519.49 337.52 529.98 339.93 539.07 C 342.33 548.17 345.80 554.84 350.75 562.25 C 355.71 569.65 360.78 574.00 367.08 579.92 C 373.38 585.84 380.68 588.61 387.23 593.77 C 393.78 598.93 404.89 598.07 407.77 607.23 C 410.65 616.39 396.85 618.48 388.93 619.93 C 381.00 621.37 369.55 623.98 360.98 625.98 C 352.40 627.97 341.88 630.01 333.00 632.00 C 324.11 633.99 315.15 636.52 306.00 638.00 C 296.84 639.47 287.95 643.23 278.78 644.78 C 269.61 646.33 259.91 649.06 250.93 650.93 C 241.94 652.79 231.70 655.19 222.98 656.98 C 214.26 658.76 203.31 662.38 194.99 662.99 C 186.67 663.60 175.46 672.48 169.25 664.75 C 163.05 657.02 176.63 649.96 182.75 646.75 C 188.86 643.53 196.17 636.94 202.08 632.08 C 207.99 627.22 212.69 620.95 217.92 614.92 C 223.15 608.89 227.69 602.06 231.92 594.92 C 236.15 587.77 240.38 580.89 243.77 572.77 C 247.16 564.65 249.65 556.02 251.98 546.98 C 254.30 537.93 255.89 527.05 256.00 517.00 C 256.11 506.96 255.93 494.39 254.00 485.00 C 252.08 475.61 250.13 466.57 247.07 457.93 C 244.02 449.29 242.19 441.44 238.68 433.32 C 235.16 425.21 232.01 417.54 228.23 409.77 C 224.44 402.00 221.03 394.45 217.08 386.92 C 213.12 379.40 208.93 372.37 205.08 364.92 C 201.22 357.48 196.57 350.66 192.75 343.25 C 188.92 335.85 184.52 328.70 180.70 321.31 C 176.87 313.91 172.12 307.08 168.25 299.75 C 164.37 292.43 160.31 284.93 156.23 277.77 C 152.15 270.61 148.34 263.89 144.23 256.77 C 140.12 249.65 136.27 241.91 132.23 234.77 C 128.19 227.63 123.80 220.92 118.23 214.77 C 112.66 208.62 107.07 203.80 101.25 197.75 C 95.43 191.70 88.43 188.82 82.30 182.70 C 76.17 176.58 68.79 175.27 62.30 168.70 C 55.81 162.13 47.29 164.68 43.08 153.92 C 38.86 143.17 55.41 143.00 64.00 143.00
C 69.04 142.51 75.27 142.00 81.00 142.00
C 87.00 142.00 93.00 142.00 99.00 142.00
C 116.33 142.00 133.67 142.00 151.00 142.00
C 156.04 141.51 162.27 141.00 168.00 141.00
C 185.67 141.00 203.33 141.00 221.00 141.00
C 226.04 140.51 232.28 140.00 238.00 140.00
C 245.85 140.00 266.43 138.71 262.24 149.25 C 258.06 159.78 252.18 162.78 248.70 172.69 C 245.21 182.61 240.86 189.94 239.22 200.22 C 237.59 210.51 236.56 223.91 238.00 234.00 C 239.44 244.09 242.79 253.72 246.31 262.69 C 249.82 271.67 253.97 279.26 258.92 287.08 C 263.86 294.90 268.68 301.59 274.25 308.75 C 279.83 315.90 285.73 322.65 292.00 329.00
C 298.18 319.37 303.62 309.48 309.30 299.30 C 314.98 289.13 320.12 279.17 325.77 268.77 C 331.42 258.37 336.63 247.61 341.78 236.78 C 346.93 225.94 351.42 215.52 356.31 204.31 C 361.19 193.09 364.79 180.24 368.33 168.33 C 371.86 156.41 371.39 139.79 366.07 128.93 C 360.76 118.07 356.31 108.29 347.75 100.25 C 339.19 92.20 334.27 82.04 324.25 75.75 C 314.23 69.46 302.94 54.82 321.00 54.00 C 339.06 53.18 350.31 56.30 368.00 55.00 Z"/>
</g>
<g fill="None" fill-opacity="0.0" stroke="#000000" stroke-opacity="1.00" stroke-width="0.3"><path d="
M 769.00 320.00 
C 768.90 317.74 768.00 313.97 768.00 311.00
C 768.25 293.01 763.60 276.24 761.00 259.00
C 776.37 249.06 793.91 242.09 812.00 239.00
C 813.57 251.32 813.00 264.31 813.00 277.00
C 813.33 280.40 814.00 284.92 814.00 289.00
C 814.00 317.67 814.00 346.33 814.00 375.00
C 815.89 394.54 815.01 415.66 815.00 436.00 C 814.99 456.34 815.89 478.45 814.00 498.00
C 814.84 511.10 811.17 525.12 807.98 536.98 C 804.78 548.84 801.57 559.91 796.93 570.93 C 792.28 581.94 789.77 592.57 783.92 602.92 C 778.08 613.28 776.87 622.00 768.30 631.30 C 759.74 640.61 757.27 656.00 773.78 653.78 C 790.28 651.56 799.84 651.27 815.00 650.00 C 830.16 648.73 842.61 648.34 857.00 647.00 C 871.39 645.66 884.00 645.48 898.00 644.00 C 912.00 642.52 926.59 643.08 940.33 641.33 C 954.07 639.58 969.60 640.80 983.00 639.00 C 996.40 637.20 1014.23 638.97 1027.00 638.00 C 1039.77 637.03 1060.82 643.86 1062.00 629.00 C 1063.18 614.14 1060.70 599.63 1061.00 585.00 C 1061.30 570.37 1059.23 556.44 1059.00 542.00 C 1058.77 527.56 1058.73 513.29 1058.00 499.00
C 1071.72 506.65 1084.36 512.03 1099.78 516.22 C 1115.20 520.41 1136.13 521.04 1152.00 519.00 C 1167.87 516.95 1183.76 512.38 1197.25 505.25 C 1210.75 498.13 1221.10 491.21 1232.25 481.25 C 1243.39 471.28 1250.59 462.13 1259.23 450.23 C 1267.87 438.33 1273.90 426.09 1280.08 412.08 C 1286.25 398.07 1290.62 382.52 1293.67 366.67 C 1296.72 350.82 1298.23 329.34 1297.33 312.67 C 1296.44 296.00 1294.26 276.32 1289.93 261.07 C 1285.59 245.82 1280.75 232.58 1273.92 219.08 C 1267.10 205.57 1260.11 194.77 1250.77 183.23 C 1241.43 171.69 1233.08 163.01 1221.08 153.92 C 1209.08 144.83 1197.54 138.82 1183.07 132.93 C 1168.61 127.03 1149.60 123.93 1133.00 124.00 C 1116.40 124.07 1098.89 127.07 1084.03 133.02 C 1069.16 138.98 1059.14 144.34 1046.08 154.08 C 1033.02 163.82 1026.45 177.08 1008.00 175.00 C 989.55 172.92 967.92 176.10 949.00 175.00 C 930.08 173.90 910.03 175.83 891.00 175.00
C 892.81 165.37 896.44 154.65 899.68 145.68 C 902.92 136.71 907.46 128.00 912.08 120.08 C 916.69 112.15 922.06 105.68 928.08 99.08 C 934.10 92.48 941.57 86.17 948.75 81.75 C 955.94 77.34 965.84 69.92 973.32 68.32 C 980.80 66.72 997.83 59.99 989.92 52.08 C 982.01 44.17 967.17 49.91 956.00 48.00 C 944.83 46.09 930.72 48.11 919.00 47.00 C 907.28 45.89 895.02 46.62 883.00 46.00 C 870.98 45.38 858.19 45.42 846.00 45.00 C 833.81 44.58 821.26 44.27 809.00 44.00 C 796.74 43.73 785.43 43.00 773.00 43.00
C 769.90 43.00 766.36 42.23 764.00 42.00
C 752.67 43.28 739.43 38.67 730.00 46.00
C 738.18 59.88 755.05 64.93 765.25 78.75 C 775.45 92.57 784.21 105.33 790.22 121.78 C 796.24 138.23 803.03 157.14 805.00 175.00
C 781.70 176.31 752.73 173.25 730.00 175.00 C 707.27 176.75 699.89 157.74 682.25 147.75 C 664.60 137.77 650.28 129.51 630.00 126.00 C 609.72 122.49 581.84 123.75 563.02 130.02 C 544.21 136.30 529.19 144.13 514.25 156.25 C 499.30 168.37 489.18 178.52 478.30 194.30 C 467.43 210.09 460.21 225.47 452.98 243.98 C 445.74 262.48 443.07 285.19 440.99 305.99 C 438.91 326.80 441.53 354.33 446.01 373.99 C 450.49 393.65 456.67 411.89 466.08 428.92 C 475.48 445.96 483.13 458.33 496.75 472.25 C 510.38 486.16 522.34 495.45 539.31 504.70 C 556.28 513.94 578.01 519.24 598.00 520.00 C 617.99 520.76 642.26 517.47 659.92 508.92 C 677.59 500.38 690.96 492.49 705.25 479.25 C 719.54 466.00 727.47 454.00 737.75 437.75 C 748.02 421.49 754.34 404.16 760.07 385.07 C 765.81 365.98 767.87 340.83 769.00 320.00
M 1098.00 161.00 
C 1109.70 162.13 1120.07 169.10 1112.75 179.75 C 1105.42 190.39 1101.60 193.54 1094.23 202.23 C 1086.86 210.92 1081.34 215.57 1075.75 224.75 C 1070.15 233.92 1066.23 241.05 1062.08 251.08 C 1057.92 261.10 1053.01 268.43 1049.23 279.23 C 1045.45 290.02 1035.02 296.01 1029.23 283.77 C 1023.44 271.53 1022.86 261.75 1023.00 249.00 C 1023.14 236.25 1025.68 226.33 1029.92 215.92 C 1034.17 205.52 1038.97 198.92 1045.75 190.75 C 1052.54 182.59 1058.06 176.50 1066.75 170.75 C 1075.43 164.99 1087.02 159.94 1098.00 161.00
M 580.00 166.00 
C 598.63 167.27 595.68 180.57 586.75 190.75 C 577.82 200.94 572.24 206.31 564.25 216.25 C 556.26 226.18 550.38 234.49 545.23 246.23 C 540.08 257.97 534.24 266.24 530.22 279.22 C 526.21 292.21 514.28 301.21 507.70 286.31 C 501.11 271.40 501.01 258.94 502.33 244.33 C 503.65 229.72 508.45 219.35 514.92 207.92 C 521.40 196.50 527.91 190.66 537.08 182.08 C 546.25 173.50 557.40 166.68 570.00 166.00
C 573.46 165.44 576.58 165.39 580.00 166.00
M 811.00 222.00 
C 791.19 225.30 772.26 232.47 755.00 243.00
C 748.87 225.01 738.98 208.04 729.00 192.00
C 737.82 192.40 748.35 191.46 757.00 192.00 C 765.65 192.54 776.98 190.97 785.00 192.00 C 793.02 193.03 806.64 188.02 808.99 196.01 C 811.34 204.00 810.24 213.54 811.00 222.00
M 1009.00 192.00 
C 997.48 209.18 987.86 227.97 981.00 247.00
C 972.99 240.86 967.59 235.84 957.92 232.08 C 948.26 228.31 940.71 223.81 929.33 222.67 C 917.95 221.53 909.37 216.58 896.00 218.00 C 882.63 219.42 886.46 202.72 888.00 192.00
C 928.33 192.00 968.67 192.00 1009.00 192.00
M 887.00 272.00 
C 886.77 269.58 886.00 266.10 886.00 263.00
C 886.00 253.33 886.00 243.67 886.00 234.00
C 902.47 234.78 926.99 237.65 941.22 243.78 C 955.46 249.90 976.83 255.83 974.02 274.02 C 971.21 292.22 968.36 315.26 969.98 334.02 C 971.59 352.79 973.52 373.15 978.98 390.02 C 984.43 406.89 990.11 420.66 998.75 435.25 C 1007.40 449.84 1014.76 461.32 1027.00 473.00
C 1013.63 494.08 1005.25 510.48 983.75 526.75 C 962.26 543.02 923.70 535.46 897.00 537.00
C 893.77 448.65 888.59 360.77 887.00 272.00 Z"/>
</g>
<g fill="None" fill-opacity="0.0" stroke="#007B7B" stroke-opacity="1.00" stroke-width="0.3"><path d="
M 773.00 43.00 
C 770.64 42.77 767.10 42.00 764.00 42.00
C 766.36 42.23 769.90 43.00 773.00 43.00 Z"/>
</g>
<g fill="None" fill-opacity="0.0" stroke="#000000" stroke-opacity="1.00" stroke-width="0.3"><path d="
M 238.00 140.00 
C 232.96 140.49 226.73 141.00 221.00 141.00
C 203.33 141.00 185.67 141.00 168.00 141.00
C 162.96 141.49 156.73 142.00 151.00 142.00
C 133.67 142.00 116.33 142.00 99.00 142.00
C 93.63 142.52 87.05 143.00 81.00 143.00
C 75.33 143.00 69.67 143.00 64.00 143.00
C 55.41 143.00 38.86 143.17 43.08 153.92 C 47.29 164.68 55.81 162.13 62.30 168.70 C 68.79 175.27 76.17 176.58 82.30 182.70 C 88.43 188.82 95.43 191.70 101.25 197.75 C 107.07 203.80 112.66 208.62 118.23 214.77 C 123.80 220.92 128.19 227.63 132.23 234.77 C 136.27 241.91 140.12 249.65 144.23 256.77 C 148.34 263.89 152.15 270.61 156.23 277.77 C 160.31 284.93 164.37 292.43 168.25 299.75 C 172.12 307.08 176.87 313.91 180.70 321.31 C 184.52 328.70 188.92 335.85 192.75 343.25 C 196.57 350.66 201.22 357.48 205.08 364.92 C 208.93 372.37 213.12 379.40 217.08 386.92 C 221.03 394.45 224.44 402.00 228.23 409.77 C 232.01 417.54 235.16 425.21 238.68 433.32 C 242.19 441.44 244.02 449.29 247.07 457.93 C 250.13 466.57 252.08 475.61 254.00 485.00 C 255.93 494.39 256.11 506.96 256.00 517.00 C 255.89 527.05 254.30 537.93 251.98 546.98 C 249.65 556.02 247.16 564.65 243.77 572.77 C 240.38 580.89 236.15 587.77 231.92 594.92 C 227.69 602.06 223.15 608.89 217.92 614.92 C 212.69 620.95 207.99 627.22 202.08 632.08 C 196.17 636.94 188.86 643.53 182.75 646.75 C 176.63 649.96 163.05 657.02 169.25 664.75 C 175.46 672.48 186.67 663.60 194.99 662.99 C 203.31 662.38 214.26 658.76 222.98 656.98 C 231.70 655.19 241.94 652.79 250.93 650.93 C 259.91 649.06 269.61 646.33 278.78 644.78 C 287.95 643.23 296.84 639.47 306.00 638.00 C 315.15 636.52 324.11 633.99 333.00 632.00 C 341.88 630.01 352.40 627.97 360.98 625.98 C 369.55 623.98 381.00 621.37 388.93 619.93 C 396.85 618.48 410.65 616.39 407.77 607.23 C 404.89 598.07 393.78 598.93 387.23 593.77 C 380.68 588.61 373.38 585.84 367.08 579.92 C 360.78 574.00 355.71 569.65 350.75 562.25 C 345.80 554.84 342.33 548.17 339.93 539.07 C 337.52 529.98 336.37 519.49 337.00 509.00 C 337.63 498.51 336.55 485.67 337.00 475.00 C 337.45 464.33 336.44 451.40 337.00 441.00 C 337.56 430.60 335.19 417.62 338.69 408.69 C 342.20 399.77 345.64 393.41 349.08 385.08 C 352.51 376.74 356.21 369.72 359.69 361.69 C 363.18 353.67 366.41 345.87 370.08 338.08 C 373.74 330.28 376.71 323.03 380.23 315.23 C 383.74 307.43 387.30 299.55 390.70 291.69 C 394.09 283.84 397.88 276.08 401.22 268.22 C 404.57 260.36 408.36 252.52 411.70 244.69 C 415.03 236.87 418.86 228.97 422.22 221.22 C 425.58 213.48 429.87 206.14 433.70 198.70 C 437.53 191.26 442.11 184.35 446.23 177.23 C 450.34 170.11 455.16 163.41 459.70 156.70 C 464.23 149.98 468.30 143.79 473.70 137.70 C 479.10 131.60 483.05 124.86 489.25 119.25 C 495.45 113.64 499.71 107.78 506.25 102.25 C 512.80 96.73 517.89 92.60 525.30 87.30 C 532.72 82.01 537.67 79.56 546.77 74.77 C 555.87 69.97 550.47 58.77 539.00 61.00 C 527.53 63.23 517.21 59.08 506.00 60.00 C 494.79 60.92 485.10 59.00 474.00 59.00
C 468.94 59.00 463.32 58.42 459.00 58.00
C 433.43 58.00 408.36 56.00 383.00 56.00
C 377.94 56.00 372.32 55.42 368.00 55.00
C 350.31 56.30 339.06 53.18 321.00 54.00 C 302.94 54.82 314.23 69.46 324.25 75.75 C 334.27 82.04 339.19 92.20 347.75 100.25 C 356.31 108.29 360.76 118.07 366.07 128.93 C 371.39 139.79 371.86 156.41 368.33 168.33 C 364.79 180.24 361.19 193.09 356.31 204.31 C 351.42 215.52 346.93 225.94 341.78 236.78 C 336.63 247.61 331.42 258.37 325.77 268.77 C 320.12 279.17 314.98 289.13 309.30 299.30 C 303.62 309.48 298.18 319.37 292.00 329.00
C 285.73 322.65 279.83 315.90 274.25 308.75 C 268.68 301.59 263.86 294.90 258.92 287.08 C 253.97 279.26 249.82 271.67 246.31 262.69 C 242.79 253.72 239.44 244.09 238.00 234.00 C 236.56 223.91 237.59 210.51 239.22 200.22 C 240.86 189.94 245.21 182.61 248.70 172.69 C 252.18 162.78 258.06 159.78 262.24 149.25 C 266.43 138.71 245.85 140.00 238.00 140.00 Z"/>
</g>
<g fill="None" fill-opacity="0.0" stroke="#009D9D" stroke-opacity="1.00" stroke-width="0.3"><path d="
M 383.00 56.00 
C 378.68 55.58 373.06 55.00 368.00 55.00
C 372.32 55.42 377.94 56.00 383.00 56.00 Z"/>
</g>
<g fill="None" fill-opacity="0.0" stroke="#009D9D" stroke-opacity="1.00" stroke-width="0.3"><path d="
M 474.00 59.00 
C 469.68 58.58 464.06 58.00 459.00 58.00
C 463.32 58.42 468.94 59.00 474.00 59.00 Z"/>
</g>
<g fill="None" fill-opacity="0.0" stroke="#007E7E" stroke-opacity="1.00" stroke-width="0.3"><path d="
M 232.00 116.00 
C 238.00 116.00 244.00 116.00 250.00 116.00
C 249.96 116.00 250.00 115.00 250.00 115.00
C 243.95 115.00 237.37 115.48 232.00 116.00 Z"/>
</g>
<g fill="None" fill-opacity="0.0" stroke="#00BFBF" stroke-opacity="1.00" stroke-width="0.3"><path d="
M 250.00 116.00 
C 253.07 116.00 257.72 114.92 260.00 115.00
C 256.80 114.57 253.24 115.00 250.00 115.00
C 250.00 115.00 249.96 116.00 250.00 116.00 Z"/>
</g>
<g fill="None" fill-opacity="0.0" stroke="#007F7F" stroke-opacity="1.00" stroke-width="0.3"><path d="
M 163.00 117.00 
C 168.73 117.00 174.96 116.49 180.00 116.00
C 174.27 116.00 168.04 116.51 163.00 117.00 Z"/>
</g>
<g fill="None" fill-opacity="0.0" stroke="#007F7F" stroke-opacity="1.00" stroke-width="0.3"><path d="
M 93.00 118.00 
C 98.73 118.00 104.96 117.49 110.00 117.00
C 104.27 117.00 98.04 117.51 93.00 118.00 Z"/>
</g>
<g fill="None" fill-opacity="0.0" stroke="#007F7F" stroke-opacity="1.00" stroke-width="0.3"><path d="
M 221.00 141.00 
C 226.73 141.00 232.96 140.49 238.00 140.00
C 232.28 140.00 226.04 140.51 221.00 141.00 Z"/>
</g>
<g fill="None" fill-opacity="0.0" stroke="#007F7F" stroke-opacity="1.00" stroke-width="0.3"><path d="
M 151.00 142.00 
C 156.73 142.00 162.96 141.49 168.00 141.00
C 162.27 141.00 156.04 141.51 151.00 142.00 Z"/>
</g>
<g fill="None" fill-opacity="0.0" stroke="#00BFBF" stroke-opacity="1.00" stroke-width="0.3"><path d="
M 64.00 143.00 
C 69.67 143.00 75.33 143.00 81.00 143.00
C 80.96 143.00 81.00 142.00 81.00 142.00
C 75.27 142.00 69.04 142.51 64.00 143.00 Z"/>
</g>
<g fill="None" fill-opacity="0.0" stroke="#007E7E" stroke-opacity="1.00" stroke-width="0.3"><path d="
M 81.00 143.00 
C 87.05 143.00 93.63 142.52 99.00 142.00
C 93.00 142.00 87.00 142.00 81.00 142.00
C 81.00 142.00 80.96 143.00 81.00 143.00 Z"/>
</g>
<g fill="None" fill-opacity="0.0" stroke="#000000" stroke-opacity="0.00" stroke-width="0.3"><path d="
M 0.00 710.00 
L 1337.00 710.00
L 1337.00 350.00
C 1336.50 350.00 1336.00 350.00 1336.00 350.00
C 1331.19 387.22 1327.13 407.76 1308.92 442.92 C 1290.72 478.09 1267.43 507.68 1232.23 530.23 C 1197.03 552.78 1144.40 567.41 1101.00 557.00
C 1099.51 584.17 1108.27 618.87 1101.78 644.78 C 1095.29 670.68 1073.59 682.58 1047.00 683.00 C 1020.41 683.42 983.69 683.65 956.01 685.01 C 928.32 686.37 896.30 689.19 868.67 690.67 C 841.04 692.15 808.44 694.88 782.00 697.00 C 755.56 699.12 734.85 690.81 718.92 669.08 C 703.00 647.35 723.30 623.95 735.23 604.23 C 747.16 584.51 755.35 562.23 763.07 539.07 C 770.80 515.91 773.62 480.64 770.00 455.00
C 747.19 492.55 719.65 520.56 679.69 541.69 C 639.74 562.83 575.43 565.18 534.23 546.77 C 493.03 528.36 463.04 502.25 439.25 464.75 C 415.46 427.24 408.79 400.87 401.00 365.00
C 392.25 383.94 390.65 392.11 380.39 409.25 C 370.13 426.38 378.78 464.62 375.00 490.00 C 371.22 515.38 378.99 548.37 404.77 557.23 C 430.55 566.09 447.95 581.40 450.00 608.00 C 452.05 634.60 429.51 654.58 404.67 658.67 C 379.83 662.76 350.64 671.85 325.07 676.07 C 299.50 680.30 272.86 690.76 247.01 694.01 C 221.15 697.25 192.87 712.15 166.22 708.78 C 139.57 705.41 123.32 679.03 127.22 653.22 C 131.13 627.41 153.02 617.83 172.75 602.75 C 192.48 587.68 201.48 566.12 210.22 543.22 C 218.97 520.32 213.76 484.50 204.98 462.02 C 196.19 439.55 188.32 420.82 180.19 407.25 C 172.06 393.69 165.30 377.51 156.71 363.30 C 148.12 349.10 141.24 335.51 133.11 320.89 C 124.97 306.27 116.70 292.28 108.19 278.25 C 99.68 264.23 95.86 248.05 78.25 232.75 C 60.64 217.46 46.63 207.16 29.92 197.13 C 13.21 187.10 1.80 173.73 0.00 153.00
L 0.00 710.00 Z"/>
</g>
<g fill="None" fill-opacity="0.0" stroke="#FCFCFC" stroke-opacity="1.00" stroke-width="0.3"><path d="
M 1098.00 161.00 
C 1087.02 159.94 1075.43 164.99 1066.75 170.75 C 1058.06 176.50 1052.54 182.59 1045.75 190.75 C 1038.97 198.92 1034.17 205.52 1029.92 215.92 C 1025.68 226.33 1023.14 236.25 1023.00 249.00 C 1022.86 261.75 1023.44 271.53 1029.23 283.77 C 1035.02 296.01 1045.45 290.02 1049.23 279.23 C 1053.01 268.43 1057.92 261.10 1062.08 251.08 C 1066.23 241.05 1070.15 233.92 1075.75 224.75 C 1081.34 215.57 1086.86 210.92 1094.23 202.23 C 1101.60 193.54 1105.42 190.39 1112.75 179.75 C 1120.07 169.10 1109.70 162.13 1098.00 161.00 Z"/>
</g>
<g fill="None" fill-opacity="0.0" stroke="#6D6D6D" stroke-opacity="1.00" stroke-width="0.3"><path d="
M 570.00 166.00 
C 573.25 165.82 576.75 165.78 580.00 166.00
C 576.58 165.39 573.46 165.44 570.00 166.00 Z"/>
</g>
<g fill="None" fill-opacity="0.0" stroke="#FDFDFD" stroke-opacity="1.00" stroke-width="0.3"><path d="
M 580.00 166.00 
C 576.75 165.78 573.25 165.82 570.00 166.00
C 557.40 166.68 546.25 173.50 537.08 182.08 C 527.91 190.66 521.40 196.50 514.92 207.92 C 508.45 219.35 503.65 229.72 502.33 244.33 C 501.01 258.94 501.11 271.40 507.70 286.31 C 514.28 301.21 526.21 292.21 530.22 279.22 C 534.24 266.24 540.08 257.97 545.23 246.23 C 550.38 234.49 556.26 226.18 564.25 216.25 C 572.24 206.31 577.82 200.94 586.75 190.75 C 595.68 180.57 598.63 167.27 580.00 166.00 Z"/>
</g>
<g fill="None" fill-opacity="0.0" stroke="#00FAFA" stroke-opacity="1.00" stroke-width="0.3"><path d="
M 811.00 222.00 
C 810.24 213.54 811.34 204.00 808.99 196.01 C 806.64 188.02 793.02 193.03 785.00 192.00 C 776.98 190.97 765.65 192.54 757.00 192.00 C 748.35 191.46 737.82 192.40 729.00 192.00
C 738.98 208.04 748.87 225.01 755.00 243.00
C 772.26 232.47 791.19 225.30 811.00 222.00 Z"/>
</g>
<g fill="None" fill-opacity="0.0" stroke="#00FBFB" stroke-opacity="1.00" stroke-width="0.3"><path d="
M 1009.00 192.00 
C 968.67 192.00 928.33 192.00 888.00 192.00
C 886.46 202.72 882.63 219.42 896.00 218.00 C 909.37 216.58 917.95 221.53 929.33 222.67 C 940.71 223.81 948.26 228.31 957.92 232.08 C 967.59 235.84 972.99 240.86 981.00 247.00
C 987.86 227.97 997.48 209.18 1009.00 192.00 Z"/>
</g>
<g fill="None" fill-opacity="0.0" stroke="#00FBFB" stroke-opacity="1.00" stroke-width="0.3"><path d="
M 886.00 263.00 
C 886.23 265.42 887.00 268.91 887.00 272.00
C 888.59 360.77 893.77 448.65 897.00 537.00
C 923.70 535.46 962.26 543.02 983.75 526.75 C 1005.25 510.48 1013.63 494.08 1027.00 473.00
C 1014.76 461.32 1007.40 449.84 998.75 435.25 C 990.11 420.66 984.43 406.89 978.98 390.02 C 973.52 373.15 971.59 352.79 969.98 334.02 C 968.36 315.26 971.21 292.22 974.02 274.02 C 976.83 255.83 955.46 249.90 941.22 243.78 C 926.99 237.65 902.47 234.78 886.00 234.00
C 886.00 243.67 886.00 253.33 886.00 263.00
M 947.00 311.00 
C 947.00 314.10 946.23 317.64 946.00 320.00
C 946.00 322.00 946.00 324.00 946.00 326.00
C 946.23 328.42 947.00 331.91 947.00 335.00
C 947.00 349.82 949.90 366.39 952.93 380.07 C 955.95 393.76 959.79 406.82 964.78 419.22 C 969.76 431.63 975.47 443.05 981.92 454.08 C 988.37 465.11 1001.04 473.84 991.75 484.75 C 982.45 495.65 979.17 502.44 967.25 511.25 C 955.34 520.07 935.80 516.40 921.00 517.00
C 918.81 458.97 916.18 401.04 914.00 343.00
C 913.64 339.27 913.00 334.41 913.00 330.00
C 913.00 315.74 912.00 302.09 912.00 288.00
C 911.58 283.61 911.00 278.07 911.00 273.00
C 911.00 269.67 911.00 266.33 911.00 263.00
C 924.11 267.00 938.13 268.76 950.00 276.00
C 949.77 287.84 946.03 298.83 947.00 311.00 Z"/>
</g>
<g fill="None" fill-opacity="0.0" stroke="#008080" stroke-opacity="1.00" stroke-width="0.3"><path d="
M 887.00 272.00 
C 887.00 268.91 886.23 265.42 886.00 263.00
C 886.00 266.10 886.77 269.58 887.00 272.00 Z"/>
</g>
<g fill="None" fill-opacity="0.0" stroke="#000000" stroke-opacity="1.00" stroke-width="0.3"><path d="
M 911.00 273.00 
C 911.42 277.39 912.00 282.93 912.00 288.00
C 912.00 302.09 913.00 315.74 913.00 330.00
C 913.36 333.73 914.00 338.59 914.00 343.00
C 916.18 401.04 918.81 458.97 921.00 517.00
C 935.80 516.40 955.34 520.07 967.25 511.25 C 979.17 502.44 982.45 495.65 991.75 484.75 C 1001.04 473.84 988.37 465.11 981.92 454.08 C 975.47 443.05 969.76 431.63 964.78 419.22 C 959.79 406.82 955.95 393.76 952.93 380.07 C 949.90 366.39 947.00 349.82 947.00 335.00
C 946.77 332.58 946.00 329.09 946.00 326.00
C 946.00 324.00 946.00 322.00 946.00 320.00
C 946.00 316.90 946.77 313.36 947.00 311.00
C 946.03 298.83 949.77 287.84 950.00 276.00
C 938.13 268.76 924.11 267.00 911.00 263.00
C 911.00 266.33 911.00 269.67 911.00 273.00
M 931.00 303.00 
C 930.67 307.20 929.30 311.50 930.00 316.00
C 927.80 312.58 929.58 307.18 929.00 303.00
C 929.00 297.30 925.94 288.42 930.00 285.00
C 935.01 287.50 929.44 297.31 931.00 303.00
M 933.00 366.00 
C 937.03 409.54 956.00 443.12 977.00 477.00
C 967.17 489.23 956.94 505.32 937.00 501.00
C 934.99 456.93 932.13 411.69 932.00 368.00
C 931.99 363.57 929.93 357.18 931.00 352.00
C 932.93 356.07 932.17 361.89 933.00 366.00 Z"/>
</g>
<g fill="None" fill-opacity="0.0" stroke="#009D9D" stroke-opacity="1.00" stroke-width="0.3"><path d="
M 912.00 288.00 
C 912.00 282.93 911.42 277.39 911.00 273.00
C 911.00 278.07 911.58 283.61 912.00 288.00 Z"/>
</g>
<g fill="None" fill-opacity="0.0" stroke="#008080" stroke-opacity="1.00" stroke-width="0.3"><path d="
M 814.00 289.00 
C 814.00 284.92 813.33 280.40 813.00 277.00
C 813.00 281.08 813.67 285.60 814.00 289.00 Z"/>
</g>
<g fill="None" fill-opacity="0.0" stroke="#000000" stroke-opacity="0.25" stroke-width="0.3"><path d="
M 929.00 303.00 
C 929.08 302.81 930.92 303.19 931.00 303.00
C 929.44 297.31 935.01 287.50 930.00 285.00
C 925.94 288.42 929.00 297.30 929.00 303.00 Z"/>
</g>
<g fill="None" fill-opacity="0.0" stroke="#000000" stroke-opacity="0.53" stroke-width="0.3"><path d="
M 931.00 303.00 
C 930.92 303.19 929.08 302.81 929.00 303.00
C 929.58 307.18 927.80 312.58 930.00 316.00
C 929.30 311.50 930.67 307.20 931.00 303.00 Z"/>
</g>
<g fill="None" fill-opacity="0.0" stroke="#007D7D" stroke-opacity="1.00" stroke-width="0.3"><path d="
M 769.00 320.00 
C 769.17 316.84 768.24 313.46 768.00 311.00
C 768.00 313.97 768.90 317.74 769.00 320.00 Z"/>
</g>
<g fill="None" fill-opacity="0.0" stroke="#007D7D" stroke-opacity="1.00" stroke-width="0.3"><path d="
M 946.00 320.00 
C 946.23 317.64 947.00 314.10 947.00 311.00
C 946.77 313.36 946.00 316.90 946.00 320.00 Z"/>
</g>
<g fill="None" fill-opacity="0.0" stroke="#007D7D" stroke-opacity="1.00" stroke-width="0.3"><path d="
M 1321.00 321.00 
C 1321.00 317.57 1320.27 313.75 1320.00 311.00
C 1320.00 314.44 1320.71 318.23 1321.00 321.00 Z"/>
</g>
<g fill="None" fill-opacity="0.0" stroke="#007B7B" stroke-opacity="1.00" stroke-width="0.3"><path d="
M 947.00 335.00 
C 947.00 331.91 946.23 328.42 946.00 326.00
C 946.00 329.09 946.77 332.58 947.00 335.00 Z"/>
</g>
<g fill="None" fill-opacity="0.0" stroke="#007D7D" stroke-opacity="1.00" stroke-width="0.3"><path d="
M 1320.00 335.00 
C 1320.23 332.64 1321.00 329.10 1321.00 326.00
C 1320.74 328.39 1320.00 331.88 1320.00 335.00 Z"/>
</g>
<g fill="None" fill-opacity="0.0" stroke="#009A9A" stroke-opacity="1.00" stroke-width="0.3"><path d="
M 914.00 343.00 
C 914.00 338.59 913.36 333.73 913.00 330.00
C 913.00 334.41 913.64 339.27 914.00 343.00 Z"/>
</g>
<g fill="None" fill-opacity="0.0" stroke="#000000" stroke-opacity="0.53" stroke-width="0.3"><path d="
M 1336.00 350.00 
C 1336.00 350.00 1336.50 350.00 1337.00 350.00
L 1337.00 340.00
C 1335.06 342.37 1336.18 346.80 1336.00 350.00 Z"/>
</g>
<g fill="None" fill-opacity="0.0" stroke="#000000" stroke-opacity="0.51" stroke-width="0.3"><path d="
M 932.00 368.00 
C 932.05 367.87 933.02 365.89 933.00 366.00
C 932.17 361.89 932.93 356.07 931.00 352.00
C 929.93 357.18 931.99 363.57 932.00 368.00 Z"/>
</g>
<g fill="None" fill-opacity="0.0" stroke="#000000" stroke-opacity="0.04" stroke-width="0.3"><path d="
M 932.00 368.00 
C 932.13 411.69 934.99 456.93 937.00 501.00
C 956.94 505.32 967.17 489.23 977.00 477.00
C 956.00 443.12 937.03 409.54 933.00 366.00
C 933.02 365.89 932.05 367.87 932.00 368.00 Z"/>
</g>
<g fill="None" fill-opacity="0.0" stroke="#007E7E" stroke-opacity="1.00" stroke-width="0.3"><path d="
M 786.00 370.00 
C 784.42 379.11 788.40 391.70 787.00 402.00 C 785.60 412.30 787.61 423.50 787.00 434.00 C 786.39 444.50 787.23 455.42 787.00 466.00 C 786.77 476.58 787.00 487.40 787.00 498.00
C 789.33 455.65 787.33 411.17 788.00 368.00
C 787.17 368.16 786.15 369.13 786.00 370.00 Z"/>
</g>
<g fill="None" fill-opacity="0.0" stroke="#007E7E" stroke-opacity="1.00" stroke-width="0.3"><path d="
M 814.00 498.00 
C 815.89 478.45 814.99 456.34 815.00 436.00 C 815.01 415.66 815.89 394.54 814.00 375.00
C 814.00 416.00 814.00 457.00 814.00 498.00 Z"/>
</g>
<g fill="None" fill-opacity="0.0" stroke="#007F7F" stroke-opacity="1.00" stroke-width="0.3"><path d="
M 231.00 517.00 
C 231.36 513.29 231.37 508.77 231.00 505.00
C 231.00 509.00 231.00 513.00 231.00 517.00 Z"/>
</g>
<g fill="None" fill-opacity="0.0" stroke="#007A7A" stroke-opacity="1.00" stroke-width="0.3"><path d="
M 607.00 543.00 
C 603.33 543.00 599.67 543.00 596.00 543.00
C 599.39 543.33 603.54 543.33 607.00 543.00 Z"/>
</g>
<g fill="None" fill-opacity="0.0" stroke="#007979" stroke-opacity="1.00" stroke-width="0.3"><path d="
M 1140.00 543.00 
C 1135.67 543.00 1131.33 543.00 1127.00 543.00
C 1131.02 543.39 1135.91 543.40 1140.00 543.00 Z"/>
</g>
<g fill="None" fill-opacity="0.0" stroke="#009D9D" stroke-opacity="1.00" stroke-width="0.3"><path d="
M 1087.00 617.00 
C 1087.00 611.93 1086.42 606.39 1086.00 602.00
C 1086.00 607.07 1086.58 612.61 1087.00 617.00 Z"/>
</g>
<g fill="#000000" fill-opacity="0.01" stroke="None">
<path d="
M 0.00 146.00 
C 0.88 130.01 11.11 119.58 23.22 109.22 C 35.34 98.87 53.31 102.73 74.67 101.67 C 96.03 100.61 124.61 100.92 146.07 100.07 C 167.54 99.23 194.49 99.86 215.22 99.22 C 235.96 98.58 261.20 96.00 274.75 102.26 C 288.30 108.53 298.94 119.78 303.58 131.77 C 308.21 143.76 304.73 163.73 296.87 172.92 C 289.02 182.11 284.33 193.40 280.41 206.75 C 276.49 220.11 281.61 240.90 286.00 252.00
C 292.96 242.93 298.36 230.99 303.13 221.08 C 307.90 211.17 314.87 197.31 318.76 186.75 C 322.64 176.19 331.42 157.62 327.81 144.75 C 324.19 131.88 309.57 120.20 297.25 107.75 C 284.93 95.30 268.81 85.81 264.29 71.70 C 259.77 57.59 262.96 38.08 277.25 29.25 C 291.53 20.41 294.76 12.15 316.02 12.02 C 337.29 11.90 366.82 14.97 390.00 15.00 C 413.18 15.03 440.61 17.06 464.00 17.00 C 487.39 16.94 515.84 20.72 538.00 20.00 C 560.16 19.28 568.34 25.07 581.75 38.25 C 595.17 51.43 592.09 71.59 588.00 87.00
C 600.19 86.89 619.34 86.65 630.00 88.00 C 640.66 89.35 644.77 91.08 653.77 93.57 C 662.76 96.07 668.20 97.81 675.30 101.71 C 682.41 105.61 687.47 105.39 694.77 111.57 C 702.07 117.75 709.90 118.23 717.10 126.91 C 724.30 135.58 738.82 142.07 752.00 138.00
C 746.79 119.02 731.50 103.64 714.25 92.74 C 697.00 81.83 678.70 56.29 684.21 36.77 C 689.72 17.25 713.29 4.07 733.00 0.00
L 0.00 0.00
L 0.00 146.00 Z"/>
</g>
<g fill="#000000" fill-opacity="1.00" stroke="None">
<path d="
M 0.00 146.00 
L 0.00 153.00
C 1.80 173.73 13.21 187.10 29.92 197.13 C 46.63 207.16 60.64 217.46 78.25 232.75 C 95.86 248.05 99.68 264.23 108.19 278.25 C 116.70 292.28 124.97 306.27 133.11 320.89 C 141.24 335.51 148.12 349.10 156.71 363.30 C 165.30 377.51 172.06 393.69 180.19 407.25 C 188.32 420.82 196.19 439.55 204.98 462.02 C 213.76 484.50 218.97 520.32 210.22 543.22 C 201.48 566.12 192.48 587.68 172.75 602.75 C 153.02 617.83 131.13 627.41 127.22 653.22 C 123.32 679.03 139.57 705.41 166.22 708.78 C 192.87 712.15 221.15 697.25 247.01 694.01 C 272.86 690.76 299.50 680.30 325.07 676.07 C 350.64 671.85 379.83 662.76 404.67 658.67 C 429.51 654.58 452.05 634.60 450.00 608.00 C 447.95 581.40 430.55 566.09 404.77 557.23 C 378.99 548.37 371.22 515.38 375.00 490.00 C 378.78 464.62 370.13 426.38 380.39 409.25 C 390.65 392.11 392.25 383.94 401.00 365.00
C 408.79 400.87 415.46 427.24 439.25 464.75 C 463.04 502.25 493.03 528.36 534.23 546.77 C 575.43 565.18 639.74 562.83 679.69 541.69 C 719.65 520.56 747.19 492.55 770.00 455.00
C 773.62 480.64 770.80 515.91 763.07 539.07 C 755.35 562.23 747.16 584.51 735.23 604.23 C 723.30 623.95 703.00 647.35 718.92 669.08 C 734.85 690.81 755.56 699.12 782.00 697.00 C 808.44 694.88 841.04 692.15 868.67 690.67 C 896.30 689.19 928.32 686.37 956.01 685.01 C 983.69 683.65 1020.41 683.42 1047.00 683.00 C 1073.59 682.58 1095.29 670.68 1101.78 644.78 C 1108.27 618.87 1099.51 584.17 1101.00 557.00
C 1144.40 567.41 1197.03 552.78 1232.23 530.23 C 1267.43 507.68 1290.72 478.09 1308.92 442.92 C 1327.13 407.76 1331.19 387.22 1336.00 350.00
C 1336.18 346.80 1335.06 342.37 1337.00 340.00
L 1337.00 299.00
C 1334.32 287.60 1334.08 276.85 1331.81 266.75 C 1329.53 256.65 1327.19 247.38 1323.74 238.25 C 1320.28 229.11 1318.79 221.86 1314.81 213.75 C 1310.83 205.63 1306.66 196.34 1301.68 188.32 C 1296.70 180.29 1291.23 171.71 1285.20 163.75 C 1279.17 155.79 1268.61 146.61 1260.25 137.75 C 1251.89 128.89 1242.60 123.00 1234.75 117.81 C 1226.89 112.62 1219.89 107.52 1210.75 103.25 C 1201.62 98.97 1196.22 97.44 1186.25 94.60 C 1176.28 91.76 1167.96 88.41 1156.25 87.61 C 1144.54 86.80 1121.29 86.38 1109.75 87.20 C 1098.21 88.02 1091.03 92.51 1080.75 94.76 C 1070.47 97.01 1065.89 100.70 1056.75 103.80 C 1047.61 106.90 1042.03 114.87 1032.75 118.75 C 1023.46 122.63 1019.08 135.47 1005.00 138.00 C 990.92 140.53 966.98 136.10 952.00 138.00
C 962.20 121.07 978.19 112.72 993.08 107.94 C 1007.98 103.15 1026.87 92.28 1028.76 72.75 C 1030.64 53.22 1029.41 29.83 1013.70 17.30 C 997.98 4.78 972.02 7.97 945.00 7.00 C 917.98 6.03 885.32 4.69 857.00 4.00 C 828.68 3.31 796.55 2.20 768.00 1.00
C 765.00 1.00 762.00 1.00 759.00 1.00
C 753.84 1.00 747.34 1.83 743.00 0.00
L 733.00 0.00
C 713.29 4.07 689.72 17.25 684.21 36.77 C 678.70 56.29 697.00 81.83 714.25 92.74 C 731.50 103.64 746.79 119.02 752.00 138.00
C 738.82 142.07 724.30 135.58 717.10 126.91 C 709.90 118.23 702.07 117.75 694.77 111.57 C 687.47 105.39 682.41 105.61 675.30 101.71 C 668.20 97.81 662.76 96.07 653.77 93.57 C 644.77 91.08 640.66 89.35 630.00 88.00 C 619.34 86.65 600.19 86.89 588.00 87.00
C 592.09 71.59 595.17 51.43 581.75 38.25 C 568.34 25.07 560.16 19.28 538.00 20.00 C 515.84 20.72 487.39 16.94 464.00 17.00 C 440.61 17.06 413.18 15.03 390.00 15.00 C 366.82 14.97 337.29 11.90 316.02 12.02 C 294.76 12.15 291.53 20.41 277.25 29.25 C 262.96 38.08 259.77 57.59 264.29 71.70 C 268.81 85.81 284.93 95.30 297.25 107.75 C 309.57 120.20 324.19 131.88 327.81 144.75 C 331.42 157.62 322.64 176.19 318.76 186.75 C 314.87 197.31 307.90 211.17 303.13 221.08 C 298.36 230.99 292.96 242.93 286.00 252.00
C 281.61 240.90 276.49 220.11 280.41 206.75 C 284.33 193.40 289.02 182.11 296.87 172.92 C 304.73 163.73 308.21 143.76 303.58 131.77 C 298.94 119.78 288.30 108.53 274.75 102.26 C 261.20 96.00 235.96 98.58 215.22 99.22 C 194.49 99.86 167.54 99.23 146.07 100.07 C 124.61 100.92 96.03 100.61 74.67 101.67 C 53.31 102.73 35.34 98.87 23.22 109.22 C 11.11 119.58 0.88 130.01 0.00 146.00
M 1320.00 311.00 
C 1320.27 313.75 1321.00 317.57 1321.00 321.00
C 1321.00 322.67 1321.00 324.33 1321.00 326.00
C 1321.00 329.10 1320.23 332.64 1320.00 335.00
C 1320.00 431.01 1244.34 543.00 1140.00 543.00
C 1135.91 543.40 1131.02 543.39 1127.00 543.00
C 1111.93 543.00 1098.08 539.83 1084.00 536.00
C 1085.37 557.82 1086.00 579.83 1086.00 602.00
C 1086.42 606.39 1087.00 611.93 1087.00 617.00
C 1087.00 637.65 1084.44 659.32 1061.31 664.31 C 1038.17 669.29 1014.43 666.31 991.00 668.00 C 967.57 669.69 942.64 668.74 920.00 671.00 C 897.36 673.26 872.73 672.95 851.00 675.00 C 829.27 677.05 802.19 678.42 782.00 680.00 C 761.81 681.58 741.04 676.04 731.75 658.25 C 722.45 640.47 743.84 626.16 750.92 609.92 C 758.01 593.68 768.07 577.05 773.93 558.93 C 779.78 540.80 787.00 518.40 787.00 498.00
C 787.00 487.40 786.77 476.58 787.00 466.00 C 787.23 455.42 786.39 444.50 787.00 434.00 C 787.61 423.50 785.60 412.30 787.00 402.00 C 788.40 391.70 784.42 379.11 786.00 370.00
C 778.89 379.76 778.63 396.17 773.03 407.02 C 767.42 417.88 764.28 431.31 757.75 441.75 C 751.21 452.18 746.20 462.86 738.25 472.25 C 730.29 481.63 723.20 490.38 713.75 498.75 C 704.30 507.13 695.90 513.42 684.92 519.92 C 673.94 526.42 663.46 531.53 650.78 535.78 C 638.09 540.02 621.20 543.00 607.00 543.00
C 603.54 543.33 599.39 543.33 596.00 543.00
C 539.86 543.00 493.51 511.02 459.75 466.25 C 425.99 421.48 413.04 356.38 413.00 300.00
C 405.39 320.26 395.02 336.62 387.07 357.07 C 379.13 377.53 367.72 391.47 360.23 413.23 C 352.74 434.99 361.42 470.18 358.00 494.00 C 354.58 517.82 360.68 541.52 377.25 557.75 C 393.82 573.98 412.37 573.95 427.30 590.70 C 442.23 607.45 429.76 636.65 407.98 640.98 C 386.19 645.30 361.40 651.67 339.33 656.33 C 317.25 660.99 293.57 666.68 271.78 671.78 C 249.98 676.87 224.79 681.00 203.93 686.93 C 183.07 692.85 157.32 697.67 145.23 674.77 C 133.14 651.87 154.03 634.53 171.70 624.70 C 189.36 614.87 200.14 598.24 211.30 581.30 C 222.46 564.37 231.10 538.21 231.00 517.00
C 231.00 513.00 231.00 509.00 231.00 505.00
C 231.00 479.44 219.73 452.45 210.08 429.92 C 200.42 407.40 188.66 386.92 177.08 365.92 C 165.50 344.92 154.03 324.22 142.23 303.77 C 130.43 283.32 120.06 262.01 107.75 242.25 C 95.43 222.50 75.79 208.59 57.75 195.25 C 39.71 181.90 7.72 169.95 18.32 140.32 C 28.92 110.69 67.43 118.00 93.00 118.00
C 98.04 117.51 104.27 117.00 110.00 117.00
C 127.67 117.00 145.33 117.00 163.00 117.00
C 168.04 116.51 174.27 116.00 180.00 116.00
C 197.33 116.00 214.67 116.00 232.00 116.00
C 237.37 115.48 243.95 115.00 250.00 115.00
C 253.24 115.00 256.80 114.57 260.00 115.00
C 282.15 117.95 297.26 145.74 282.75 163.75 C 268.24 181.76 261.95 203.64 262.93 226.07 C 263.90 248.51 275.73 268.18 288.00 286.00
C 295.67 272.90 301.48 260.24 308.92 246.92 C 316.36 233.61 321.39 220.19 328.31 206.31 C 335.22 192.42 339.41 177.09 343.99 161.99 C 348.58 146.89 340.02 130.37 331.08 118.92 C 322.14 107.46 310.63 98.07 300.77 89.23 C 290.91 80.39 273.69 66.44 280.32 52.32 C 286.95 38.20 300.43 30.16 317.00 29.00 C 333.57 27.84 357.05 30.97 375.00 31.00 C 392.95 31.03 414.67 31.94 433.02 32.98 C 451.38 34.01 473.38 32.93 491.67 34.33 C 509.96 35.73 531.71 34.62 549.22 36.78 C 566.73 38.93 575.87 55.17 575.00 71.00 C 574.13 86.83 561.71 97.06 553.00 109.00
C 566.09 105.62 579.06 103.30 593.00 103.00 C 606.94 102.70 624.07 103.47 637.00 106.00 C 649.93 108.52 660.32 113.59 672.07 117.93 C 683.83 122.26 689.46 130.13 700.25 135.75 C 711.04 141.37 714.89 154.03 728.00 155.00 C 741.11 155.96 761.25 154.28 775.00 155.00
C 771.14 137.99 763.14 122.44 754.75 107.25 C 746.35 92.07 732.08 84.91 719.25 74.75 C 706.41 64.60 692.19 46.01 706.75 31.75 C 721.32 17.49 739.14 14.92 760.00 17.00 C 780.86 19.08 805.75 17.88 827.00 19.00 C 848.25 20.12 871.97 20.61 893.00 21.00 C 914.03 21.39 939.88 23.62 960.00 23.00 C 980.12 22.38 1002.02 22.84 1009.92 41.08 C 1017.82 59.32 1011.83 82.36 994.98 88.98 C 978.12 95.59 963.62 100.04 950.77 112.77 C 937.92 125.50 931.10 139.18 924.00 155.00
C 940.94 155.15 961.41 154.80 978.00 155.00 C 994.59 155.20 1013.46 158.18 1024.25 146.25 C 1035.03 134.32 1043.94 131.55 1056.23 123.23 C 1068.52 114.91 1080.89 112.17 1095.01 108.01 C 1109.13 103.84 1129.71 101.90 1145.00 103.00 C 1160.29 104.10 1176.51 108.07 1190.02 112.98 C 1203.54 117.88 1214.33 123.71 1225.70 131.30 C 1237.07 138.90 1246.08 146.55 1255.75 156.25 C 1265.43 165.95 1272.70 175.47 1280.30 186.70 C 1287.90 197.92 1293.93 208.34 1299.77 221.23 C 1305.62 234.11 1309.69 248.32 1313.33 262.67 C 1316.97 277.02 1320.22 295.31 1320.00 311.00 Z"/>
</g>
<g fill="#000000" fill-opacity="0.63" stroke="None">
<path d="
M 759.00 1.00 
C 758.96 1.00 759.00 0.00 759.00 0.00
L 743.00 0.00
C 747.34 1.83 753.84 1.00 759.00 1.00 Z"/>
</g>
<g fill="#000000" fill-opacity="0.26" stroke="None">
<path d="
M 759.00 1.00 
C 762.00 1.00 765.00 1.00 768.00 1.00
C 767.96 1.00 768.00 0.00 768.00 0.00
L 759.00 0.00
C 759.00 0.00 758.96 1.00 759.00 1.00 Z"/>
</g>
<g fill="#000000" fill-opacity="0.01" stroke="None">
<path d="
M 768.00 1.00 
C 796.55 2.20 828.68 3.31 857.00 4.00 C 885.32 4.69 917.98 6.03 945.00 7.00 C 972.02 7.97 997.98 4.78 1013.70 17.30 C 1029.41 29.83 1030.64 53.22 1028.76 72.75 C 1026.87 92.28 1007.98 103.15 993.08 107.94 C 978.19 112.72 962.20 121.07 952.00 138.00
C 966.98 136.10 990.92 140.53 1005.00 138.00 C 1019.08 135.47 1023.46 122.63 1032.75 118.75 C 1042.03 114.87 1047.61 106.90 1056.75 103.80 C 1065.89 100.70 1070.47 97.01 1080.75 94.76 C 1091.03 92.51 1098.21 88.02 1109.75 87.20 C 1121.29 86.38 1144.54 86.80 1156.25 87.61 C 1167.96 88.41 1176.28 91.76 1186.25 94.60 C 1196.22 97.44 1201.62 98.97 1210.75 103.25 C 1219.89 107.52 1226.89 112.62 1234.75 117.81 C 1242.60 123.00 1251.89 128.89 1260.25 137.75 C 1268.61 146.61 1279.17 155.79 1285.20 163.75 C 1291.23 171.71 1296.70 180.29 1301.68 188.32 C 1306.66 196.34 1310.83 205.63 1314.81 213.75 C 1318.79 221.86 1320.28 229.11 1323.74 238.25 C 1327.19 247.38 1329.53 256.65 1331.81 266.75 C 1334.08 276.85 1334.32 287.60 1337.00 299.00
L 1337.00 0.00
L 768.00 0.00
C 768.00 0.00 767.96 1.00 768.00 1.00 Z"/>
</g>
<g fill="#00FCFC" fill-opacity="1.00" stroke="None">
<path d="
M 260.00 115.00 
C 257.72 114.92 253.07 116.00 250.00 116.00
C 244.00 116.00 238.00 116.00 232.00 116.00
C 214.67 116.00 197.33 116.00 180.00 116.00
C 174.96 116.49 168.73 117.00 163.00 117.00
C 145.33 117.00 127.67 117.00 110.00 117.00
C 104.96 117.49 98.73 118.00 93.00 118.00
C 67.43 118.00 28.92 110.69 18.32 140.32 C 7.72 169.95 39.71 181.90 57.75 195.25 C 75.79 208.59 95.43 222.50 107.75 242.25 C 120.06 262.01 130.43 283.32 142.23 303.77 C 154.03 324.22 165.50 344.92 177.08 365.92 C 188.66 386.92 200.42 407.40 210.08 429.92 C 219.73 452.45 231.00 479.44 231.00 505.00
C 231.37 508.77 231.36 513.29 231.00 517.00
C 231.10 538.21 222.46 564.37 211.30 581.30 C 200.14 598.24 189.36 614.87 171.70 624.70 C 154.03 634.53 133.14 651.87 145.23 674.77 C 157.32 697.67 183.07 692.85 203.93 686.93 C 224.79 681.00 249.98 676.87 271.78 671.78 C 293.57 666.68 317.25 660.99 339.33 656.33 C 361.40 651.67 386.19 645.30 407.98 640.98 C 429.76 636.65 442.23 607.45 427.30 590.70 C 412.37 573.95 393.82 573.98 377.25 557.75 C 360.68 541.52 354.58 517.82 358.00 494.00 C 361.42 470.18 352.74 434.99 360.23 413.23 C 367.72 391.47 379.13 377.53 387.07 357.07 C 395.02 336.62 405.39 320.26 413.00 300.00
C 413.04 356.38 425.99 421.48 459.75 466.25 C 493.51 511.02 539.86 543.00 596.00 543.00
C 599.67 543.00 603.33 543.00 607.00 543.00
C 621.20 543.00 638.09 540.02 650.78 535.78 C 663.46 531.53 673.94 526.42 684.92 519.92 C 695.90 513.42 704.30 507.13 713.75 498.75 C 723.20 490.38 730.29 481.63 738.25 472.25 C 746.20 462.86 751.21 452.18 757.75 441.75 C 764.28 431.31 767.42 417.88 773.03 407.02 C 778.63 396.17 778.89 379.76 786.00 370.00
C 786.15 369.13 787.17 368.16 788.00 368.00
C 787.33 411.17 789.33 455.65 787.00 498.00
C 787.00 518.40 779.78 540.80 773.93 558.93 C 768.07 577.05 758.01 593.68 750.92 609.92 C 743.84 626.16 722.45 640.47 731.75 658.25 C 741.04 676.04 761.81 681.58 782.00 680.00 C 802.19 678.42 829.27 677.05 851.00 675.00 C 872.73 672.95 897.36 673.26 920.00 671.00 C 942.64 668.74 967.57 669.69 991.00 668.00 C 1014.43 666.31 1038.17 669.29 1061.31 664.31 C 1084.44 659.32 1087.00 637.65 1087.00 617.00
C 1086.58 612.61 1086.00 607.07 1086.00 602.00
C 1086.00 579.83 1085.37 557.82 1084.00 536.00
C 1098.08 539.83 1111.93 543.00 1127.00 543.00
C 1131.33 543.00 1135.67 543.00 1140.00 543.00
C 1244.34 543.00 1320.00 431.01 1320.00 335.00
C 1320.00 331.88 1320.74 328.39 1321.00 326.00
C 1321.00 324.33 1321.00 322.67 1321.00 321.00
C 1320.71 318.23 1320.00 314.44 1320.00 311.00
C 1320.22 295.31 1316.97 277.02 1313.33 262.67 C 1309.69 248.32 1305.62 234.11 1299.77 221.23 C 1293.93 208.34 1287.90 197.92 1280.30 186.70 C 1272.70 175.47 1265.43 165.95 1255.75 156.25 C 1246.08 146.55 1237.07 138.90 1225.70 131.30 C 1214.33 123.71 1203.54 117.88 1190.02 112.98 C 1176.51 108.07 1160.29 104.10 1145.00 103.00 C 1129.71 101.90 1109.13 103.84 1095.01 108.01 C 1080.89 112.17 1068.52 114.91 1056.23 123.23 C 1043.94 131.55 1035.03 134.32 1024.25 146.25 C 1013.46 158.18 994.59 155.20 978.00 155.00 C 961.41 154.80 940.94 155.15 924.00 155.00
C 931.10 139.18 937.92 125.50 950.77 112.77 C 963.62 100.04 978.12 95.59 994.98 88.98 C 1011.83 82.36 1017.82 59.32 1009.92 41.08 C 1002.02 22.84 980.12 22.38 960.00 23.00 C 939.88 23.62 914.03 21.39 893.00 21.00 C 871.97 20.61 848.25 20.12 827.00 19.00 C 805.75 17.88 780.86 19.08 760.00 17.00 C 739.14 14.92 721.32 17.49 706.75 31.75 C 692.19 46.01 706.41 64.60 719.25 74.75 C 732.08 84.91 746.35 92.07 754.75 107.25 C 763.14 122.44 771.14 137.99 775.00 155.00
C 761.25 154.28 741.11 155.96 728.00 155.00 C 714.89 154.03 711.04 141.37 700.25 135.75 C 689.46 130.13 683.83 122.26 672.07 117.93 C 660.32 113.59 649.93 108.52 637.00 106.00 C 624.07 103.47 606.94 102.70 593.00 103.00 C 579.06 103.30 566.09 105.62 553.00 109.00
C 561.71 97.06 574.13 86.83 575.00 71.00 C 575.87 55.17 566.73 38.93 549.22 36.78 C 531.71 34.62 509.96 35.73 491.67 34.33 C 473.38 32.93 451.38 34.01 433.02 32.98 C 414.67 31.94 392.95 31.03 375.00 31.00 C 357.05 30.97 333.57 27.84 317.00 29.00 C 300.43 30.16 286.95 38.20 280.32 52.32 C 273.69 66.44 290.91 80.39 300.77 89.23 C 310.63 98.07 322.14 107.46 331.08 118.92 C 340.02 130.37 348.58 146.89 343.99 161.99 C 339.41 177.09 335.22 192.42 328.31 206.31 C 321.39 220.19 316.36 233.61 308.92 246.92 C 301.48 260.24 295.67 272.90 288.00 286.00
C 275.73 268.18 263.90 248.51 262.93 226.07 C 261.95 203.64 268.24 181.76 282.75 163.75 C 297.26 145.74 282.15 117.95 260.00 115.00
M 773.00 43.00 
C 785.43 43.00 796.74 43.73 809.00 44.00 C 821.26 44.27 833.81 44.58 846.00 45.00 C 858.19 45.42 870.98 45.38 883.00 46.00 C 895.02 46.62 907.28 45.89 919.00 47.00 C 930.72 48.11 944.83 46.09 956.00 48.00 C 967.17 49.91 982.01 44.17 989.92 52.08 C 997.83 59.99 980.80 66.72 973.32 68.32 C 965.84 69.92 955.94 77.34 948.75 81.75 C 941.57 86.17 934.10 92.48 928.08 99.08 C 922.06 105.68 916.69 112.15 912.08 120.08 C 907.46 128.00 902.92 136.71 899.68 145.68 C 896.44 154.65 892.81 165.37 891.00 175.00
C 910.03 175.83 930.08 173.90 949.00 175.00 C 967.92 176.10 989.55 172.92 1008.00 175.00 C 1026.45 177.08 1033.02 163.82 1046.08 154.08 C 1059.14 144.34 1069.16 138.98 1084.03 133.02 C 1098.89 127.07 1116.40 124.07 1133.00 124.00 C 1149.60 123.93 1168.61 127.03 1183.07 132.93 C 1197.54 138.82 1209.08 144.83 1221.08 153.92 C 1233.08 163.01 1241.43 171.69 1250.77 183.23 C 1260.11 194.77 1267.10 205.57 1273.92 219.08 C 1280.75 232.58 1285.59 245.82 1289.93 261.07 C 1294.26 276.32 1296.44 296.00 1297.33 312.67 C 1298.23 329.34 1296.72 350.82 1293.67 366.67 C 1290.62 382.52 1286.25 398.07 1280.08 412.08 C 1273.90 426.09 1267.87 438.33 1259.23 450.23 C 1250.59 462.13 1243.39 471.28 1232.25 481.25 C 1221.10 491.21 1210.75 498.13 1197.25 505.25 C 1183.76 512.38 1167.87 516.95 1152.00 519.00 C 1136.13 521.04 1115.20 520.41 1099.78 516.22 C 1084.36 512.03 1071.72 506.65 1058.00 499.00
C 1058.73 513.29 1058.77 527.56 1059.00 542.00 C 1059.23 556.44 1061.30 570.37 1061.00 585.00 C 1060.70 599.63 1063.18 614.14 1062.00 629.00 C 1060.82 643.86 1039.77 637.03 1027.00 638.00 C 1014.23 638.97 996.40 637.20 983.00 639.00 C 969.60 640.80 954.07 639.58 940.33 641.33 C 926.59 643.08 912.00 642.52 898.00 644.00 C 884.00 645.48 871.39 645.66 857.00 647.00 C 842.61 648.34 830.16 648.73 815.00 650.00 C 799.84 651.27 790.28 651.56 773.78 653.78 C 757.27 656.00 759.74 640.61 768.30 631.30 C 776.87 622.00 778.08 613.28 783.92 602.92 C 789.77 592.57 792.28 581.94 796.93 570.93 C 801.57 559.91 804.78 548.84 807.98 536.98 C 811.17 525.12 814.84 511.10 814.00 498.00
C 814.00 457.00 814.00 416.00 814.00 375.00
C 814.00 346.33 814.00 317.67 814.00 289.00
C 813.67 285.60 813.00 281.08 813.00 277.00
C 813.00 264.31 813.57 251.32 812.00 239.00
C 793.91 242.09 776.37 249.06 761.00 259.00
C 763.60 276.24 768.25 293.01 768.00 311.00
C 768.24 313.46 769.17 316.84 769.00 320.00
C 767.87 340.83 765.81 365.98 760.07 385.07 C 754.34 404.16 748.02 421.49 737.75 437.75 C 727.47 454.00 719.54 466.00 705.25 479.25 C 690.96 492.49 677.59 500.38 659.92 508.92 C 642.26 517.47 617.99 520.76 598.00 520.00 C 578.01 519.24 556.28 513.94 539.31 504.70 C 522.34 495.45 510.38 486.16 496.75 472.25 C 483.13 458.33 475.48 445.96 466.08 428.92 C 456.67 411.89 450.49 393.65 446.01 373.99 C 441.53 354.33 438.91 326.80 440.99 305.99 C 443.07 285.19 445.74 262.48 452.98 243.98 C 460.21 225.47 467.43 210.09 478.30 194.30 C 489.18 178.52 499.30 168.37 514.25 156.25 C 529.19 144.13 544.21 136.30 563.02 130.02 C 581.84 123.75 609.72 122.49 630.00 126.00 C 650.28 129.51 664.60 137.77 682.25 147.75 C 699.89 157.74 707.27 176.75 730.00 175.00 C 752.73 173.25 781.70 176.31 805.00 175.00
C 803.03 157.14 796.24 138.23 790.22 121.78 C 784.21 105.33 775.45 92.57 765.25 78.75 C 755.05 64.93 738.18 59.88 730.00 46.00
C 739.43 38.67 752.67 43.28 764.00 42.00
C 767.10 42.00 770.64 42.77 773.00 43.00
M 368.00 55.00 
C 373.06 55.00 378.68 55.58 383.00 56.00
C 408.36 56.00 433.43 58.00 459.00 58.00
C 464.06 58.00 469.68 58.58 474.00 59.00
C 485.10 59.00 494.79 60.92 506.00 60.00 C 517.21 59.08 527.53 63.23 539.00 61.00 C 550.47 58.77 555.87 69.97 546.77 74.77 C 537.67 79.56 532.72 82.01 525.30 87.30 C 517.89 92.60 512.80 96.73 506.25 102.25 C 499.71 107.78 495.45 113.64 489.25 119.25 C 483.05 124.86 479.10 131.60 473.70 137.70 C 468.30 143.79 464.23 149.98 459.70 156.70 C 455.16 163.41 450.34 170.11 446.23 177.23 C 442.11 184.35 437.53 191.26 433.70 198.70 C 429.87 206.14 425.58 213.48 422.22 221.22 C 418.86 228.97 415.03 236.87 411.70 244.69 C 408.36 252.52 404.57 260.36 401.22 268.22 C 397.88 276.08 394.09 283.84 390.70 291.69 C 387.30 299.55 383.74 307.43 380.23 315.23 C 376.71 323.03 373.74 330.28 370.08 338.08 C 366.41 345.87 363.18 353.67 359.69 361.69 C 356.21 369.72 352.51 376.74 349.08 385.08 C 345.64 393.41 342.20 399.77 338.69 408.69 C 335.19 417.62 337.56 430.60 337.00 441.00 C 336.44 451.40 337.45 464.33 337.00 475.00 C 336.55 485.67 337.63 498.51 337.00 509.00 C 336.37 519.49 337.52 529.98 339.93 539.07 C 342.33 548.17 345.80 554.84 350.75 562.25 C 355.71 569.65 360.78 574.00 367.08 579.92 C 373.38 585.84 380.68 588.61 387.23 593.77 C 393.78 598.93 404.89 598.07 407.77 607.23 C 410.65 616.39 396.85 618.48 388.93 619.93 C 381.00 621.37 369.55 623.98 360.98 625.98 C 352.40 627.97 341.88 630.01 333.00 632.00 C 324.11 633.99 315.15 636.52 306.00 638.00 C 296.84 639.47 287.95 643.23 278.78 644.78 C 269.61 646.33 259.91 649.06 250.93 650.93 C 241.94 652.79 231.70 655.19 222.98 656.98 C 214.26 658.76 203.31 662.38 194.99 662.99 C 186.67 663.60 175.46 672.48 169.25 664.75 C 163.05 657.02 176.63 649.96 182.75 646.75 C 188.86 643.53 196.17 636.94 202.08 632.08 C 207.99 627.22 212.69 620.95 217.92 614.92 C 223.15 608.89 227.69 602.06 231.92 594.92 C 236.15 587.77 240.38 580.89 243.77 572.77 C 247.16 564.65 249.65 556.02 251.98 546.98 C 254.30 537.93 255.89 527.05 256.00 517.00 C 256.11 506.96 255.93 494.39 254.00 485.00 C 252.08 475.61 250.13 466.57 247.07 457.93 C 244.02 449.29 242.19 441.44 238.68 433.32 C 235.16 425.21 232.01 417.54 228.23 409.77 C 224.44 402.00 221.03 394.45 217.08 386.92 C 213.12 379.40 208.93 372.37 205.08 364.92 C 201.22 357.48 196.57 350.66 192.75 343.25 C 188.92 335.85 184.52 328.70 180.70 321.31 C 176.87 313.91 172.12 307.08 168.25 299.75 C 164.37 292.43 160.31 284.93 156.23 277.77 C 152.15 270.61 148.34 263.89 144.23 256.77 C 140.12 249.65 136.27 241.91 132.23 234.77 C 128.19 227.63 123.80 220.92 118.23 214.77 C 112.66 208.62 107.07 203.80 101.25 197.75 C 95.43 191.70 88.43 188.82 82.30 182.70 C 76.17 176.58 68.79 175.27 62.30 168.70 C 55.81 162.13 47.29 164.68 43.08 153.92 C 38.86 143.17 55.41 143.00 64.00 143.00
C 69.04 142.51 75.27 142.00 81.00 142.00
C 87.00 142.00 93.00 142.00 99.00 142.00
C 116.33 142.00 133.67 142.00 151.00 142.00
C 156.04 141.51 162.27 141.00 168.00 141.00
C 185.67 141.00 203.33 141.00 221.00 141.00
C 226.04 140.51 232.28 140.00 238.00 140.00
C 245.85 140.00 266.43 138.71 262.24 149.25 C 258.06 159.78 252.18 162.78 248.70 172.69 C 245.21 182.61 240.86 189.94 239.22 200.22 C 237.59 210.51 236.56 223.91 238.00 234.00 C 239.44 244.09 242.79 253.72 246.31 262.69 C 249.82 271.67 253.97 279.26 258.92 287.08 C 263.86 294.90 268.68 301.59 274.25 308.75 C 279.83 315.90 285.73 322.65 292.00 329.00
C 298.18 319.37 303.62 309.48 309.30 299.30 C 314.98 289.13 320.12 279.17 325.77 268.77 C 331.42 258.37 336.63 247.61 341.78 236.78 C 346.93 225.94 351.42 215.52 356.31 204.31 C 361.19 193.09 364.79 180.24 368.33 168.33 C 371.86 156.41 371.39 139.79 366.07 128.93 C 360.76 118.07 356.31 108.29 347.75 100.25 C 339.19 92.20 334.27 82.04 324.25 75.75 C 314.23 69.46 302.94 54.82 321.00 54.00 C 339.06 53.18 350.31 56.30 368.00 55.00 Z"/>
</g>
<g fill="#000000" fill-opacity="1.00" stroke="None">
<path d="
M 769.00 320.00 
C 768.90 317.74 768.00 313.97 768.00 311.00
C 768.25 293.01 763.60 276.24 761.00 259.00
C 776.37 249.06 793.91 242.09 812.00 239.00
C 813.57 251.32 813.00 264.31 813.00 277.00
C 813.33 280.40 814.00 284.92 814.00 289.00
C 814.00 317.67 814.00 346.33 814.00 375.00
C 815.89 394.54 815.01 415.66 815.00 436.00 C 814.99 456.34 815.89 478.45 814.00 498.00
C 814.84 511.10 811.17 525.12 807.98 536.98 C 804.78 548.84 801.57 559.91 796.93 570.93 C 792.28 581.94 789.77 592.57 783.92 602.92 C 778.08 613.28 776.87 622.00 768.30 631.30 C 759.74 640.61 757.27 656.00 773.78 653.78 C 790.28 651.56 799.84 651.27 815.00 650.00 C 830.16 648.73 842.61 648.34 857.00 647.00 C 871.39 645.66 884.00 645.48 898.00 644.00 C 912.00 642.52 926.59 643.08 940.33 641.33 C 954.07 639.58 969.60 640.80 983.00 639.00 C 996.40 637.20 1014.23 638.97 1027.00 638.00 C 1039.77 637.03 1060.82 643.86 1062.00 629.00 C 1063.18 614.14 1060.70 599.63 1061.00 585.00 C 1061.30 570.37 1059.23 556.44 1059.00 542.00 C 1058.77 527.56 1058.73 513.29 1058.00 499.00
C 1071.72 506.65 1084.36 512.03 1099.78 516.22 C 1115.20 520.41 1136.13 521.04 1152.00 519.00 C 1167.87 516.95 1183.76 512.38 1197.25 505.25 C 1210.75 498.13 1221.10 491.21 1232.25 481.25 C 1243.39 471.28 1250.59 462.13 1259.23 450.23 C 1267.87 438.33 1273.90 426.09 1280.08 412.08 C 1286.25 398.07 1290.62 382.52 1293.67 366.67 C 1296.72 350.82 1298.23 329.34 1297.33 312.67 C 1296.44 296.00 1294.26 276.32 1289.93 261.07 C 1285.59 245.82 1280.75 232.58 1273.92 219.08 C 1267.10 205.57 1260.11 194.77 1250.77 183.23 C 1241.43 171.69 1233.08 163.01 1221.08 153.92 C 1209.08 144.83 1197.54 138.82 1183.07 132.93 C 1168.61 127.03 1149.60 123.93 1133.00 124.00 C 1116.40 124.07 1098.89 127.07 1084.03 133.02 C 1069.16 138.98 1059.14 144.34 1046.08 154.08 C 1033.02 163.82 1026.45 177.08 1008.00 175.00 C 989.55 172.92 967.92 176.10 949.00 175.00 C 930.08 173.90 910.03 175.83 891.00 175.00
C 892.81 165.37 896.44 154.65 899.68 145.68 C 902.92 136.71 907.46 128.00 912.08 120.08 C 916.69 112.15 922.06 105.68 928.08 99.08 C 934.10 92.48 941.57 86.17 948.75 81.75 C 955.94 77.34 965.84 69.92 973.32 68.32 C 980.80 66.72 997.83 59.99 989.92 52.08 C 982.01 44.17 967.17 49.91 956.00 48.00 C 944.83 46.09 930.72 48.11 919.00 47.00 C 907.28 45.89 895.02 46.62 883.00 46.00 C 870.98 45.38 858.19 45.42 846.00 45.00 C 833.81 44.58 821.26 44.27 809.00 44.00 C 796.74 43.73 785.43 43.00 773.00 43.00
C 769.90 43.00 766.36 42.23 764.00 42.00
C 752.67 43.28 739.43 38.67 730.00 46.00
C 738.18 59.88 755.05 64.93 765.25 78.75 C 775.45 92.57 784.21 105.33 790.22 121.78 C 796.24 138.23 803.03 157.14 805.00 175.00
C 781.70 176.31 752.73 173.25 730.00 175.00 C 707.27 176.75 699.89 157.74 682.25 147.75 C 664.60 137.77 650.28 129.51 630.00 126.00 C 609.72 122.49 581.84 123.75 563.02 130.02 C 544.21 136.30 529.19 144.13 514.25 156.25 C 499.30 168.37 489.18 178.52 478.30 194.30 C 467.43 210.09 460.21 225.47 452.98 243.98 C 445.74 262.48 443.07 285.19 440.99 305.99 C 438.91 326.80 441.53 354.33 446.01 373.99 C 450.49 393.65 456.67 411.89 466.08 428.92 C 475.48 445.96 483.13 458.33 496.75 472.25 C 510.38 486.16 522.34 495.45 539.31 504.70 C 556.28 513.94 578.01 519.24 598.00 520.00 C 617.99 520.76 642.26 517.47 659.92 508.92 C 677.59 500.38 690.96 492.49 705.25 479.25 C 719.54 466.00 727.47 454.00 737.75 437.75 C 748.02 421.49 754.34 404.16 760.07 385.07 C 765.81 365.98 767.87 340.83 769.00 320.00
M 1098.00 161.00 
C 1109.70 162.13 1120.07 169.10 1112.75 179.75 C 1105.42 190.39 1101.60 193.54 1094.23 202.23 C 1086.86 210.92 1081.34 215.57 1075.75 224.75 C 1070.15 233.92 1066.23 241.05 1062.08 251.08 C 1057.92 261.10 1053.01 268.43 1049.23 279.23 C 1045.45 290.02 1035.02 296.01 1029.23 283.77 C 1023.44 271.53 1022.86 261.75 1023.00 249.00 C 1023.14 236.25 1025.68 226.33 1029.92 215.92 C 1034.17 205.52 1038.97 198.92 1045.75 190.75 C 1052.54 182.59 1058.06 176.50 1066.75 170.75 C 1075.43 164.99 1087.02 159.94 1098.00 161.00
M 580.00 166.00 
C 598.63 167.27 595.68 180.57 586.75 190.75 C 577.82 200.94 572.24 206.31 564.25 216.25 C 556.26 226.18 550.38 234.49 545.23 246.23 C 540.08 257.97 534.24 266.24 530.22 279.22 C 526.21 292.21 514.28 301.21 507.70 286.31 C 501.11 271.40 501.01 258.94 502.33 244.33 C 503.65 229.72 508.45 219.35 514.92 207.92 C 521.40 196.50 527.91 190.66 537.08 182.08 C 546.25 173.50 557.40 166.68 570.00 166.00
C 573.46 165.44 576.58 165.39 580.00 166.00
M 811.00 222.00 
C 791.19 225.30 772.26 232.47 755.00 243.00
C 748.87 225.01 738.98 208.04 729.00 192.00
C 737.82 192.40 748.35 191.46 757.00 192.00 C 765.65 192.54 776.98 190.97 785.00 192.00 C 793.02 193.03 806.64 188.02 808.99 196.01 C 811.34 204.00 810.24 213.54 811.00 222.00
M 1009.00 192.00 
C 997.48 209.18 987.86 227.97 981.00 247.00
C 972.99 240.86 967.59 235.84 957.92 232.08 C 948.26 228.31 940.71 223.81 929.33 222.67 C 917.95 221.53 909.37 216.58 896.00 218.00 C 882.63 219.42 886.46 202.72 888.00 192.00
C 928.33 192.00 968.67 192.00 1009.00 192.00
M 887.00 272.00 
C 886.77 269.58 886.00 266.10 886.00 263.00
C 886.00 253.33 886.00 243.67 886.00 234.00
C 902.47 234.78 926.99 237.65 941.22 243.78 C 955.46 249.90 976.83 255.83 974.02 274.02 C 971.21 292.22 968.36 315.26 969.98 334.02 C 971.59 352.79 973.52 373.15 978.98 390.02 C 984.43 406.89 990.11 420.66 998.75 435.25 C 1007.40 449.84 1014.76 461.32 1027.00 473.00
C 1013.63 494.08 1005.25 510.48 983.75 526.75 C 962.26 543.02 923.70 535.46 897.00 537.00
C 893.77 448.65 888.59 360.77 887.00 272.00 Z"/>
</g>
<g fill="#007B7B" fill-opacity="1.00" stroke="None">
<path d="
M 773.00 43.00 
C 770.64 42.77 767.10 42.00 764.00 42.00
C 766.36 42.23 769.90 43.00 773.00 43.00 Z"/>
</g>
<g fill="#000000" fill-opacity="1.00" stroke="None">
<path d="
M 238.00 140.00 
C 232.96 140.49 226.73 141.00 221.00 141.00
C 203.33 141.00 185.67 141.00 168.00 141.00
C 162.96 141.49 156.73 142.00 151.00 142.00
C 133.67 142.00 116.33 142.00 99.00 142.00
C 93.63 142.52 87.05 143.00 81.00 143.00
C 75.33 143.00 69.67 143.00 64.00 143.00
C 55.41 143.00 38.86 143.17 43.08 153.92 C 47.29 164.68 55.81 162.13 62.30 168.70 C 68.79 175.27 76.17 176.58 82.30 182.70 C 88.43 188.82 95.43 191.70 101.25 197.75 C 107.07 203.80 112.66 208.62 118.23 214.77 C 123.80 220.92 128.19 227.63 132.23 234.77 C 136.27 241.91 140.12 249.65 144.23 256.77 C 148.34 263.89 152.15 270.61 156.23 277.77 C 160.31 284.93 164.37 292.43 168.25 299.75 C 172.12 307.08 176.87 313.91 180.70 321.31 C 184.52 328.70 188.92 335.85 192.75 343.25 C 196.57 350.66 201.22 357.48 205.08 364.92 C 208.93 372.37 213.12 379.40 217.08 386.92 C 221.03 394.45 224.44 402.00 228.23 409.77 C 232.01 417.54 235.16 425.21 238.68 433.32 C 242.19 441.44 244.02 449.29 247.07 457.93 C 250.13 466.57 252.08 475.61 254.00 485.00 C 255.93 494.39 256.11 506.96 256.00 517.00 C 255.89 527.05 254.30 537.93 251.98 546.98 C 249.65 556.02 247.16 564.65 243.77 572.77 C 240.38 580.89 236.15 587.77 231.92 594.92 C 227.69 602.06 223.15 608.89 217.92 614.92 C 212.69 620.95 207.99 627.22 202.08 632.08 C 196.17 636.94 188.86 643.53 182.75 646.75 C 176.63 649.96 163.05 657.02 169.25 664.75 C 175.46 672.48 186.67 663.60 194.99 662.99 C 203.31 662.38 214.26 658.76 222.98 656.98 C 231.70 655.19 241.94 652.79 250.93 650.93 C 259.91 649.06 269.61 646.33 278.78 644.78 C 287.95 643.23 296.84 639.47 306.00 638.00 C 315.15 636.52 324.11 633.99 333.00 632.00 C 341.88 630.01 352.40 627.97 360.98 625.98 C 369.55 623.98 381.00 621.37 388.93 619.93 C 396.85 618.48 410.65 616.39 407.77 607.23 C 404.89 598.07 393.78 598.93 387.23 593.77 C 380.68 588.61 373.38 585.84 367.08 579.92 C 360.78 574.00 355.71 569.65 350.75 562.25 C 345.80 554.84 342.33 548.17 339.93 539.07 C 337.52 529.98 336.37 519.49 337.00 509.00 C 337.63 498.51 336.55 485.67 337.00 475.00 C 337.45 464.33 336.44 451.40 337.00 441.00 C 337.56 430.60 335.19 417.62 338.69 408.69 C 342.20 399.77 345.64 393.41 349.08 385.08 C 352.51 376.74 356.21 369.72 359.69 361.69 C 363.18 353.67 366.41 345.87 370.08 338.08 C 373.74 330.28 376.71 323.03 380.23 315.23 C 383.74 307.43 387.30 299.55 390.70 291.69 C 394.09 283.84 397.88 276.08 401.22 268.22 C 404.57 260.36 408.36 252.52 411.70 244.69 C 415.03 236.87 418.86 228.97 422.22 221.22 C 425.58 213.48 429.87 206.14 433.70 198.70 C 437.53 191.26 442.11 184.35 446.23 177.23 C 450.34 170.11 455.16 163.41 459.70 156.70 C 464.23 149.98 468.30 143.79 473.70 137.70 C 479.10 131.60 483.05 124.86 489.25 119.25 C 495.45 113.64 499.71 107.78 506.25 102.25 C 512.80 96.73 517.89 92.60 525.30 87.30 C 532.72 82.01 537.67 79.56 546.77 74.77 C 555.87 69.97 550.47 58.77 539.00 61.00 C 527.53 63.23 517.21 59.08 506.00 60.00 C 494.79 60.92 485.10 59.00 474.00 59.00
C 468.94 59.00 463.32 58.42 459.00 58.00
C 433.43 58.00 408.36 56.00 383.00 56.00
C 377.94 56.00 372.32 55.42 368.00 55.00
C 350.31 56.30 339.06 53.18 321.00 54.00 C 302.94 54.82 314.23 69.46 324.25 75.75 C 334.27 82.04 339.19 92.20 347.75 100.25 C 356.31 108.29 360.76 118.07 366.07 128.93 C 371.39 139.79 371.86 156.41 368.33 168.33 C 364.79 180.24 361.19 193.09 356.31 204.31 C 351.42 215.52 346.93 225.94 341.78 236.78 C 336.63 247.61 331.42 258.37 325.77 268.77 C 320.12 279.17 314.98 289.13 309.30 299.30 C 303.62 309.48 298.18 319.37 292.00 329.00
C 285.73 322.65 279.83 315.90 274.25 308.75 C 268.68 301.59 263.86 294.90 258.92 287.08 C 253.97 279.26 249.82 271.67 246.31 262.69 C 242.79 253.72 239.44 244.09 238.00 234.00 C 236.56 223.91 237.59 210.51 239.22 200.22 C 240.86 189.94 245.21 182.61 248.70 172.69 C 252.18 162.78 258.06 159.78 262.24 149.25 C 266.43 138.71 245.85 140.00 238.00 140.00 Z"/>
</g>
<g fill="#009D9D" fill-opacity="1.00" stroke="None">
<path d="
M 383.00 56.00 
C 378.68 55.58 373.06 55.00 368.00 55.00
C 372.32 55.42 377.94 56.00 383.00 56.00 Z"/>
</g>
<g fill="#009D9D" fill-opacity="1.00" stroke="None">
<path d="
M 474.00 59.00 
C 469.68 58.58 464.06 58.00 459.00 58.00
C 463.32 58.42 468.94 59.00 474.00 59.00 Z"/>
</g>
<g fill="#007E7E" fill-opacity="1.00" stroke="None">
<path d="
M 232.00 116.00 
C 238.00 116.00 244.00 116.00 250.00 116.00
C 249.96 116.00 250.00 115.00 250.00 115.00
C 243.95 115.00 237.37 115.48 232.00 116.00 Z"/>
</g>
<g fill="#00BFBF" fill-opacity="1.00" stroke="None">
<path d="
M 250.00 116.00 
C 253.07 116.00 257.72 114.92 260.00 115.00
C 256.80 114.57 253.24 115.00 250.00 115.00
C 250.00 115.00 249.96 116.00 250.00 116.00 Z"/>
</g>
<g fill="#007F7F" fill-opacity="1.00" stroke="None">
<path d="
M 163.00 117.00 
C 168.73 117.00 174.96 116.49 180.00 116.00
C 174.27 116.00 168.04 116.51 163.00 117.00 Z"/>
</g>
<g fill="#007F7F" fill-opacity="1.00" stroke="None">
<path d="
M 93.00 118.00 
C 98.73 118.00 104.96 117.49 110.00 117.00
C 104.27 117.00 98.04 117.51 93.00 118.00 Z"/>
</g>
<g fill="#007F7F" fill-opacity="1.00" stroke="None">
<path d="
M 221.00 141.00 
C 226.73 141.00 232.96 140.49 238.00 140.00
C 232.28 140.00 226.04 140.51 221.00 141.00 Z"/>
</g>
<g fill="#007F7F" fill-opacity="1.00" stroke="None">
<path d="
M 151.00 142.00 
C 156.73 142.00 162.96 141.49 168.00 141.00
C 162.27 141.00 156.04 141.51 151.00 142.00 Z"/>
</g>
<g fill="#00BFBF" fill-opacity="1.00" stroke="None">
<path d="
M 64.00 143.00 
C 69.67 143.00 75.33 143.00 81.00 143.00
C 80.96 143.00 81.00 142.00 81.00 142.00
C 75.27 142.00 69.04 142.51 64.00 143.00 Z"/>
</g>
<g fill="#007E7E" fill-opacity="1.00" stroke="None">
<path d="
M 81.00 143.00 
C 87.05 143.00 93.63 142.52 99.00 142.00
C 93.00 142.00 87.00 142.00 81.00 142.00
C 81.00 142.00 80.96 143.00 81.00 143.00 Z"/>
</g>
<g fill="#000000" fill-opacity="0.00" stroke="None">
<path d="
M 0.00 710.00 
L 1337.00 710.00
L 1337.00 350.00
C 1336.50 350.00 1336.00 350.00 1336.00 350.00
C 1331.19 387.22 1327.13 407.76 1308.92 442.92 C 1290.72 478.09 1267.43 507.68 1232.23 530.23 C 1197.03 552.78 1144.40 567.41 1101.00 557.00
C 1099.51 584.17 1108.27 618.87 1101.78 644.78 C 1095.29 670.68 1073.59 682.58 1047.00 683.00 C 1020.41 683.42 983.69 683.65 956.01 685.01 C 928.32 686.37 896.30 689.19 868.67 690.67 C 841.04 692.15 808.44 694.88 782.00 697.00 C 755.56 699.12 734.85 690.81 718.92 669.08 C 703.00 647.35 723.30 623.95 735.23 604.23 C 747.16 584.51 755.35 562.23 763.07 539.07 C 770.80 515.91 773.62 480.64 770.00 455.00
C 747.19 492.55 719.65 520.56 679.69 541.69 C 639.74 562.83 575.43 565.18 534.23 546.77 C 493.03 528.36 463.04 502.25 439.25 464.75 C 415.46 427.24 408.79 400.87 401.00 365.00
C 392.25 383.94 390.65 392.11 380.39 409.25 C 370.13 426.38 378.78 464.62 375.00 490.00 C 371.22 515.38 378.99 548.37 404.77 557.23 C 430.55 566.09 447.95 581.40 450.00 608.00 C 452.05 634.60 429.51 654.58 404.67 658.67 C 379.83 662.76 350.64 671.85 325.07 676.07 C 299.50 680.30 272.86 690.76 247.01 694.01 C 221.15 697.25 192.87 712.15 166.22 708.78 C 139.57 705.41 123.32 679.03 127.22 653.22 C 131.13 627.41 153.02 617.83 172.75 602.75 C 192.48 587.68 201.48 566.12 210.22 543.22 C 218.97 520.32 213.76 484.50 204.98 462.02 C 196.19 439.55 188.32 420.82 180.19 407.25 C 172.06 393.69 165.30 377.51 156.71 363.30 C 148.12 349.10 141.24 335.51 133.11 320.89 C 124.97 306.27 116.70 292.28 108.19 278.25 C 99.68 264.23 95.86 248.05 78.25 232.75 C 60.64 217.46 46.63 207.16 29.92 197.13 C 13.21 187.10 1.80 173.73 0.00 153.00
L 0.00 710.00 Z"/>
</g>
<g fill="#FCFCFC" fill-opacity="1.00" stroke="None">
<path d="
M 1098.00 161.00 
C 1087.02 159.94 1075.43 164.99 1066.75 170.75 C 1058.06 176.50 1052.54 182.59 1045.75 190.75 C 1038.97 198.92 1034.17 205.52 1029.92 215.92 C 1025.68 226.33 1023.14 236.25 1023.00 249.00 C 1022.86 261.75 1023.44 271.53 1029.23 283.77 C 1035.02 296.01 1045.45 290.02 1049.23 279.23 C 1053.01 268.43 1057.92 261.10 1062.08 251.08 C 1066.23 241.05 1070.15 233.92 1075.75 224.75 C 1081.34 215.57 1086.86 210.92 1094.23 202.23 C 1101.60 193.54 1105.42 190.39 1112.75 179.75 C 1120.07 169.10 1109.70 162.13 1098.00 161.00 Z"/>
</g>
<g fill="#6D6D6D" fill-opacity="1.00" stroke="None">
<path d="
M 570.00 166.00 
C 573.25 165.82 576.75 165.78 580.00 166.00
C 576.58 165.39 573.46 165.44 570.00 166.00 Z"/>
</g>
<g fill="#FDFDFD" fill-opacity="1.00" stroke="None">
<path d="
M 580.00 166.00 
C 576.75 165.78 573.25 165.82 570.00 166.00
C 557.40 166.68 546.25 173.50 537.08 182.08 C 527.91 190.66 521.40 196.50 514.92 207.92 C 508.45 219.35 503.65 229.72 502.33 244.33 C 501.01 258.94 501.11 271.40 507.70 286.31 C 514.28 301.21 526.21 292.21 530.22 279.22 C 534.24 266.24 540.08 257.97 545.23 246.23 C 550.38 234.49 556.26 226.18 564.25 216.25 C 572.24 206.31 577.82 200.94 586.75 190.75 C 595.68 180.57 598.63 167.27 580.00 166.00 Z"/>
</g>
<g fill="#00FAFA" fill-opacity="1.00" stroke="None">
<path d="
M 811.00 222.00 
C 810.24 213.54 811.34 204.00 808.99 196.01 C 806.64 188.02 793.02 193.03 785.00 192.00 C 776.98 190.97 765.65 192.54 757.00 192.00 C 748.35 191.46 737.82 192.40 729.00 192.00
C 738.98 208.04 748.87 225.01 755.00 243.00
C 772.26 232.47 791.19 225.30 811.00 222.00 Z"/>
</g>
<g fill="#00FBFB" fill-opacity="1.00" stroke="None">
<path d="
M 1009.00 192.00 
C 968.67 192.00 928.33 192.00 888.00 192.00
C 886.46 202.72 882.63 219.42 896.00 218.00 C 909.37 216.58 917.95 221.53 929.33 222.67 C 940.71 223.81 948.26 228.31 957.92 232.08 C 967.59 235.84 972.99 240.86 981.00 247.00
C 987.86 227.97 997.48 209.18 1009.00 192.00 Z"/>
</g>
<g fill="#00FBFB" fill-opacity="1.00" stroke="None">
<path d="
M 886.00 263.00 
C 886.23 265.42 887.00 268.91 887.00 272.00
C 888.59 360.77 893.77 448.65 897.00 537.00
C 923.70 535.46 962.26 543.02 983.75 526.75 C 1005.25 510.48 1013.63 494.08 1027.00 473.00
C 1014.76 461.32 1007.40 449.84 998.75 435.25 C 990.11 420.66 984.43 406.89 978.98 390.02 C 973.52 373.15 971.59 352.79 969.98 334.02 C 968.36 315.26 971.21 292.22 974.02 274.02 C 976.83 255.83 955.46 249.90 941.22 243.78 C 926.99 237.65 902.47 234.78 886.00 234.00
C 886.00 243.67 886.00 253.33 886.00 263.00
M 947.00 311.00 
C 947.00 314.10 946.23 317.64 946.00 320.00
C 946.00 322.00 946.00 324.00 946.00 326.00
C 946.23 328.42 947.00 331.91 947.00 335.00
C 947.00 349.82 949.90 366.39 952.93 380.07 C 955.95 393.76 959.79 406.82 964.78 419.22 C 969.76 431.63 975.47 443.05 981.92 454.08 C 988.37 465.11 1001.04 473.84 991.75 484.75 C 982.45 495.65 979.17 502.44 967.25 511.25 C 955.34 520.07 935.80 516.40 921.00 517.00
C 918.81 458.97 916.18 401.04 914.00 343.00
C 913.64 339.27 913.00 334.41 913.00 330.00
C 913.00 315.74 912.00 302.09 912.00 288.00
C 911.58 283.61 911.00 278.07 911.00 273.00
C 911.00 269.67 911.00 266.33 911.00 263.00
C 924.11 267.00 938.13 268.76 950.00 276.00
C 949.77 287.84 946.03 298.83 947.00 311.00 Z"/>
</g>
<g fill="#008080" fill-opacity="1.00" stroke="None">
<path d="
M 887.00 272.00 
C 887.00 268.91 886.23 265.42 886.00 263.00
C 886.00 266.10 886.77 269.58 887.00 272.00 Z"/>
</g>
<g fill="#000000" fill-opacity="1.00" stroke="None">
<path d="
M 911.00 273.00 
C 911.42 277.39 912.00 282.93 912.00 288.00
C 912.00 302.09 913.00 315.74 913.00 330.00
C 913.36 333.73 914.00 338.59 914.00 343.00
C 916.18 401.04 918.81 458.97 921.00 517.00
C 935.80 516.40 955.34 520.07 967.25 511.25 C 979.17 502.44 982.45 495.65 991.75 484.75 C 1001.04 473.84 988.37 465.11 981.92 454.08 C 975.47 443.05 969.76 431.63 964.78 419.22 C 959.79 406.82 955.95 393.76 952.93 380.07 C 949.90 366.39 947.00 349.82 947.00 335.00
C 946.77 332.58 946.00 329.09 946.00 326.00
C 946.00 324.00 946.00 322.00 946.00 320.00
C 946.00 316.90 946.77 313.36 947.00 311.00
C 946.03 298.83 949.77 287.84 950.00 276.00
C 938.13 268.76 924.11 267.00 911.00 263.00
C 911.00 266.33 911.00 269.67 911.00 273.00
M 931.00 303.00 
C 930.67 307.20 929.30 311.50 930.00 316.00
C 927.80 312.58 929.58 307.18 929.00 303.00
C 929.00 297.30 925.94 288.42 930.00 285.00
C 935.01 287.50 929.44 297.31 931.00 303.00
M 933.00 366.00 
C 937.03 409.54 956.00 443.12 977.00 477.00
C 967.17 489.23 956.94 505.32 937.00 501.00
C 934.99 456.93 932.13 411.69 932.00 368.00
C 931.99 363.57 929.93 357.18 931.00 352.00
C 932.93 356.07 932.17 361.89 933.00 366.00 Z"/>
</g>
<g fill="#009D9D" fill-opacity="1.00" stroke="None">
<path d="
M 912.00 288.00 
C 912.00 282.93 911.42 277.39 911.00 273.00
C 911.00 278.07 911.58 283.61 912.00 288.00 Z"/>
</g>
<g fill="#008080" fill-opacity="1.00" stroke="None">
<path d="
M 814.00 289.00 
C 814.00 284.92 813.33 280.40 813.00 277.00
C 813.00 281.08 813.67 285.60 814.00 289.00 Z"/>
</g>
<g fill="#000000" fill-opacity="0.25" stroke="None">
<path d="
M 929.00 303.00 
C 929.08 302.81 930.92 303.19 931.00 303.00
C 929.44 297.31 935.01 287.50 930.00 285.00
C 925.94 288.42 929.00 297.30 929.00 303.00 Z"/>
</g>
<g fill="#000000" fill-opacity="0.53" stroke="None">
<path d="
M 931.00 303.00 
C 930.92 303.19 929.08 302.81 929.00 303.00
C 929.58 307.18 927.80 312.58 930.00 316.00
C 929.30 311.50 930.67 307.20 931.00 303.00 Z"/>
</g>
<g fill="#007D7D" fill-opacity="1.00" stroke="None">
<path d="
M 769.00 320.00 
C 769.17 316.84 768.24 313.46 768.00 311.00
C 768.00 313.97 768.90 317.74 769.00 320.00 Z"/>
</g>
<g fill="#007D7D" fill-opacity="1.00" stroke="None">
<path d="
M 946.00 320.00 
C 946.23 317.64 947.00 314.10 947.00 311.00
C 946.77 313.36 946.00 316.90 946.00 320.00 Z"/>
</g>
<g fill="#007D7D" fill-opacity="1.00" stroke="None">
<path d="
M 1321.00 321.00 
C 1321.00 317.57 1320.27 313.75 1320.00 311.00
C 1320.00 314.44 1320.71 318.23 1321.00 321.00 Z"/>
</g>
<g fill="#007B7B" fill-opacity="1.00" stroke="None">
<path d="
M 947.00 335.00 
C 947.00 331.91 946.23 328.42 946.00 326.00
C 946.00 329.09 946.77 332.58 947.00 335.00 Z"/>
</g>
<g fill="#007D7D" fill-opacity="1.00" stroke="None">
<path d="
M 1320.00 335.00 
C 1320.23 332.64 1321.00 329.10 1321.00 326.00
C 1320.74 328.39 1320.00 331.88 1320.00 335.00 Z"/>
</g>
<g fill="#009A9A" fill-opacity="1.00" stroke="None">
<path d="
M 914.00 343.00 
C 914.00 338.59 913.36 333.73 913.00 330.00
C 913.00 334.41 913.64 339.27 914.00 343.00 Z"/>
</g>
<g fill="#000000" fill-opacity="0.53" stroke="None">
<path d="
M 1336.00 350.00 
C 1336.00 350.00 1336.50 350.00 1337.00 350.00
L 1337.00 340.00
C 1335.06 342.37 1336.18 346.80 1336.00 350.00 Z"/>
</g>
<g fill="#000000" fill-opacity="0.51" stroke="None">
<path d="
M 932.00 368.00 
C 932.05 367.87 933.02 365.89 933.00 366.00
C 932.17 361.89 932.93 356.07 931.00 352.00
C 929.93 357.18 931.99 363.57 932.00 368.00 Z"/>
</g>
<g fill="#000000" fill-opacity="0.04" stroke="None">
<path d="
M 932.00 368.00 
C 932.13 411.69 934.99 456.93 937.00 501.00
C 956.94 505.32 967.17 489.23 977.00 477.00
C 956.00 443.12 937.03 409.54 933.00 366.00
C 933.02 365.89 932.05 367.87 932.00 368.00 Z"/>
</g>
<g fill="#007E7E" fill-opacity="1.00" stroke="None">
<path d="
M 786.00 370.00 
C 784.42 379.11 788.40 391.70 787.00 402.00 C 785.60 412.30 787.61 423.50 787.00 434.00 C 786.39 444.50 787.23 455.42 787.00 466.00 C 786.77 476.58 787.00 487.40 787.00 498.00
C 789.33 455.65 787.33 411.17 788.00 368.00
C 787.17 368.16 786.15 369.13 786.00 370.00 Z"/>
</g>
<g fill="#007E7E" fill-opacity="1.00" stroke="None">
<path d="
M 814.00 498.00 
C 815.89 478.45 814.99 456.34 815.00 436.00 C 815.01 415.66 815.89 394.54 814.00 375.00
C 814.00 416.00 814.00 457.00 814.00 498.00 Z"/>
</g>
<g fill="#007F7F" fill-opacity="1.00" stroke="None">
<path d="
M 231.00 517.00 
C 231.36 513.29 231.37 508.77 231.00 505.00
C 231.00 509.00 231.00 513.00 231.00 517.00 Z"/>
</g>
<g fill="#007A7A" fill-opacity="1.00" stroke="None">
<path d="
M 607.00 543.00 
C 603.33 543.00 599.67 543.00 596.00 543.00
C 599.39 543.33 603.54 543.33 607.00 543.00 Z"/>
</g>
<g fill="#007979" fill-opacity="1.00" stroke="None">
<path d="
M 1140.00 543.00 
C 1135.67 543.00 1131.33 543.00 1127.00 543.00
C 1131.02 543.39 1135.91 543.40 1140.00 543.00 Z"/>
</g>
<g fill="#009D9D" fill-opacity="1.00" stroke="None">
<path d="
M 1087.00 617.00 
C 1087.00 611.93 1086.42 606.39 1086.00 602.00
C 1086.00 607.07 1086.58 612.61 1087.00 617.00 Z"/>
</g>
</svg>